M48
;GenerationSoftware,Autodesk,EAGLE,9.6.2*%
;CreationDate,2021-06-15T10:30:19Z*%
FMAT,2
ICI,OFF
METRIC,TZ,000.000
T6C0.350
T5C0.610
T4C0.813
T3C0.914
T2C1.016
T1C3.200
%
G90
M71
T1
X45085Y15240
X3175Y15240
T2
X45720Y93345
X2540Y85090
X2540Y87630
X2540Y90170
X2540Y92710
X45720Y95885
X45720Y90805
X45720Y88265
X45720Y84455
X45720Y81915
X45720Y79375
X2540Y26035
X45720Y47625
X45720Y3175
X43180Y3175
X45720Y5715
X43180Y5715
X45720Y8255
X43180Y8255
T3
X21590Y6350
X24130Y3810
X24130Y6350
X26670Y3810
X26670Y6350
X29210Y3810
X29210Y6350
X21590Y3810
X19050Y6350
X19050Y3810
T4
X11430Y5080
X3810Y38735
X8890Y5080
X39370Y5080
X36830Y5080
X17780Y13970
X42545Y73660
X37465Y73660
X32385Y88265
X37465Y88265
X15875Y88265
X10795Y88265
X20320Y80645
X31750Y33020
X26670Y33020
X43815Y22225
X38735Y22225
X44450Y27305
X44450Y29845
X6350Y65405
X11430Y65405
X31750Y65405
X26670Y65405
X34925Y51435
X40005Y51435
X8890Y19050
X13970Y19050
X21590Y11430
X26670Y11430
X31750Y43815
X26670Y43815
X6350Y43815
X11430Y43815
X43815Y19685
X38735Y19685
X43180Y42545
X43180Y37465
X45720Y40005
X43180Y40005
X11430Y33655
X3810Y33655
X3810Y36195
X11430Y36195
X15240Y22225
X15240Y24765
X15240Y27305
X15240Y29845
X7620Y29845
X7620Y27305
X7620Y24765
X7620Y22225
X22225Y36195
X22225Y38735
X22225Y51435
X14605Y51435
X22225Y41275
X22225Y43815
X22225Y48895
X22225Y46355
X14605Y48895
X14605Y46355
X14605Y43815
X14605Y41275
X14605Y38735
X14605Y36195
X39370Y27305
X37465Y28575
X39370Y29845
X27940Y14605
X27940Y17145
X27940Y29845
X20320Y29845
X27940Y19685
X27940Y22225
X27940Y27305
X27940Y24765
X20320Y27305
X20320Y24765
X20320Y22225
X20320Y19685
X20320Y17145
X20320Y14605
X22225Y57785
X22225Y60325
X22225Y73025
X14605Y73025
X22225Y62865
X22225Y65405
X22225Y70485
X22225Y67945
X14605Y70485
X14605Y67945
X14605Y65405
X14605Y62865
X14605Y60325
X14605Y57785
X36195Y70485
X36195Y67945
X36195Y55245
X43815Y55245
X36195Y65405
X36195Y62865
X36195Y57785
X36195Y60325
X43815Y57785
X43815Y60325
X43815Y62865
X43815Y65405
X43815Y67945
X43815Y70485
X20320Y83185
X20320Y85725
X20320Y88265
X20320Y90805
X20320Y93345
X27940Y90805
X27940Y95885
X27940Y83185
X33020Y38735
X25400Y38735
X10160Y13970
X27940Y93345
X25400Y60325
X33020Y60325
X33020Y62865
X25400Y62865
X33020Y41275
X25400Y41275
X25400Y46355
X33020Y46355
X3810Y46355
X11430Y46355
X11430Y48895
X3810Y48895
X11430Y41275
X3810Y41275
X11430Y38735
X27940Y88265
X25400Y57785
X33020Y57785
X25400Y36195
X33020Y36195
X11430Y60325
X3810Y60325
X38735Y85725
X31115Y85725
X25400Y55245
X33020Y55245
X25400Y73025
X33020Y73025
X33020Y70485
X25400Y70485
X33020Y67945
X25400Y67945
X25400Y75565
X33020Y75565
X11430Y57785
X3810Y57785
X3810Y55245
X11430Y55245
X11430Y62865
X3810Y62865
X38735Y41275
X38735Y48895
X36195Y48895
X36195Y41275
X25400Y51435
X33020Y51435
X33020Y48895
X25400Y48895
X29845Y12065
X37465Y12065
X10160Y11430
X17780Y11430
X15240Y16510
X7620Y16510
X37465Y38735
X37465Y33655
X37465Y36195
X27940Y85725
X20320Y95885
X1905Y20955
X3175Y22860
X4445Y20955
X4445Y3175
X4445Y8255
X1905Y5715
X4445Y5715
X41275Y82550
X41275Y90170
X31115Y95885
X38735Y95885
X31115Y93345
X38735Y93345
X31115Y90805
X38735Y90805
X39370Y80645
X31750Y80645
X31750Y78105
X39370Y78105
X38735Y83185
X31115Y83185
X41275Y97155
X41275Y92075
X9525Y82550
X14605Y82550
X12065Y85090
X12065Y82550
X9525Y93345
X17145Y93345
X9525Y90805
X17145Y90805
X17145Y95885
X9525Y95885
X6350Y89535
X6350Y97155
X3810Y70485
X11430Y70485
X11430Y67945
X3810Y67945
X10795Y78105
X3175Y78105
X22225Y76200
X14605Y76200
X3175Y75565
X10795Y75565
X3175Y73025
X10795Y73025
X27940Y80645
T5
X34925Y22225
X34925Y17145
T6
X30480Y23495
X29210Y48895
X24130Y74295
X29210Y74295
X41275Y14605
X31750Y26035
X40005Y25400
X33655Y12065
X6985Y87630
X6985Y56515
X5715Y71755
X29210Y59055
X33655Y90805
X33655Y84455
X18415Y70485
X38735Y13335
X34925Y29845
X18415Y55245
X18415Y36195
X17145Y42545
X22860Y86995
X17145Y59055
X17145Y64135
X22860Y31750
X19685Y43815
X25400Y88265
X18415Y76200
X18415Y74295
X19685Y65405
X25400Y77470
X19685Y77470
X38735Y17145
X12065Y21590
X1905Y9525
X36830Y93345
X24130Y95885
X8890Y57785
X34925Y89535
X8255Y73025
X36195Y78105
X34925Y80645
X18415Y60960
M30