G04 EAGLE Gerber RS-274X export*
G75*
%MOMM*%
%FSLAX34Y34*%
%LPD*%
%IN*%
%IPPOS*%
%AMOC8*
5,1,8,0,0,1.08239X$1,22.5*%
G01*
%ADD10C,0.254000*%


D10*
X0Y0D02*
X482600Y0D01*
X482600Y990600D01*
X0Y990600D01*
X0Y0D01*
X47752Y151876D02*
X47683Y150831D01*
X47547Y149792D01*
X47342Y148764D01*
X47071Y147752D01*
X46734Y146760D01*
X46333Y145792D01*
X45870Y144853D01*
X45346Y143945D01*
X44764Y143074D01*
X44126Y142243D01*
X43436Y141455D01*
X42695Y140714D01*
X41907Y140024D01*
X41076Y139386D01*
X40205Y138804D01*
X39297Y138280D01*
X38358Y137817D01*
X37390Y137416D01*
X36398Y137079D01*
X35386Y136808D01*
X34358Y136603D01*
X33319Y136467D01*
X32274Y136398D01*
X31226Y136398D01*
X30181Y136467D01*
X29142Y136603D01*
X28114Y136808D01*
X27102Y137079D01*
X26110Y137416D01*
X25142Y137817D01*
X24203Y138280D01*
X23295Y138804D01*
X22424Y139386D01*
X21593Y140024D01*
X20805Y140714D01*
X20064Y141455D01*
X19374Y142243D01*
X18736Y143074D01*
X18154Y143945D01*
X17630Y144853D01*
X17167Y145792D01*
X16766Y146760D01*
X16429Y147752D01*
X16158Y148764D01*
X15953Y149792D01*
X15817Y150831D01*
X15748Y151876D01*
X15748Y152924D01*
X15817Y153969D01*
X15953Y155008D01*
X16158Y156036D01*
X16429Y157048D01*
X16766Y158040D01*
X17167Y159008D01*
X17630Y159947D01*
X18154Y160855D01*
X18736Y161726D01*
X19374Y162557D01*
X20064Y163345D01*
X20805Y164086D01*
X21593Y164776D01*
X22424Y165414D01*
X23295Y165996D01*
X24203Y166520D01*
X25142Y166983D01*
X26110Y167384D01*
X27102Y167721D01*
X28114Y167992D01*
X29142Y168197D01*
X30181Y168333D01*
X31226Y168402D01*
X32274Y168402D01*
X33319Y168333D01*
X34358Y168197D01*
X35386Y167992D01*
X36398Y167721D01*
X37390Y167384D01*
X38358Y166983D01*
X39297Y166520D01*
X40205Y165996D01*
X41076Y165414D01*
X41907Y164776D01*
X42695Y164086D01*
X43436Y163345D01*
X44126Y162557D01*
X44764Y161726D01*
X45346Y160855D01*
X45870Y159947D01*
X46333Y159008D01*
X46734Y158040D01*
X47071Y157048D01*
X47342Y156036D01*
X47547Y155008D01*
X47683Y153969D01*
X47752Y152924D01*
X47752Y151876D01*
X466852Y151876D02*
X466783Y150831D01*
X466647Y149792D01*
X466442Y148764D01*
X466171Y147752D01*
X465834Y146760D01*
X465433Y145792D01*
X464970Y144853D01*
X464446Y143945D01*
X463864Y143074D01*
X463226Y142243D01*
X462536Y141455D01*
X461795Y140714D01*
X461007Y140024D01*
X460176Y139386D01*
X459305Y138804D01*
X458397Y138280D01*
X457458Y137817D01*
X456490Y137416D01*
X455498Y137079D01*
X454486Y136808D01*
X453458Y136603D01*
X452419Y136467D01*
X451374Y136398D01*
X450326Y136398D01*
X449281Y136467D01*
X448242Y136603D01*
X447214Y136808D01*
X446202Y137079D01*
X445210Y137416D01*
X444242Y137817D01*
X443303Y138280D01*
X442395Y138804D01*
X441524Y139386D01*
X440693Y140024D01*
X439905Y140714D01*
X439164Y141455D01*
X438474Y142243D01*
X437836Y143074D01*
X437254Y143945D01*
X436730Y144853D01*
X436267Y145792D01*
X435866Y146760D01*
X435529Y147752D01*
X435258Y148764D01*
X435053Y149792D01*
X434917Y150831D01*
X434848Y151876D01*
X434848Y152924D01*
X434917Y153969D01*
X435053Y155008D01*
X435258Y156036D01*
X435529Y157048D01*
X435866Y158040D01*
X436267Y159008D01*
X436730Y159947D01*
X437254Y160855D01*
X437836Y161726D01*
X438474Y162557D01*
X439164Y163345D01*
X439905Y164086D01*
X440693Y164776D01*
X441524Y165414D01*
X442395Y165996D01*
X443303Y166520D01*
X444242Y166983D01*
X445210Y167384D01*
X446202Y167721D01*
X447214Y167992D01*
X448242Y168197D01*
X449281Y168333D01*
X450326Y168402D01*
X451374Y168402D01*
X452419Y168333D01*
X453458Y168197D01*
X454486Y167992D01*
X455498Y167721D01*
X456490Y167384D01*
X457458Y166983D01*
X458397Y166520D01*
X459305Y165996D01*
X460176Y165414D01*
X461007Y164776D01*
X461795Y164086D01*
X462536Y163345D01*
X463226Y162557D01*
X463864Y161726D01*
X464446Y160855D01*
X464970Y159947D01*
X465433Y159008D01*
X465834Y158040D01*
X466171Y157048D01*
X466442Y156036D01*
X466647Y155008D01*
X466783Y153969D01*
X466852Y152924D01*
X466852Y151876D01*
M02*
