G04 EAGLE Gerber RS-274X export*
G75*
%MOMM*%
%FSLAX34Y34*%
%LPD*%
%INTop Copper*%
%IPPOS*%
%AMOC8*
5,1,8,0,0,1.08239X$1,22.5*%
G01*
%ADD10C,1.524000*%
%ADD11R,1.676400X1.676400*%
%ADD12P,1.814519X8X292.500000*%
%ADD13R,3.116000X3.116000*%
%ADD14P,1.429621X8X292.500000*%
%ADD15P,1.429621X8X112.500000*%
%ADD16C,1.650000*%
%ADD17P,1.429621X8X22.500000*%
%ADD18P,1.429621X8X202.500000*%
%ADD19C,0.609600*%
%ADD20C,0.756400*%
%ADD21C,0.406400*%

G36*
X17898Y10162D02*
X17898Y10162D01*
X17907Y10161D01*
X18099Y10182D01*
X18290Y10201D01*
X18299Y10203D01*
X18308Y10204D01*
X18490Y10262D01*
X18675Y10319D01*
X18683Y10323D01*
X18692Y10326D01*
X18860Y10419D01*
X19029Y10511D01*
X19036Y10516D01*
X19044Y10521D01*
X19191Y10645D01*
X19338Y10768D01*
X19344Y10775D01*
X19351Y10781D01*
X19470Y10932D01*
X19591Y11082D01*
X19595Y11090D01*
X19600Y11097D01*
X19688Y11270D01*
X19776Y11439D01*
X19779Y11448D01*
X19783Y11456D01*
X19835Y11642D01*
X19888Y11826D01*
X19888Y11835D01*
X19891Y11844D01*
X19905Y12037D01*
X19921Y12228D01*
X19920Y12236D01*
X19920Y12245D01*
X19896Y12438D01*
X19874Y12627D01*
X19871Y12636D01*
X19870Y12645D01*
X19808Y12828D01*
X19749Y13010D01*
X19744Y13018D01*
X19742Y13026D01*
X19646Y13192D01*
X19551Y13361D01*
X19545Y13368D01*
X19541Y13375D01*
X19326Y13628D01*
X17271Y15683D01*
X17271Y22417D01*
X22033Y27179D01*
X28767Y27179D01*
X31944Y24002D01*
X31965Y23985D01*
X31982Y23964D01*
X32120Y23857D01*
X32256Y23747D01*
X32279Y23734D01*
X32300Y23718D01*
X32457Y23640D01*
X32611Y23558D01*
X32637Y23550D01*
X32661Y23538D01*
X32830Y23493D01*
X32997Y23443D01*
X33024Y23441D01*
X33050Y23434D01*
X33380Y23407D01*
X78436Y23407D01*
X78458Y23409D01*
X78480Y23407D01*
X78658Y23429D01*
X78837Y23447D01*
X78858Y23453D01*
X78880Y23456D01*
X79050Y23512D01*
X79221Y23565D01*
X79241Y23575D01*
X79262Y23582D01*
X79418Y23671D01*
X79575Y23757D01*
X79593Y23771D01*
X79612Y23782D01*
X79747Y23899D01*
X79885Y24014D01*
X79899Y24032D01*
X79916Y24046D01*
X80025Y24188D01*
X80137Y24328D01*
X80147Y24348D01*
X80161Y24366D01*
X80313Y24661D01*
X80613Y25387D01*
X83363Y28137D01*
X86956Y29625D01*
X90844Y29625D01*
X94437Y28137D01*
X97187Y25387D01*
X98675Y21794D01*
X98675Y17906D01*
X97187Y14313D01*
X96502Y13628D01*
X96496Y13621D01*
X96489Y13616D01*
X96370Y13467D01*
X96247Y13317D01*
X96243Y13309D01*
X96237Y13302D01*
X96149Y13132D01*
X96058Y12961D01*
X96056Y12952D01*
X96051Y12945D01*
X95998Y12760D01*
X95943Y12575D01*
X95943Y12566D01*
X95940Y12558D01*
X95924Y12367D01*
X95907Y12174D01*
X95908Y12165D01*
X95907Y12156D01*
X95929Y11967D01*
X95950Y11774D01*
X95953Y11765D01*
X95954Y11757D01*
X96014Y11574D01*
X96072Y11390D01*
X96076Y11382D01*
X96079Y11374D01*
X96174Y11206D01*
X96267Y11038D01*
X96272Y11031D01*
X96277Y11023D01*
X96403Y10877D01*
X96527Y10731D01*
X96534Y10725D01*
X96540Y10718D01*
X96693Y10600D01*
X96843Y10481D01*
X96851Y10477D01*
X96858Y10472D01*
X97030Y10386D01*
X97202Y10299D01*
X97211Y10296D01*
X97219Y10292D01*
X97404Y10243D01*
X97590Y10191D01*
X97599Y10190D01*
X97607Y10188D01*
X97938Y10161D01*
X170290Y10161D01*
X170298Y10162D01*
X170307Y10161D01*
X170499Y10182D01*
X170690Y10201D01*
X170699Y10203D01*
X170708Y10204D01*
X170890Y10262D01*
X171075Y10319D01*
X171083Y10323D01*
X171092Y10326D01*
X171260Y10419D01*
X171429Y10511D01*
X171436Y10516D01*
X171444Y10521D01*
X171591Y10645D01*
X171738Y10768D01*
X171744Y10775D01*
X171751Y10781D01*
X171870Y10932D01*
X171991Y11082D01*
X171995Y11090D01*
X172000Y11097D01*
X172088Y11270D01*
X172176Y11439D01*
X172179Y11448D01*
X172183Y11456D01*
X172235Y11642D01*
X172288Y11826D01*
X172288Y11835D01*
X172291Y11844D01*
X172305Y12037D01*
X172321Y12228D01*
X172320Y12236D01*
X172320Y12245D01*
X172296Y12438D01*
X172274Y12627D01*
X172271Y12636D01*
X172270Y12645D01*
X172208Y12828D01*
X172149Y13010D01*
X172144Y13018D01*
X172142Y13026D01*
X172046Y13192D01*
X171951Y13361D01*
X171945Y13368D01*
X171941Y13375D01*
X171726Y13628D01*
X169671Y15683D01*
X169671Y22417D01*
X174433Y27179D01*
X181167Y27179D01*
X185144Y23202D01*
X185165Y23185D01*
X185182Y23164D01*
X185320Y23057D01*
X185456Y22947D01*
X185479Y22934D01*
X185500Y22918D01*
X185657Y22840D01*
X185811Y22758D01*
X185837Y22750D01*
X185861Y22738D01*
X186030Y22693D01*
X186197Y22643D01*
X186224Y22641D01*
X186250Y22634D01*
X186580Y22607D01*
X230505Y22607D01*
X230527Y22609D01*
X230549Y22607D01*
X230726Y22629D01*
X230905Y22647D01*
X230927Y22653D01*
X230949Y22656D01*
X231118Y22712D01*
X231290Y22765D01*
X231310Y22775D01*
X231331Y22782D01*
X231486Y22871D01*
X231644Y22957D01*
X231661Y22971D01*
X231681Y22982D01*
X231816Y23100D01*
X231953Y23214D01*
X231967Y23232D01*
X231984Y23246D01*
X232093Y23388D01*
X232206Y23528D01*
X232216Y23548D01*
X232230Y23566D01*
X232381Y23861D01*
X233013Y25387D01*
X235763Y28137D01*
X239356Y29625D01*
X243244Y29625D01*
X246837Y28137D01*
X249587Y25387D01*
X251075Y21794D01*
X251075Y17906D01*
X249587Y14313D01*
X248902Y13628D01*
X248896Y13621D01*
X248889Y13616D01*
X248770Y13467D01*
X248647Y13317D01*
X248643Y13309D01*
X248637Y13302D01*
X248549Y13132D01*
X248458Y12961D01*
X248456Y12952D01*
X248451Y12945D01*
X248398Y12760D01*
X248343Y12575D01*
X248343Y12566D01*
X248340Y12558D01*
X248324Y12367D01*
X248307Y12174D01*
X248308Y12165D01*
X248307Y12156D01*
X248329Y11967D01*
X248350Y11774D01*
X248353Y11765D01*
X248354Y11757D01*
X248414Y11574D01*
X248472Y11390D01*
X248476Y11382D01*
X248479Y11374D01*
X248574Y11206D01*
X248667Y11038D01*
X248672Y11031D01*
X248677Y11023D01*
X248803Y10877D01*
X248927Y10731D01*
X248934Y10725D01*
X248940Y10718D01*
X249093Y10600D01*
X249243Y10481D01*
X249251Y10477D01*
X249258Y10472D01*
X249430Y10386D01*
X249602Y10299D01*
X249611Y10296D01*
X249619Y10292D01*
X249804Y10243D01*
X249990Y10191D01*
X249999Y10190D01*
X250007Y10188D01*
X250338Y10161D01*
X322690Y10161D01*
X322698Y10162D01*
X322707Y10161D01*
X322899Y10182D01*
X323090Y10201D01*
X323099Y10203D01*
X323108Y10204D01*
X323290Y10262D01*
X323475Y10319D01*
X323483Y10323D01*
X323492Y10326D01*
X323660Y10419D01*
X323829Y10511D01*
X323836Y10516D01*
X323844Y10521D01*
X323991Y10645D01*
X324138Y10768D01*
X324144Y10775D01*
X324151Y10781D01*
X324270Y10932D01*
X324391Y11082D01*
X324395Y11090D01*
X324400Y11097D01*
X324488Y11270D01*
X324576Y11439D01*
X324579Y11448D01*
X324583Y11456D01*
X324635Y11642D01*
X324688Y11826D01*
X324688Y11835D01*
X324691Y11844D01*
X324705Y12037D01*
X324721Y12228D01*
X324720Y12236D01*
X324720Y12245D01*
X324696Y12438D01*
X324674Y12627D01*
X324671Y12636D01*
X324670Y12645D01*
X324608Y12828D01*
X324549Y13010D01*
X324544Y13018D01*
X324542Y13026D01*
X324446Y13192D01*
X324351Y13361D01*
X324345Y13368D01*
X324341Y13375D01*
X324126Y13628D01*
X322071Y15683D01*
X322071Y22417D01*
X326833Y27179D01*
X333567Y27179D01*
X337544Y23202D01*
X337565Y23185D01*
X337582Y23164D01*
X337720Y23057D01*
X337856Y22947D01*
X337879Y22934D01*
X337900Y22918D01*
X338057Y22840D01*
X338211Y22758D01*
X338237Y22750D01*
X338261Y22738D01*
X338430Y22693D01*
X338597Y22643D01*
X338624Y22641D01*
X338650Y22634D01*
X338980Y22607D01*
X382905Y22607D01*
X382927Y22609D01*
X382949Y22607D01*
X383126Y22629D01*
X383305Y22647D01*
X383327Y22653D01*
X383349Y22656D01*
X383518Y22712D01*
X383690Y22765D01*
X383710Y22775D01*
X383731Y22782D01*
X383886Y22871D01*
X384044Y22957D01*
X384061Y22971D01*
X384081Y22982D01*
X384216Y23100D01*
X384353Y23214D01*
X384367Y23232D01*
X384384Y23246D01*
X384493Y23388D01*
X384606Y23528D01*
X384616Y23548D01*
X384630Y23566D01*
X384781Y23861D01*
X385413Y25387D01*
X388163Y28137D01*
X391756Y29625D01*
X395644Y29625D01*
X399237Y28137D01*
X401987Y25387D01*
X403475Y21794D01*
X403475Y17906D01*
X401987Y14313D01*
X401302Y13628D01*
X401296Y13621D01*
X401289Y13616D01*
X401170Y13467D01*
X401047Y13317D01*
X401043Y13309D01*
X401037Y13302D01*
X400949Y13132D01*
X400858Y12961D01*
X400856Y12952D01*
X400851Y12945D01*
X400798Y12760D01*
X400743Y12575D01*
X400743Y12566D01*
X400740Y12558D01*
X400724Y12367D01*
X400707Y12174D01*
X400708Y12165D01*
X400707Y12156D01*
X400729Y11967D01*
X400750Y11774D01*
X400753Y11765D01*
X400754Y11757D01*
X400814Y11574D01*
X400872Y11390D01*
X400876Y11382D01*
X400879Y11374D01*
X400974Y11206D01*
X401067Y11038D01*
X401072Y11031D01*
X401077Y11023D01*
X401203Y10877D01*
X401327Y10731D01*
X401334Y10725D01*
X401340Y10718D01*
X401493Y10600D01*
X401643Y10481D01*
X401651Y10477D01*
X401658Y10472D01*
X401830Y10386D01*
X402002Y10299D01*
X402011Y10296D01*
X402019Y10292D01*
X402204Y10243D01*
X402390Y10191D01*
X402399Y10190D01*
X402407Y10188D01*
X402738Y10161D01*
X470408Y10161D01*
X470426Y10163D01*
X470444Y10161D01*
X470626Y10182D01*
X470809Y10201D01*
X470826Y10206D01*
X470843Y10208D01*
X471018Y10265D01*
X471194Y10319D01*
X471209Y10327D01*
X471226Y10333D01*
X471386Y10423D01*
X471548Y10511D01*
X471561Y10522D01*
X471577Y10531D01*
X471716Y10651D01*
X471857Y10768D01*
X471868Y10782D01*
X471882Y10794D01*
X471994Y10939D01*
X472109Y11082D01*
X472117Y11098D01*
X472128Y11112D01*
X472210Y11277D01*
X472295Y11439D01*
X472300Y11456D01*
X472308Y11472D01*
X472355Y11651D01*
X472406Y11826D01*
X472408Y11844D01*
X472412Y11861D01*
X472439Y12192D01*
X472439Y132086D01*
X472438Y132095D01*
X472439Y132104D01*
X472418Y132295D01*
X472399Y132486D01*
X472397Y132495D01*
X472396Y132504D01*
X472338Y132686D01*
X472281Y132871D01*
X472277Y132879D01*
X472274Y132888D01*
X472182Y133055D01*
X472089Y133225D01*
X472084Y133232D01*
X472079Y133240D01*
X471954Y133388D01*
X471832Y133535D01*
X471825Y133540D01*
X471819Y133547D01*
X471667Y133667D01*
X471518Y133787D01*
X471510Y133791D01*
X471503Y133797D01*
X471331Y133884D01*
X471161Y133972D01*
X471152Y133975D01*
X471144Y133979D01*
X470958Y134031D01*
X470774Y134084D01*
X470765Y134085D01*
X470756Y134087D01*
X470564Y134101D01*
X470372Y134117D01*
X470364Y134116D01*
X470355Y134116D01*
X470162Y134092D01*
X469973Y134070D01*
X469964Y134067D01*
X469955Y134066D01*
X469772Y134004D01*
X469590Y133945D01*
X469582Y133940D01*
X469574Y133938D01*
X469408Y133842D01*
X469239Y133747D01*
X469232Y133741D01*
X469225Y133737D01*
X468972Y133522D01*
X466914Y131465D01*
X460948Y128020D01*
X454294Y126237D01*
X447406Y126237D01*
X440752Y128020D01*
X434786Y131465D01*
X429915Y136336D01*
X426470Y142302D01*
X424687Y148956D01*
X424687Y155844D01*
X426317Y161927D01*
X426329Y161999D01*
X426350Y162069D01*
X426361Y162197D01*
X426382Y162324D01*
X426380Y162397D01*
X426386Y162470D01*
X426372Y162598D01*
X426368Y162726D01*
X426351Y162797D01*
X426343Y162870D01*
X426304Y162993D01*
X426274Y163118D01*
X426243Y163184D01*
X426221Y163254D01*
X426159Y163367D01*
X426105Y163483D01*
X426062Y163542D01*
X426026Y163607D01*
X425943Y163705D01*
X425867Y163808D01*
X425813Y163858D01*
X425766Y163914D01*
X425665Y163993D01*
X425570Y164080D01*
X425508Y164118D01*
X425450Y164163D01*
X425335Y164221D01*
X425225Y164288D01*
X425156Y164312D01*
X425091Y164346D01*
X424967Y164380D01*
X424846Y164423D01*
X424774Y164434D01*
X424703Y164454D01*
X424575Y164463D01*
X424448Y164481D01*
X424375Y164478D01*
X424302Y164483D01*
X424174Y164467D01*
X424046Y164460D01*
X423975Y164442D01*
X423902Y164433D01*
X423780Y164392D01*
X423656Y164360D01*
X423590Y164328D01*
X423521Y164304D01*
X423409Y164240D01*
X423294Y164184D01*
X423235Y164140D01*
X423172Y164103D01*
X423042Y163993D01*
X422973Y163941D01*
X422951Y163916D01*
X422919Y163889D01*
X407873Y148843D01*
X398378Y148843D01*
X398293Y148835D01*
X398209Y148836D01*
X398094Y148815D01*
X397977Y148803D01*
X397896Y148779D01*
X397813Y148763D01*
X397704Y148720D01*
X397592Y148685D01*
X397518Y148645D01*
X397439Y148614D01*
X397341Y148549D01*
X397238Y148493D01*
X397173Y148439D01*
X397103Y148393D01*
X397019Y148311D01*
X396929Y148236D01*
X396876Y148170D01*
X396816Y148111D01*
X396750Y148013D01*
X396676Y147922D01*
X396638Y147847D01*
X396590Y147777D01*
X396545Y147669D01*
X396491Y147565D01*
X396468Y147484D01*
X396435Y147406D01*
X396412Y147291D01*
X396379Y147178D01*
X396373Y147094D01*
X396356Y147011D01*
X396356Y146893D01*
X396347Y146776D01*
X396356Y146693D01*
X396357Y146608D01*
X396380Y146493D01*
X396393Y146377D01*
X396420Y146296D01*
X396436Y146214D01*
X396482Y146105D01*
X396518Y145994D01*
X396560Y145920D01*
X396593Y145843D01*
X396659Y145745D01*
X396716Y145643D01*
X396771Y145579D01*
X396819Y145510D01*
X396903Y145427D01*
X396979Y145339D01*
X397046Y145287D01*
X397106Y145228D01*
X397205Y145164D01*
X397297Y145092D01*
X397373Y145054D01*
X397444Y145008D01*
X397581Y144951D01*
X397658Y144912D01*
X397699Y144901D01*
X397750Y144880D01*
X397842Y144850D01*
X399356Y144079D01*
X400730Y143081D01*
X401931Y141880D01*
X402929Y140506D01*
X403700Y138992D01*
X404153Y137599D01*
X394418Y137599D01*
X394400Y137597D01*
X394383Y137599D01*
X394200Y137578D01*
X394018Y137559D01*
X394001Y137554D01*
X393983Y137552D01*
X393808Y137495D01*
X393708Y137464D01*
X393701Y137468D01*
X393523Y137515D01*
X393348Y137566D01*
X393330Y137568D01*
X393313Y137572D01*
X392982Y137599D01*
X383247Y137599D01*
X383700Y138992D01*
X384471Y140506D01*
X385469Y141880D01*
X386670Y143081D01*
X388044Y144079D01*
X389558Y144850D01*
X389650Y144880D01*
X389727Y144914D01*
X389808Y144939D01*
X389911Y144995D01*
X390019Y145042D01*
X390088Y145090D01*
X390162Y145131D01*
X390252Y145206D01*
X390348Y145273D01*
X390407Y145334D01*
X390471Y145388D01*
X390545Y145480D01*
X390626Y145565D01*
X390671Y145636D01*
X390724Y145702D01*
X390778Y145806D01*
X390840Y145906D01*
X390870Y145985D01*
X390909Y146059D01*
X390942Y146172D01*
X390983Y146282D01*
X390997Y146365D01*
X391021Y146446D01*
X391030Y146563D01*
X391049Y146679D01*
X391047Y146763D01*
X391053Y146848D01*
X391040Y146964D01*
X391036Y147082D01*
X391016Y147164D01*
X391007Y147247D01*
X390970Y147359D01*
X390943Y147473D01*
X390908Y147550D01*
X390882Y147630D01*
X390824Y147733D01*
X390775Y147839D01*
X390725Y147907D01*
X390684Y147981D01*
X390607Y148070D01*
X390538Y148165D01*
X390476Y148222D01*
X390421Y148286D01*
X390328Y148357D01*
X390241Y148437D01*
X390169Y148481D01*
X390103Y148532D01*
X389997Y148585D01*
X389897Y148645D01*
X389818Y148674D01*
X389742Y148712D01*
X389628Y148742D01*
X389518Y148782D01*
X389435Y148794D01*
X389353Y148816D01*
X389205Y148828D01*
X389120Y148841D01*
X389078Y148839D01*
X389022Y148843D01*
X245977Y148843D01*
X245893Y148835D01*
X245809Y148836D01*
X245694Y148815D01*
X245577Y148803D01*
X245496Y148779D01*
X245413Y148763D01*
X245304Y148720D01*
X245192Y148685D01*
X245118Y148645D01*
X245039Y148614D01*
X244941Y148549D01*
X244838Y148493D01*
X244773Y148439D01*
X244702Y148393D01*
X244619Y148311D01*
X244529Y148236D01*
X244476Y148170D01*
X244416Y148111D01*
X244350Y148013D01*
X244276Y147922D01*
X244237Y147847D01*
X244190Y147777D01*
X244145Y147669D01*
X244091Y147565D01*
X244068Y147484D01*
X244035Y147406D01*
X244012Y147290D01*
X243979Y147178D01*
X243973Y147094D01*
X243956Y147011D01*
X243956Y146893D01*
X243947Y146776D01*
X243956Y146693D01*
X243956Y146608D01*
X243980Y146493D01*
X243993Y146377D01*
X244020Y146296D01*
X244036Y146214D01*
X244082Y146105D01*
X244118Y145994D01*
X244160Y145920D01*
X244193Y145842D01*
X244259Y145745D01*
X244316Y145643D01*
X244371Y145579D01*
X244419Y145509D01*
X244503Y145427D01*
X244579Y145339D01*
X244646Y145287D01*
X244706Y145228D01*
X244805Y145164D01*
X244897Y145092D01*
X244973Y145054D01*
X245044Y145008D01*
X245181Y144951D01*
X245258Y144912D01*
X245299Y144901D01*
X245350Y144880D01*
X245442Y144850D01*
X246956Y144079D01*
X248330Y143081D01*
X249531Y141880D01*
X250529Y140506D01*
X251300Y138992D01*
X251753Y137599D01*
X242018Y137599D01*
X242000Y137597D01*
X241983Y137599D01*
X241800Y137578D01*
X241618Y137559D01*
X241601Y137554D01*
X241583Y137552D01*
X241408Y137495D01*
X241308Y137464D01*
X241301Y137468D01*
X241123Y137515D01*
X240948Y137566D01*
X240930Y137568D01*
X240913Y137572D01*
X240582Y137599D01*
X230847Y137599D01*
X230961Y137949D01*
X230988Y138072D01*
X231024Y138193D01*
X231031Y138268D01*
X231047Y138342D01*
X231049Y138468D01*
X231060Y138594D01*
X231052Y138669D01*
X231053Y138745D01*
X231030Y138869D01*
X231017Y138994D01*
X230994Y139066D01*
X230980Y139140D01*
X230933Y139258D01*
X230895Y139378D01*
X230859Y139444D01*
X230831Y139514D01*
X230761Y139620D01*
X230700Y139731D01*
X230652Y139788D01*
X230610Y139851D01*
X230522Y139941D01*
X230440Y140038D01*
X230381Y140084D01*
X230328Y140138D01*
X230223Y140209D01*
X230124Y140287D01*
X230057Y140321D01*
X229994Y140364D01*
X229878Y140412D01*
X229765Y140470D01*
X229692Y140490D01*
X229623Y140519D01*
X229499Y140544D01*
X229377Y140578D01*
X229302Y140583D01*
X229228Y140598D01*
X229102Y140598D01*
X228976Y140607D01*
X228901Y140597D01*
X228825Y140597D01*
X228702Y140572D01*
X228576Y140556D01*
X228505Y140532D01*
X228431Y140517D01*
X228314Y140469D01*
X228194Y140428D01*
X228129Y140391D01*
X228060Y140361D01*
X227955Y140290D01*
X227846Y140227D01*
X227779Y140170D01*
X227727Y140135D01*
X227675Y140083D01*
X227593Y140013D01*
X186524Y98944D01*
X186507Y98923D01*
X186486Y98905D01*
X186379Y98768D01*
X186269Y98632D01*
X186260Y98616D01*
X186259Y98614D01*
X186255Y98607D01*
X186240Y98587D01*
X186162Y98430D01*
X186080Y98276D01*
X186075Y98261D01*
X186073Y98257D01*
X186070Y98247D01*
X186060Y98227D01*
X186015Y98057D01*
X185965Y97891D01*
X185964Y97877D01*
X185962Y97870D01*
X185961Y97857D01*
X185956Y97838D01*
X185929Y97507D01*
X185929Y91883D01*
X181167Y87121D01*
X174433Y87121D01*
X169671Y91883D01*
X169671Y98617D01*
X174433Y103379D01*
X180057Y103379D01*
X180084Y103381D01*
X180111Y103379D01*
X180285Y103401D01*
X180458Y103419D01*
X180483Y103426D01*
X180510Y103430D01*
X180676Y103485D01*
X180843Y103537D01*
X180866Y103550D01*
X180892Y103558D01*
X181043Y103645D01*
X181197Y103729D01*
X181217Y103746D01*
X181241Y103759D01*
X181494Y103974D01*
X233477Y155957D01*
X236623Y155957D01*
X236707Y155965D01*
X236791Y155964D01*
X236906Y155985D01*
X237023Y155997D01*
X237104Y156021D01*
X237187Y156037D01*
X237296Y156080D01*
X237408Y156115D01*
X237482Y156155D01*
X237561Y156186D01*
X237659Y156251D01*
X237762Y156307D01*
X237827Y156361D01*
X237898Y156407D01*
X237981Y156489D01*
X238071Y156564D01*
X238124Y156630D01*
X238184Y156689D01*
X238250Y156787D01*
X238324Y156878D01*
X238363Y156953D01*
X238410Y157023D01*
X238455Y157131D01*
X238509Y157235D01*
X238532Y157316D01*
X238565Y157394D01*
X238588Y157510D01*
X238621Y157622D01*
X238627Y157706D01*
X238644Y157789D01*
X238644Y157907D01*
X238653Y158024D01*
X238644Y158107D01*
X238644Y158192D01*
X238620Y158307D01*
X238607Y158423D01*
X238580Y158504D01*
X238564Y158586D01*
X238518Y158695D01*
X238482Y158806D01*
X238440Y158880D01*
X238407Y158958D01*
X238341Y159055D01*
X238284Y159157D01*
X238229Y159221D01*
X238181Y159291D01*
X238097Y159373D01*
X238021Y159461D01*
X237954Y159513D01*
X237894Y159572D01*
X237795Y159636D01*
X237703Y159708D01*
X237627Y159746D01*
X237556Y159792D01*
X237419Y159849D01*
X237342Y159888D01*
X237301Y159899D01*
X237250Y159920D01*
X237158Y159950D01*
X235644Y160721D01*
X234270Y161719D01*
X233069Y162920D01*
X232071Y164294D01*
X231300Y165808D01*
X230847Y167201D01*
X240582Y167201D01*
X240600Y167202D01*
X240617Y167201D01*
X240800Y167222D01*
X240982Y167241D01*
X240999Y167246D01*
X241017Y167248D01*
X241192Y167305D01*
X241292Y167336D01*
X241299Y167332D01*
X241477Y167284D01*
X241652Y167234D01*
X241670Y167232D01*
X241687Y167228D01*
X242018Y167201D01*
X251753Y167201D01*
X251300Y165808D01*
X250529Y164294D01*
X249531Y162920D01*
X248330Y161719D01*
X246956Y160721D01*
X245442Y159950D01*
X245350Y159920D01*
X245273Y159886D01*
X245192Y159861D01*
X245089Y159805D01*
X244981Y159758D01*
X244912Y159710D01*
X244838Y159669D01*
X244748Y159594D01*
X244652Y159527D01*
X244593Y159466D01*
X244529Y159412D01*
X244455Y159320D01*
X244374Y159235D01*
X244329Y159164D01*
X244276Y159098D01*
X244222Y158994D01*
X244160Y158894D01*
X244130Y158815D01*
X244091Y158741D01*
X244058Y158628D01*
X244017Y158518D01*
X244003Y158435D01*
X243979Y158354D01*
X243970Y158237D01*
X243951Y158121D01*
X243953Y158037D01*
X243947Y157952D01*
X243960Y157836D01*
X243964Y157718D01*
X243984Y157636D01*
X243993Y157553D01*
X244030Y157441D01*
X244057Y157327D01*
X244092Y157250D01*
X244118Y157170D01*
X244176Y157067D01*
X244225Y156961D01*
X244275Y156893D01*
X244316Y156819D01*
X244393Y156730D01*
X244462Y156635D01*
X244524Y156578D01*
X244579Y156514D01*
X244672Y156443D01*
X244759Y156363D01*
X244831Y156319D01*
X244897Y156268D01*
X245003Y156215D01*
X245103Y156155D01*
X245182Y156126D01*
X245258Y156088D01*
X245372Y156058D01*
X245482Y156018D01*
X245565Y156006D01*
X245647Y155984D01*
X245795Y155972D01*
X245880Y155959D01*
X245922Y155961D01*
X245978Y155957D01*
X389023Y155957D01*
X389107Y155965D01*
X389191Y155964D01*
X389306Y155985D01*
X389423Y155997D01*
X389504Y156021D01*
X389587Y156037D01*
X389696Y156080D01*
X389808Y156115D01*
X389882Y156155D01*
X389961Y156186D01*
X390059Y156251D01*
X390162Y156307D01*
X390227Y156361D01*
X390298Y156407D01*
X390381Y156489D01*
X390471Y156564D01*
X390524Y156630D01*
X390584Y156689D01*
X390650Y156787D01*
X390724Y156878D01*
X390763Y156953D01*
X390810Y157023D01*
X390855Y157131D01*
X390909Y157235D01*
X390932Y157316D01*
X390965Y157394D01*
X390988Y157510D01*
X391021Y157622D01*
X391027Y157706D01*
X391044Y157789D01*
X391044Y157907D01*
X391053Y158024D01*
X391044Y158107D01*
X391044Y158192D01*
X391020Y158307D01*
X391007Y158423D01*
X390980Y158504D01*
X390964Y158586D01*
X390918Y158695D01*
X390882Y158806D01*
X390840Y158880D01*
X390807Y158958D01*
X390741Y159055D01*
X390684Y159157D01*
X390629Y159221D01*
X390581Y159291D01*
X390497Y159373D01*
X390421Y159461D01*
X390354Y159513D01*
X390294Y159572D01*
X390195Y159636D01*
X390103Y159708D01*
X390027Y159746D01*
X389956Y159792D01*
X389819Y159849D01*
X389742Y159888D01*
X389701Y159899D01*
X389650Y159920D01*
X389558Y159950D01*
X388044Y160721D01*
X386670Y161719D01*
X385469Y162920D01*
X384471Y164294D01*
X383700Y165808D01*
X383247Y167201D01*
X392982Y167201D01*
X393000Y167202D01*
X393017Y167201D01*
X393200Y167222D01*
X393382Y167241D01*
X393399Y167246D01*
X393417Y167248D01*
X393592Y167305D01*
X393692Y167336D01*
X393699Y167332D01*
X393877Y167284D01*
X394052Y167234D01*
X394070Y167232D01*
X394087Y167228D01*
X394418Y167201D01*
X404153Y167201D01*
X403700Y165808D01*
X402929Y164294D01*
X401931Y162920D01*
X400730Y161719D01*
X399356Y160721D01*
X397842Y159950D01*
X397750Y159920D01*
X397673Y159886D01*
X397592Y159861D01*
X397489Y159805D01*
X397381Y159758D01*
X397312Y159710D01*
X397238Y159669D01*
X397148Y159594D01*
X397052Y159527D01*
X396994Y159466D01*
X396929Y159412D01*
X396855Y159320D01*
X396774Y159235D01*
X396729Y159164D01*
X396676Y159098D01*
X396622Y158994D01*
X396560Y158894D01*
X396530Y158815D01*
X396491Y158741D01*
X396458Y158628D01*
X396417Y158518D01*
X396403Y158435D01*
X396379Y158354D01*
X396370Y158237D01*
X396351Y158121D01*
X396353Y158036D01*
X396347Y157952D01*
X396360Y157836D01*
X396364Y157719D01*
X396384Y157636D01*
X396393Y157553D01*
X396430Y157441D01*
X396457Y157327D01*
X396492Y157250D01*
X396518Y157170D01*
X396576Y157067D01*
X396625Y156961D01*
X396675Y156893D01*
X396716Y156819D01*
X396793Y156730D01*
X396862Y156635D01*
X396924Y156578D01*
X396979Y156514D01*
X397072Y156442D01*
X397159Y156363D01*
X397231Y156319D01*
X397297Y156268D01*
X397403Y156215D01*
X397503Y156155D01*
X397582Y156126D01*
X397658Y156088D01*
X397772Y156058D01*
X397882Y156018D01*
X397965Y156006D01*
X398047Y155984D01*
X398195Y155972D01*
X398280Y155959D01*
X398322Y155961D01*
X398377Y155957D01*
X404085Y155957D01*
X404112Y155959D01*
X404139Y155957D01*
X404313Y155979D01*
X404486Y155997D01*
X404511Y156004D01*
X404538Y156008D01*
X404704Y156063D01*
X404871Y156115D01*
X404894Y156128D01*
X404920Y156136D01*
X405071Y156223D01*
X405225Y156307D01*
X405245Y156324D01*
X405269Y156337D01*
X405522Y156552D01*
X465748Y216778D01*
X465765Y216799D01*
X465786Y216817D01*
X465893Y216954D01*
X466003Y217090D01*
X466016Y217113D01*
X466032Y217135D01*
X466110Y217292D01*
X466192Y217446D01*
X466200Y217471D01*
X466212Y217495D01*
X466257Y217665D01*
X466307Y217831D01*
X466309Y217858D01*
X466316Y217884D01*
X466343Y218215D01*
X466343Y785085D01*
X466341Y785112D01*
X466343Y785139D01*
X466321Y785313D01*
X466303Y785486D01*
X466296Y785511D01*
X466292Y785538D01*
X466237Y785704D01*
X466185Y785871D01*
X466172Y785894D01*
X466164Y785920D01*
X466077Y786071D01*
X465993Y786225D01*
X465976Y786245D01*
X465963Y786269D01*
X465748Y786522D01*
X426322Y825948D01*
X426301Y825965D01*
X426283Y825986D01*
X426146Y826093D01*
X426010Y826203D01*
X425987Y826216D01*
X425965Y826232D01*
X425808Y826310D01*
X425654Y826392D01*
X425629Y826400D01*
X425605Y826412D01*
X425435Y826457D01*
X425269Y826507D01*
X425242Y826509D01*
X425216Y826516D01*
X424885Y826543D01*
X424394Y826543D01*
X422444Y827351D01*
X420951Y828844D01*
X420143Y830794D01*
X420143Y832906D01*
X420951Y834856D01*
X422444Y836349D01*
X424394Y837157D01*
X426506Y837157D01*
X428456Y836349D01*
X429949Y834856D01*
X430757Y832906D01*
X430757Y832415D01*
X430759Y832388D01*
X430757Y832361D01*
X430779Y832187D01*
X430797Y832014D01*
X430804Y831989D01*
X430808Y831962D01*
X430864Y831796D01*
X430915Y831629D01*
X430928Y831606D01*
X430936Y831580D01*
X431023Y831429D01*
X431107Y831275D01*
X431124Y831255D01*
X431137Y831231D01*
X431352Y830978D01*
X468972Y793358D01*
X468979Y793353D01*
X468984Y793346D01*
X469134Y793225D01*
X469283Y793103D01*
X469291Y793099D01*
X469298Y793093D01*
X469469Y793005D01*
X469639Y792915D01*
X469647Y792912D01*
X469655Y792908D01*
X469841Y792855D01*
X470025Y792800D01*
X470034Y792799D01*
X470042Y792797D01*
X470234Y792781D01*
X470426Y792763D01*
X470435Y792764D01*
X470444Y792764D01*
X470633Y792786D01*
X470826Y792807D01*
X470835Y792810D01*
X470843Y792811D01*
X471025Y792870D01*
X471210Y792928D01*
X471218Y792933D01*
X471226Y792935D01*
X471395Y793030D01*
X471562Y793123D01*
X471569Y793129D01*
X471577Y793133D01*
X471723Y793259D01*
X471869Y793384D01*
X471875Y793391D01*
X471882Y793396D01*
X471999Y793548D01*
X472119Y793700D01*
X472123Y793708D01*
X472128Y793715D01*
X472214Y793887D01*
X472301Y794058D01*
X472304Y794067D01*
X472308Y794075D01*
X472357Y794259D01*
X472409Y794446D01*
X472410Y794455D01*
X472412Y794464D01*
X472439Y794795D01*
X472439Y841118D01*
X472438Y841131D01*
X472439Y841145D01*
X472418Y841331D01*
X472399Y841518D01*
X472395Y841531D01*
X472394Y841545D01*
X472336Y841724D01*
X472281Y841903D01*
X472275Y841915D01*
X472271Y841928D01*
X472179Y842093D01*
X472089Y842257D01*
X472081Y842268D01*
X472074Y842279D01*
X471952Y842423D01*
X471832Y842567D01*
X471821Y842575D01*
X471813Y842585D01*
X471664Y842702D01*
X471518Y842819D01*
X471506Y842825D01*
X471496Y842833D01*
X471326Y842918D01*
X471161Y843005D01*
X471148Y843008D01*
X471136Y843014D01*
X470953Y843064D01*
X470774Y843116D01*
X470760Y843117D01*
X470747Y843121D01*
X470559Y843133D01*
X470372Y843149D01*
X470359Y843147D01*
X470346Y843148D01*
X470158Y843124D01*
X469973Y843102D01*
X469960Y843098D01*
X469947Y843096D01*
X469631Y842994D01*
X466639Y841755D01*
X447761Y841755D01*
X444400Y843147D01*
X441827Y845720D01*
X441674Y846089D01*
X441664Y846109D01*
X441657Y846130D01*
X441569Y846286D01*
X441484Y846444D01*
X441470Y846461D01*
X441459Y846481D01*
X441342Y846617D01*
X441228Y846755D01*
X441211Y846769D01*
X441196Y846786D01*
X441055Y846895D01*
X440915Y847008D01*
X440895Y847019D01*
X440878Y847032D01*
X440718Y847112D01*
X440559Y847195D01*
X440537Y847202D01*
X440517Y847212D01*
X440344Y847258D01*
X440172Y847308D01*
X440150Y847310D01*
X440129Y847316D01*
X439798Y847343D01*
X398577Y847343D01*
X380122Y865798D01*
X380101Y865815D01*
X380083Y865836D01*
X379946Y865943D01*
X379810Y866053D01*
X379787Y866066D01*
X379765Y866082D01*
X379608Y866160D01*
X379454Y866242D01*
X379429Y866250D01*
X379405Y866262D01*
X379235Y866307D01*
X379069Y866357D01*
X379042Y866359D01*
X379016Y866366D01*
X378685Y866393D01*
X290540Y866393D01*
X290513Y866391D01*
X290486Y866393D01*
X290312Y866371D01*
X290139Y866353D01*
X290113Y866346D01*
X290087Y866342D01*
X289921Y866287D01*
X289754Y866235D01*
X289730Y866222D01*
X289705Y866214D01*
X289553Y866127D01*
X289400Y866043D01*
X289379Y866026D01*
X289356Y866013D01*
X289103Y865798D01*
X288756Y865451D01*
X286806Y864643D01*
X284694Y864643D01*
X282744Y865451D01*
X281251Y866944D01*
X280443Y868894D01*
X280443Y871006D01*
X281251Y872956D01*
X282744Y874449D01*
X284694Y875257D01*
X286806Y875257D01*
X288756Y874449D01*
X289103Y874102D01*
X289124Y874085D01*
X289141Y874064D01*
X289279Y873957D01*
X289415Y873847D01*
X289438Y873834D01*
X289459Y873818D01*
X289616Y873740D01*
X289770Y873658D01*
X289796Y873650D01*
X289820Y873638D01*
X289989Y873593D01*
X290156Y873543D01*
X290183Y873541D01*
X290209Y873534D01*
X290540Y873507D01*
X382473Y873507D01*
X400928Y855052D01*
X400949Y855035D01*
X400967Y855014D01*
X401104Y854907D01*
X401240Y854797D01*
X401263Y854784D01*
X401285Y854768D01*
X401442Y854690D01*
X401596Y854608D01*
X401621Y854600D01*
X401645Y854588D01*
X401815Y854543D01*
X401981Y854493D01*
X402008Y854491D01*
X402034Y854484D01*
X402365Y854457D01*
X439798Y854457D01*
X439820Y854459D01*
X439842Y854457D01*
X440020Y854479D01*
X440198Y854497D01*
X440220Y854503D01*
X440242Y854506D01*
X440412Y854562D01*
X440583Y854615D01*
X440603Y854625D01*
X440624Y854632D01*
X440780Y854721D01*
X440937Y854807D01*
X440955Y854821D01*
X440974Y854832D01*
X441109Y854950D01*
X441247Y855064D01*
X441261Y855082D01*
X441277Y855096D01*
X441387Y855239D01*
X441499Y855378D01*
X441509Y855398D01*
X441523Y855416D01*
X441674Y855711D01*
X441827Y856080D01*
X444400Y858653D01*
X447761Y860045D01*
X466639Y860045D01*
X469631Y858806D01*
X469644Y858802D01*
X469655Y858795D01*
X469835Y858744D01*
X470016Y858689D01*
X470029Y858688D01*
X470042Y858684D01*
X470230Y858669D01*
X470417Y858651D01*
X470430Y858652D01*
X470444Y858651D01*
X470630Y858673D01*
X470817Y858693D01*
X470830Y858697D01*
X470843Y858698D01*
X471022Y858756D01*
X471202Y858812D01*
X471213Y858819D01*
X471226Y858823D01*
X471390Y858915D01*
X471555Y859006D01*
X471565Y859014D01*
X471577Y859021D01*
X471719Y859143D01*
X471863Y859265D01*
X471871Y859275D01*
X471882Y859284D01*
X471996Y859432D01*
X472114Y859580D01*
X472120Y859592D01*
X472128Y859602D01*
X472212Y859770D01*
X472298Y859938D01*
X472302Y859951D01*
X472308Y859963D01*
X472357Y860145D01*
X472408Y860325D01*
X472409Y860338D01*
X472412Y860351D01*
X472439Y860682D01*
X472439Y866518D01*
X472438Y866531D01*
X472439Y866545D01*
X472418Y866731D01*
X472399Y866918D01*
X472395Y866931D01*
X472394Y866945D01*
X472336Y867124D01*
X472281Y867303D01*
X472275Y867315D01*
X472271Y867328D01*
X472179Y867493D01*
X472089Y867657D01*
X472081Y867668D01*
X472074Y867679D01*
X471952Y867823D01*
X471832Y867967D01*
X471821Y867975D01*
X471813Y867985D01*
X471665Y868101D01*
X471518Y868219D01*
X471506Y868225D01*
X471496Y868233D01*
X471326Y868318D01*
X471161Y868405D01*
X471148Y868408D01*
X471136Y868414D01*
X470953Y868464D01*
X470774Y868516D01*
X470760Y868517D01*
X470747Y868521D01*
X470559Y868533D01*
X470372Y868549D01*
X470359Y868547D01*
X470346Y868548D01*
X470158Y868524D01*
X469973Y868502D01*
X469960Y868498D01*
X469947Y868496D01*
X469631Y868394D01*
X466639Y867155D01*
X447761Y867155D01*
X444400Y868547D01*
X441827Y871120D01*
X440435Y874481D01*
X440435Y878119D01*
X441827Y881480D01*
X444400Y884053D01*
X447761Y885445D01*
X466639Y885445D01*
X469631Y884206D01*
X469644Y884202D01*
X469655Y884195D01*
X469835Y884144D01*
X470016Y884089D01*
X470029Y884088D01*
X470042Y884084D01*
X470230Y884069D01*
X470417Y884051D01*
X470430Y884052D01*
X470444Y884051D01*
X470630Y884073D01*
X470817Y884093D01*
X470830Y884097D01*
X470843Y884098D01*
X471022Y884156D01*
X471202Y884212D01*
X471213Y884219D01*
X471226Y884223D01*
X471390Y884315D01*
X471555Y884406D01*
X471565Y884414D01*
X471577Y884421D01*
X471719Y884543D01*
X471863Y884665D01*
X471871Y884675D01*
X471882Y884684D01*
X471996Y884832D01*
X472114Y884980D01*
X472120Y884992D01*
X472128Y885002D01*
X472212Y885170D01*
X472298Y885338D01*
X472302Y885351D01*
X472308Y885363D01*
X472357Y885545D01*
X472408Y885725D01*
X472409Y885738D01*
X472412Y885751D01*
X472439Y886082D01*
X472439Y891918D01*
X472438Y891931D01*
X472439Y891945D01*
X472418Y892131D01*
X472399Y892318D01*
X472395Y892331D01*
X472394Y892345D01*
X472336Y892524D01*
X472281Y892703D01*
X472275Y892715D01*
X472271Y892728D01*
X472179Y892893D01*
X472089Y893057D01*
X472081Y893068D01*
X472074Y893079D01*
X471952Y893223D01*
X471832Y893367D01*
X471821Y893375D01*
X471813Y893385D01*
X471664Y893502D01*
X471518Y893619D01*
X471506Y893625D01*
X471496Y893633D01*
X471326Y893718D01*
X471161Y893805D01*
X471148Y893808D01*
X471136Y893814D01*
X470953Y893864D01*
X470774Y893916D01*
X470760Y893917D01*
X470747Y893921D01*
X470559Y893933D01*
X470372Y893949D01*
X470359Y893947D01*
X470346Y893948D01*
X470158Y893924D01*
X469973Y893902D01*
X469960Y893898D01*
X469947Y893896D01*
X469631Y893794D01*
X466639Y892555D01*
X447761Y892555D01*
X444400Y893947D01*
X441827Y896520D01*
X441674Y896889D01*
X441664Y896909D01*
X441657Y896930D01*
X441569Y897086D01*
X441484Y897244D01*
X441470Y897261D01*
X441459Y897281D01*
X441342Y897417D01*
X441228Y897555D01*
X441211Y897569D01*
X441196Y897586D01*
X441055Y897695D01*
X440915Y897808D01*
X440895Y897819D01*
X440878Y897832D01*
X440718Y897912D01*
X440559Y897995D01*
X440537Y898002D01*
X440517Y898012D01*
X440344Y898058D01*
X440172Y898108D01*
X440150Y898110D01*
X440129Y898116D01*
X439798Y898143D01*
X309590Y898143D01*
X309563Y898141D01*
X309536Y898143D01*
X309362Y898121D01*
X309189Y898103D01*
X309163Y898096D01*
X309137Y898092D01*
X308971Y898037D01*
X308804Y897985D01*
X308780Y897972D01*
X308755Y897964D01*
X308603Y897877D01*
X308450Y897793D01*
X308429Y897776D01*
X308406Y897763D01*
X308153Y897548D01*
X307806Y897201D01*
X305856Y896393D01*
X303744Y896393D01*
X301794Y897201D01*
X300301Y898694D01*
X299493Y900644D01*
X299493Y902756D01*
X300301Y904706D01*
X301794Y906199D01*
X303744Y907007D01*
X305856Y907007D01*
X307806Y906199D01*
X308153Y905852D01*
X308174Y905835D01*
X308191Y905814D01*
X308329Y905707D01*
X308465Y905597D01*
X308488Y905584D01*
X308509Y905568D01*
X308666Y905490D01*
X308820Y905408D01*
X308846Y905400D01*
X308870Y905388D01*
X309039Y905343D01*
X309206Y905293D01*
X309233Y905291D01*
X309259Y905284D01*
X309590Y905257D01*
X439798Y905257D01*
X439820Y905259D01*
X439842Y905257D01*
X440020Y905279D01*
X440198Y905297D01*
X440220Y905303D01*
X440242Y905306D01*
X440412Y905362D01*
X440583Y905415D01*
X440603Y905425D01*
X440624Y905432D01*
X440780Y905521D01*
X440937Y905607D01*
X440955Y905621D01*
X440974Y905632D01*
X441109Y905750D01*
X441247Y905864D01*
X441261Y905882D01*
X441277Y905896D01*
X441387Y906039D01*
X441499Y906178D01*
X441509Y906198D01*
X441523Y906216D01*
X441674Y906511D01*
X441827Y906880D01*
X444400Y909453D01*
X446114Y910162D01*
X446114Y910163D01*
X447761Y910845D01*
X466639Y910845D01*
X469631Y909606D01*
X469644Y909602D01*
X469655Y909595D01*
X469835Y909544D01*
X470016Y909489D01*
X470029Y909488D01*
X470042Y909484D01*
X470230Y909469D01*
X470417Y909451D01*
X470430Y909452D01*
X470444Y909451D01*
X470630Y909473D01*
X470817Y909493D01*
X470830Y909497D01*
X470843Y909498D01*
X471022Y909556D01*
X471202Y909612D01*
X471213Y909619D01*
X471226Y909623D01*
X471390Y909715D01*
X471555Y909806D01*
X471565Y909814D01*
X471577Y909821D01*
X471719Y909943D01*
X471863Y910065D01*
X471871Y910075D01*
X471882Y910084D01*
X471996Y910232D01*
X472114Y910380D01*
X472120Y910392D01*
X472128Y910402D01*
X472212Y910570D01*
X472298Y910738D01*
X472302Y910751D01*
X472308Y910763D01*
X472357Y910945D01*
X472408Y911125D01*
X472409Y911138D01*
X472412Y911151D01*
X472439Y911482D01*
X472439Y917318D01*
X472438Y917331D01*
X472439Y917345D01*
X472418Y917531D01*
X472399Y917718D01*
X472395Y917731D01*
X472394Y917745D01*
X472336Y917924D01*
X472281Y918103D01*
X472275Y918115D01*
X472271Y918128D01*
X472179Y918293D01*
X472089Y918457D01*
X472081Y918468D01*
X472074Y918479D01*
X471952Y918623D01*
X471832Y918767D01*
X471821Y918775D01*
X471813Y918785D01*
X471664Y918902D01*
X471518Y919019D01*
X471506Y919025D01*
X471496Y919033D01*
X471326Y919118D01*
X471161Y919205D01*
X471148Y919208D01*
X471136Y919214D01*
X470953Y919264D01*
X470774Y919316D01*
X470760Y919317D01*
X470747Y919321D01*
X470559Y919333D01*
X470372Y919349D01*
X470359Y919347D01*
X470346Y919348D01*
X470158Y919324D01*
X469973Y919302D01*
X469960Y919298D01*
X469947Y919296D01*
X469631Y919194D01*
X466639Y917955D01*
X447761Y917955D01*
X444400Y919347D01*
X441827Y921920D01*
X440435Y925281D01*
X440435Y928919D01*
X441827Y932280D01*
X444400Y934853D01*
X447761Y936245D01*
X466639Y936245D01*
X469631Y935006D01*
X469644Y935002D01*
X469655Y934995D01*
X469835Y934944D01*
X470016Y934889D01*
X470029Y934888D01*
X470042Y934884D01*
X470230Y934869D01*
X470417Y934851D01*
X470430Y934852D01*
X470444Y934851D01*
X470630Y934873D01*
X470817Y934893D01*
X470830Y934897D01*
X470843Y934898D01*
X471022Y934956D01*
X471202Y935012D01*
X471213Y935019D01*
X471226Y935023D01*
X471390Y935115D01*
X471555Y935206D01*
X471565Y935214D01*
X471577Y935221D01*
X471719Y935343D01*
X471863Y935465D01*
X471871Y935475D01*
X471882Y935484D01*
X471996Y935632D01*
X472114Y935780D01*
X472120Y935792D01*
X472128Y935802D01*
X472212Y935970D01*
X472298Y936138D01*
X472302Y936151D01*
X472308Y936163D01*
X472357Y936345D01*
X472408Y936525D01*
X472409Y936538D01*
X472412Y936551D01*
X472439Y936882D01*
X472439Y978408D01*
X472437Y978426D01*
X472439Y978444D01*
X472418Y978626D01*
X472399Y978809D01*
X472394Y978826D01*
X472392Y978843D01*
X472335Y979018D01*
X472281Y979194D01*
X472273Y979209D01*
X472267Y979226D01*
X472177Y979386D01*
X472089Y979548D01*
X472078Y979561D01*
X472069Y979577D01*
X471949Y979716D01*
X471832Y979857D01*
X471818Y979868D01*
X471806Y979882D01*
X471661Y979994D01*
X471518Y980109D01*
X471502Y980117D01*
X471488Y980128D01*
X471323Y980210D01*
X471161Y980295D01*
X471144Y980300D01*
X471128Y980308D01*
X470949Y980355D01*
X470774Y980406D01*
X470756Y980408D01*
X470739Y980412D01*
X470408Y980439D01*
X305436Y980439D01*
X305418Y980437D01*
X305400Y980439D01*
X305218Y980418D01*
X305035Y980399D01*
X305018Y980394D01*
X305001Y980392D01*
X304826Y980335D01*
X304650Y980281D01*
X304635Y980273D01*
X304618Y980267D01*
X304458Y980177D01*
X304296Y980089D01*
X304283Y980078D01*
X304267Y980069D01*
X304128Y979949D01*
X303987Y979832D01*
X303976Y979818D01*
X303962Y979806D01*
X303850Y979661D01*
X303735Y979518D01*
X303727Y979502D01*
X303716Y979488D01*
X303634Y979323D01*
X303549Y979161D01*
X303544Y979144D01*
X303536Y979128D01*
X303489Y978949D01*
X303438Y978774D01*
X303436Y978756D01*
X303432Y978739D01*
X303405Y978408D01*
X303405Y948988D01*
X302512Y948095D01*
X270088Y948095D01*
X269195Y948988D01*
X269195Y978408D01*
X269193Y978426D01*
X269195Y978444D01*
X269174Y978626D01*
X269155Y978809D01*
X269150Y978826D01*
X269148Y978843D01*
X269091Y979018D01*
X269037Y979194D01*
X269029Y979209D01*
X269023Y979226D01*
X268933Y979386D01*
X268845Y979548D01*
X268834Y979561D01*
X268825Y979577D01*
X268705Y979716D01*
X268588Y979857D01*
X268574Y979868D01*
X268562Y979882D01*
X268417Y979994D01*
X268274Y980109D01*
X268258Y980117D01*
X268244Y980128D01*
X268079Y980210D01*
X267917Y980295D01*
X267900Y980300D01*
X267884Y980308D01*
X267705Y980355D01*
X267530Y980406D01*
X267512Y980408D01*
X267495Y980412D01*
X267164Y980439D01*
X215436Y980439D01*
X215418Y980437D01*
X215400Y980439D01*
X215218Y980418D01*
X215035Y980399D01*
X215018Y980394D01*
X215001Y980392D01*
X214826Y980335D01*
X214650Y980281D01*
X214635Y980273D01*
X214618Y980267D01*
X214458Y980177D01*
X214296Y980089D01*
X214283Y980078D01*
X214267Y980069D01*
X214128Y979949D01*
X213987Y979832D01*
X213976Y979818D01*
X213962Y979806D01*
X213850Y979661D01*
X213735Y979518D01*
X213727Y979502D01*
X213716Y979488D01*
X213634Y979323D01*
X213549Y979161D01*
X213544Y979144D01*
X213536Y979128D01*
X213489Y978949D01*
X213438Y978774D01*
X213436Y978756D01*
X213432Y978739D01*
X213405Y978408D01*
X213405Y948988D01*
X212512Y948095D01*
X180088Y948095D01*
X179195Y948988D01*
X179195Y978408D01*
X179193Y978426D01*
X179195Y978444D01*
X179174Y978626D01*
X179155Y978809D01*
X179150Y978826D01*
X179148Y978843D01*
X179091Y979018D01*
X179037Y979194D01*
X179029Y979209D01*
X179023Y979226D01*
X178933Y979386D01*
X178845Y979548D01*
X178834Y979561D01*
X178825Y979577D01*
X178705Y979716D01*
X178588Y979857D01*
X178574Y979868D01*
X178562Y979882D01*
X178417Y979994D01*
X178274Y980109D01*
X178258Y980117D01*
X178244Y980128D01*
X178079Y980210D01*
X177917Y980295D01*
X177900Y980300D01*
X177884Y980308D01*
X177705Y980355D01*
X177530Y980406D01*
X177512Y980408D01*
X177495Y980412D01*
X177164Y980439D01*
X12192Y980439D01*
X12174Y980437D01*
X12156Y980439D01*
X11974Y980418D01*
X11791Y980399D01*
X11774Y980394D01*
X11757Y980392D01*
X11582Y980335D01*
X11406Y980281D01*
X11391Y980273D01*
X11374Y980267D01*
X11214Y980177D01*
X11052Y980089D01*
X11039Y980078D01*
X11023Y980069D01*
X10884Y979949D01*
X10743Y979832D01*
X10732Y979818D01*
X10718Y979806D01*
X10606Y979661D01*
X10491Y979518D01*
X10483Y979502D01*
X10472Y979488D01*
X10390Y979323D01*
X10305Y979161D01*
X10300Y979144D01*
X10292Y979128D01*
X10245Y978949D01*
X10194Y978774D01*
X10192Y978756D01*
X10188Y978739D01*
X10161Y978408D01*
X10161Y968632D01*
X10162Y968619D01*
X10161Y968605D01*
X10182Y968419D01*
X10201Y968232D01*
X10205Y968219D01*
X10206Y968205D01*
X10264Y968026D01*
X10319Y967847D01*
X10325Y967835D01*
X10329Y967822D01*
X10421Y967657D01*
X10511Y967493D01*
X10519Y967482D01*
X10526Y967471D01*
X10648Y967327D01*
X10768Y967183D01*
X10779Y967175D01*
X10787Y967165D01*
X10936Y967048D01*
X11082Y966931D01*
X11094Y966925D01*
X11104Y966917D01*
X11274Y966832D01*
X11439Y966745D01*
X11452Y966742D01*
X11464Y966736D01*
X11647Y966686D01*
X11826Y966634D01*
X11840Y966633D01*
X11853Y966629D01*
X12041Y966617D01*
X12228Y966601D01*
X12241Y966603D01*
X12254Y966602D01*
X12442Y966626D01*
X12627Y966648D01*
X12640Y966652D01*
X12653Y966654D01*
X12969Y966756D01*
X15961Y967995D01*
X34839Y967995D01*
X38200Y966603D01*
X40773Y964030D01*
X42165Y960669D01*
X42165Y957031D01*
X40773Y953670D01*
X38200Y951097D01*
X36689Y950471D01*
X34839Y949705D01*
X15961Y949705D01*
X12969Y950944D01*
X12956Y950948D01*
X12945Y950955D01*
X12765Y951006D01*
X12584Y951061D01*
X12571Y951062D01*
X12558Y951066D01*
X12370Y951081D01*
X12183Y951099D01*
X12170Y951098D01*
X12156Y951099D01*
X11970Y951077D01*
X11783Y951057D01*
X11770Y951053D01*
X11757Y951052D01*
X11578Y950994D01*
X11398Y950938D01*
X11387Y950931D01*
X11374Y950927D01*
X11210Y950835D01*
X11045Y950744D01*
X11035Y950736D01*
X11023Y950729D01*
X10881Y950607D01*
X10737Y950485D01*
X10729Y950475D01*
X10718Y950466D01*
X10604Y950318D01*
X10486Y950170D01*
X10480Y950158D01*
X10472Y950148D01*
X10388Y949980D01*
X10302Y949812D01*
X10298Y949799D01*
X10292Y949787D01*
X10243Y949605D01*
X10192Y949425D01*
X10191Y949412D01*
X10188Y949399D01*
X10161Y949068D01*
X10161Y943232D01*
X10162Y943219D01*
X10161Y943206D01*
X10182Y943019D01*
X10201Y942832D01*
X10205Y942819D01*
X10206Y942805D01*
X10264Y942627D01*
X10319Y942447D01*
X10325Y942435D01*
X10329Y942422D01*
X10421Y942258D01*
X10511Y942093D01*
X10519Y942082D01*
X10526Y942071D01*
X10648Y941927D01*
X10768Y941783D01*
X10779Y941775D01*
X10787Y941765D01*
X10936Y941649D01*
X11082Y941531D01*
X11094Y941525D01*
X11104Y941517D01*
X11273Y941432D01*
X11439Y941346D01*
X11452Y941342D01*
X11464Y941336D01*
X11646Y941286D01*
X11826Y941234D01*
X11840Y941233D01*
X11853Y941229D01*
X12041Y941217D01*
X12228Y941201D01*
X12241Y941203D01*
X12254Y941202D01*
X12442Y941226D01*
X12627Y941248D01*
X12640Y941252D01*
X12653Y941254D01*
X12969Y941356D01*
X15961Y942595D01*
X34839Y942595D01*
X38200Y941203D01*
X40773Y938630D01*
X40926Y938261D01*
X40936Y938241D01*
X40943Y938220D01*
X41031Y938064D01*
X41116Y937906D01*
X41130Y937889D01*
X41141Y937869D01*
X41258Y937733D01*
X41372Y937595D01*
X41389Y937581D01*
X41404Y937564D01*
X41545Y937455D01*
X41685Y937342D01*
X41705Y937331D01*
X41722Y937318D01*
X41882Y937238D01*
X42041Y937155D01*
X42063Y937148D01*
X42083Y937138D01*
X42256Y937092D01*
X42428Y937042D01*
X42450Y937040D01*
X42471Y937034D01*
X42802Y937007D01*
X71410Y937007D01*
X71437Y937009D01*
X71464Y937007D01*
X71638Y937029D01*
X71811Y937047D01*
X71837Y937054D01*
X71863Y937058D01*
X72029Y937113D01*
X72196Y937165D01*
X72220Y937178D01*
X72245Y937186D01*
X72397Y937273D01*
X72550Y937357D01*
X72571Y937374D01*
X72594Y937387D01*
X72847Y937602D01*
X73194Y937949D01*
X75144Y938757D01*
X77256Y938757D01*
X79206Y937949D01*
X80699Y936456D01*
X81507Y934506D01*
X81507Y932394D01*
X80699Y930444D01*
X79206Y928951D01*
X77256Y928143D01*
X75144Y928143D01*
X73194Y928951D01*
X72847Y929298D01*
X72826Y929315D01*
X72809Y929336D01*
X72671Y929443D01*
X72535Y929553D01*
X72512Y929566D01*
X72491Y929582D01*
X72334Y929660D01*
X72180Y929742D01*
X72154Y929750D01*
X72130Y929762D01*
X71961Y929807D01*
X71794Y929857D01*
X71767Y929859D01*
X71741Y929866D01*
X71410Y929893D01*
X42802Y929893D01*
X42780Y929891D01*
X42758Y929893D01*
X42580Y929871D01*
X42402Y929853D01*
X42380Y929847D01*
X42358Y929844D01*
X42188Y929788D01*
X42017Y929735D01*
X41997Y929725D01*
X41976Y929718D01*
X41820Y929629D01*
X41663Y929543D01*
X41645Y929529D01*
X41626Y929518D01*
X41491Y929400D01*
X41353Y929286D01*
X41339Y929268D01*
X41323Y929254D01*
X41213Y929111D01*
X41101Y928972D01*
X41091Y928952D01*
X41077Y928934D01*
X40926Y928639D01*
X40773Y928270D01*
X38200Y925697D01*
X34839Y924305D01*
X15961Y924305D01*
X12969Y925544D01*
X12956Y925548D01*
X12945Y925554D01*
X12764Y925606D01*
X12584Y925661D01*
X12571Y925662D01*
X12558Y925666D01*
X12370Y925681D01*
X12183Y925699D01*
X12170Y925698D01*
X12156Y925699D01*
X11969Y925677D01*
X11783Y925657D01*
X11770Y925653D01*
X11757Y925652D01*
X11577Y925593D01*
X11398Y925538D01*
X11387Y925531D01*
X11374Y925527D01*
X11209Y925434D01*
X11045Y925344D01*
X11035Y925336D01*
X11023Y925329D01*
X10881Y925206D01*
X10737Y925085D01*
X10729Y925075D01*
X10718Y925066D01*
X10603Y924917D01*
X10486Y924770D01*
X10480Y924758D01*
X10472Y924748D01*
X10388Y924579D01*
X10302Y924412D01*
X10298Y924399D01*
X10292Y924387D01*
X10243Y924204D01*
X10192Y924025D01*
X10191Y924012D01*
X10188Y923999D01*
X10161Y923668D01*
X10161Y917832D01*
X10162Y917819D01*
X10161Y917806D01*
X10182Y917619D01*
X10201Y917432D01*
X10205Y917419D01*
X10206Y917405D01*
X10264Y917227D01*
X10319Y917047D01*
X10325Y917035D01*
X10329Y917022D01*
X10421Y916858D01*
X10511Y916693D01*
X10519Y916682D01*
X10526Y916671D01*
X10648Y916527D01*
X10768Y916383D01*
X10779Y916375D01*
X10787Y916365D01*
X10936Y916249D01*
X11082Y916131D01*
X11094Y916125D01*
X11104Y916117D01*
X11273Y916032D01*
X11439Y915946D01*
X11452Y915942D01*
X11464Y915936D01*
X11646Y915886D01*
X11826Y915834D01*
X11840Y915833D01*
X11853Y915829D01*
X12041Y915817D01*
X12228Y915801D01*
X12241Y915803D01*
X12254Y915802D01*
X12442Y915826D01*
X12627Y915848D01*
X12640Y915852D01*
X12653Y915854D01*
X12969Y915956D01*
X15961Y917195D01*
X34839Y917195D01*
X38200Y915803D01*
X40773Y913230D01*
X40926Y912861D01*
X40936Y912841D01*
X40943Y912820D01*
X41031Y912664D01*
X41116Y912506D01*
X41130Y912489D01*
X41141Y912469D01*
X41258Y912333D01*
X41372Y912195D01*
X41389Y912181D01*
X41404Y912164D01*
X41545Y912055D01*
X41685Y911942D01*
X41705Y911931D01*
X41722Y911918D01*
X41882Y911838D01*
X42041Y911755D01*
X42063Y911748D01*
X42083Y911738D01*
X42256Y911692D01*
X42428Y911642D01*
X42450Y911640D01*
X42471Y911634D01*
X42802Y911607D01*
X58710Y911607D01*
X58737Y911609D01*
X58764Y911607D01*
X58938Y911629D01*
X59111Y911647D01*
X59137Y911654D01*
X59163Y911658D01*
X59329Y911713D01*
X59496Y911765D01*
X59520Y911778D01*
X59545Y911786D01*
X59697Y911873D01*
X59850Y911957D01*
X59871Y911974D01*
X59894Y911987D01*
X60147Y912202D01*
X60494Y912549D01*
X62444Y913357D01*
X64556Y913357D01*
X66506Y912549D01*
X67999Y911056D01*
X68807Y909106D01*
X68807Y906994D01*
X67999Y905044D01*
X66506Y903551D01*
X64556Y902743D01*
X62444Y902743D01*
X60494Y903551D01*
X60147Y903898D01*
X60126Y903915D01*
X60109Y903936D01*
X59971Y904042D01*
X59835Y904153D01*
X59812Y904166D01*
X59791Y904182D01*
X59634Y904260D01*
X59480Y904342D01*
X59454Y904350D01*
X59430Y904362D01*
X59261Y904407D01*
X59094Y904457D01*
X59067Y904459D01*
X59041Y904466D01*
X58710Y904493D01*
X42802Y904493D01*
X42780Y904491D01*
X42758Y904493D01*
X42580Y904471D01*
X42402Y904453D01*
X42380Y904447D01*
X42358Y904444D01*
X42188Y904388D01*
X42017Y904335D01*
X41997Y904325D01*
X41976Y904318D01*
X41820Y904229D01*
X41663Y904143D01*
X41645Y904129D01*
X41626Y904118D01*
X41491Y904000D01*
X41353Y903886D01*
X41339Y903868D01*
X41323Y903854D01*
X41213Y903711D01*
X41101Y903572D01*
X41091Y903552D01*
X41077Y903534D01*
X40926Y903239D01*
X40773Y902870D01*
X38200Y900297D01*
X34839Y898905D01*
X15961Y898905D01*
X12969Y900144D01*
X12956Y900148D01*
X12945Y900154D01*
X12764Y900206D01*
X12584Y900261D01*
X12571Y900262D01*
X12558Y900266D01*
X12370Y900281D01*
X12183Y900299D01*
X12170Y900298D01*
X12156Y900299D01*
X11969Y900277D01*
X11783Y900257D01*
X11770Y900253D01*
X11757Y900252D01*
X11577Y900193D01*
X11398Y900138D01*
X11387Y900131D01*
X11374Y900127D01*
X11209Y900034D01*
X11045Y899944D01*
X11035Y899936D01*
X11023Y899929D01*
X10881Y899806D01*
X10737Y899685D01*
X10729Y899675D01*
X10718Y899666D01*
X10603Y899517D01*
X10486Y899370D01*
X10480Y899358D01*
X10472Y899348D01*
X10388Y899179D01*
X10302Y899012D01*
X10298Y898999D01*
X10292Y898987D01*
X10243Y898804D01*
X10192Y898625D01*
X10191Y898612D01*
X10188Y898599D01*
X10161Y898268D01*
X10161Y892432D01*
X10162Y892419D01*
X10161Y892406D01*
X10182Y892219D01*
X10201Y892032D01*
X10205Y892019D01*
X10206Y892005D01*
X10264Y891827D01*
X10319Y891647D01*
X10325Y891635D01*
X10329Y891622D01*
X10421Y891458D01*
X10511Y891293D01*
X10519Y891282D01*
X10526Y891271D01*
X10648Y891127D01*
X10768Y890983D01*
X10779Y890975D01*
X10787Y890965D01*
X10936Y890849D01*
X11082Y890731D01*
X11094Y890725D01*
X11104Y890717D01*
X11273Y890632D01*
X11439Y890546D01*
X11452Y890542D01*
X11464Y890536D01*
X11646Y890486D01*
X11826Y890434D01*
X11840Y890433D01*
X11853Y890429D01*
X12041Y890417D01*
X12228Y890401D01*
X12241Y890403D01*
X12254Y890402D01*
X12442Y890426D01*
X12627Y890448D01*
X12640Y890452D01*
X12653Y890454D01*
X12969Y890556D01*
X15961Y891795D01*
X34839Y891795D01*
X38200Y890403D01*
X40773Y887830D01*
X40926Y887461D01*
X40936Y887441D01*
X40943Y887420D01*
X41031Y887264D01*
X41116Y887106D01*
X41130Y887089D01*
X41141Y887069D01*
X41258Y886933D01*
X41372Y886795D01*
X41389Y886781D01*
X41404Y886764D01*
X41545Y886655D01*
X41685Y886542D01*
X41705Y886531D01*
X41722Y886518D01*
X41882Y886438D01*
X42041Y886355D01*
X42063Y886348D01*
X42083Y886338D01*
X42256Y886292D01*
X42428Y886242D01*
X42450Y886240D01*
X42471Y886234D01*
X42802Y886207D01*
X71410Y886207D01*
X71437Y886209D01*
X71464Y886207D01*
X71638Y886229D01*
X71811Y886247D01*
X71837Y886254D01*
X71863Y886258D01*
X72029Y886313D01*
X72196Y886365D01*
X72220Y886378D01*
X72245Y886386D01*
X72397Y886473D01*
X72550Y886557D01*
X72571Y886574D01*
X72594Y886587D01*
X72847Y886802D01*
X73194Y887149D01*
X75144Y887957D01*
X77256Y887957D01*
X79206Y887149D01*
X80699Y885656D01*
X81507Y883706D01*
X81507Y881594D01*
X80699Y879644D01*
X79206Y878151D01*
X77256Y877343D01*
X75144Y877343D01*
X73194Y878151D01*
X72847Y878498D01*
X72826Y878515D01*
X72809Y878536D01*
X72671Y878643D01*
X72535Y878753D01*
X72512Y878766D01*
X72491Y878782D01*
X72334Y878860D01*
X72180Y878942D01*
X72154Y878950D01*
X72130Y878962D01*
X71961Y879007D01*
X71794Y879057D01*
X71767Y879059D01*
X71741Y879066D01*
X71410Y879093D01*
X42802Y879093D01*
X42780Y879091D01*
X42758Y879093D01*
X42580Y879071D01*
X42402Y879053D01*
X42380Y879047D01*
X42358Y879044D01*
X42188Y878988D01*
X42017Y878935D01*
X41997Y878925D01*
X41976Y878918D01*
X41820Y878829D01*
X41663Y878743D01*
X41645Y878729D01*
X41626Y878718D01*
X41491Y878600D01*
X41353Y878486D01*
X41339Y878468D01*
X41323Y878454D01*
X41213Y878311D01*
X41101Y878172D01*
X41091Y878152D01*
X41077Y878134D01*
X40926Y877839D01*
X40773Y877470D01*
X38200Y874897D01*
X34839Y873505D01*
X15961Y873505D01*
X12969Y874744D01*
X12956Y874748D01*
X12945Y874754D01*
X12764Y874806D01*
X12584Y874861D01*
X12571Y874862D01*
X12558Y874866D01*
X12370Y874881D01*
X12183Y874899D01*
X12170Y874898D01*
X12156Y874899D01*
X11969Y874877D01*
X11783Y874857D01*
X11770Y874853D01*
X11757Y874852D01*
X11577Y874793D01*
X11398Y874738D01*
X11387Y874731D01*
X11374Y874727D01*
X11209Y874634D01*
X11045Y874544D01*
X11035Y874536D01*
X11023Y874529D01*
X10881Y874406D01*
X10737Y874285D01*
X10729Y874275D01*
X10718Y874266D01*
X10603Y874117D01*
X10486Y873970D01*
X10480Y873958D01*
X10472Y873948D01*
X10388Y873779D01*
X10302Y873612D01*
X10298Y873599D01*
X10292Y873587D01*
X10243Y873404D01*
X10192Y873225D01*
X10191Y873212D01*
X10188Y873199D01*
X10161Y872868D01*
X10161Y854332D01*
X10162Y854319D01*
X10161Y854305D01*
X10182Y854119D01*
X10201Y853932D01*
X10205Y853919D01*
X10206Y853905D01*
X10264Y853726D01*
X10319Y853547D01*
X10325Y853535D01*
X10329Y853522D01*
X10421Y853357D01*
X10511Y853193D01*
X10519Y853182D01*
X10526Y853171D01*
X10648Y853027D01*
X10768Y852883D01*
X10779Y852875D01*
X10787Y852865D01*
X10936Y852748D01*
X11082Y852631D01*
X11094Y852625D01*
X11104Y852617D01*
X11274Y852532D01*
X11439Y852445D01*
X11452Y852442D01*
X11464Y852436D01*
X11647Y852386D01*
X11826Y852334D01*
X11840Y852333D01*
X11853Y852329D01*
X12041Y852317D01*
X12228Y852301D01*
X12241Y852303D01*
X12254Y852302D01*
X12442Y852326D01*
X12627Y852348D01*
X12640Y852352D01*
X12653Y852354D01*
X12969Y852456D01*
X15961Y853695D01*
X34839Y853695D01*
X38200Y852303D01*
X40785Y849718D01*
X40806Y849701D01*
X40823Y849680D01*
X40961Y849573D01*
X41096Y849463D01*
X41120Y849450D01*
X41141Y849434D01*
X41298Y849356D01*
X41452Y849274D01*
X41478Y849266D01*
X41502Y849254D01*
X41671Y849209D01*
X41838Y849159D01*
X41865Y849157D01*
X41891Y849150D01*
X42221Y849123D01*
X260096Y849123D01*
X260114Y849125D01*
X260132Y849123D01*
X260314Y849144D01*
X260497Y849163D01*
X260514Y849168D01*
X260531Y849170D01*
X260706Y849227D01*
X260882Y849281D01*
X260897Y849289D01*
X260914Y849295D01*
X261074Y849385D01*
X261236Y849473D01*
X261249Y849484D01*
X261265Y849493D01*
X261404Y849613D01*
X261545Y849730D01*
X261556Y849744D01*
X261570Y849756D01*
X261682Y849901D01*
X261797Y850044D01*
X261805Y850060D01*
X261816Y850074D01*
X261898Y850239D01*
X261983Y850401D01*
X261988Y850418D01*
X261996Y850434D01*
X262043Y850613D01*
X262094Y850788D01*
X262096Y850806D01*
X262100Y850823D01*
X262127Y851154D01*
X262127Y884521D01*
X262125Y884548D01*
X262127Y884574D01*
X262105Y884748D01*
X262087Y884922D01*
X262080Y884947D01*
X262076Y884974D01*
X262020Y885140D01*
X261969Y885307D01*
X261956Y885330D01*
X261948Y885356D01*
X261861Y885507D01*
X261777Y885661D01*
X261760Y885681D01*
X261747Y885704D01*
X261532Y885957D01*
X256393Y891097D01*
X256393Y899303D01*
X262197Y905107D01*
X270403Y905107D01*
X276207Y899303D01*
X276207Y891097D01*
X271868Y886757D01*
X271851Y886737D01*
X271830Y886719D01*
X271723Y886581D01*
X271613Y886446D01*
X271600Y886422D01*
X271584Y886401D01*
X271506Y886245D01*
X271424Y886090D01*
X271416Y886065D01*
X271404Y886041D01*
X271359Y885871D01*
X271309Y885704D01*
X271307Y885678D01*
X271300Y885652D01*
X271273Y885321D01*
X271273Y851154D01*
X271275Y851136D01*
X271273Y851118D01*
X271294Y850936D01*
X271313Y850753D01*
X271318Y850736D01*
X271320Y850719D01*
X271377Y850544D01*
X271431Y850368D01*
X271439Y850353D01*
X271445Y850336D01*
X271535Y850176D01*
X271623Y850014D01*
X271634Y850001D01*
X271643Y849985D01*
X271763Y849846D01*
X271880Y849705D01*
X271894Y849694D01*
X271906Y849680D01*
X272051Y849568D01*
X272194Y849453D01*
X272210Y849445D01*
X272224Y849434D01*
X272389Y849352D01*
X272551Y849267D01*
X272568Y849262D01*
X272584Y849254D01*
X272763Y849207D01*
X272938Y849156D01*
X272956Y849154D01*
X272973Y849150D01*
X273304Y849123D01*
X369210Y849123D01*
X370890Y848427D01*
X410277Y809040D01*
X410973Y807360D01*
X410973Y703938D01*
X410975Y703920D01*
X410973Y703902D01*
X410994Y703720D01*
X411013Y703537D01*
X411018Y703520D01*
X411020Y703503D01*
X411077Y703328D01*
X411131Y703152D01*
X411139Y703137D01*
X411145Y703120D01*
X411235Y702960D01*
X411323Y702798D01*
X411334Y702785D01*
X411343Y702769D01*
X411463Y702630D01*
X411580Y702489D01*
X411594Y702478D01*
X411606Y702464D01*
X411751Y702352D01*
X411894Y702237D01*
X411910Y702229D01*
X411924Y702218D01*
X412089Y702136D01*
X412251Y702051D01*
X412268Y702046D01*
X412284Y702038D01*
X412463Y701991D01*
X412638Y701940D01*
X412656Y701938D01*
X412673Y701934D01*
X413004Y701907D01*
X416453Y701907D01*
X422257Y696103D01*
X422257Y689551D01*
X422260Y689514D01*
X422258Y689477D01*
X422280Y689314D01*
X422297Y689151D01*
X422308Y689115D01*
X422313Y689078D01*
X422367Y688923D01*
X422415Y688766D01*
X422433Y688733D01*
X422445Y688698D01*
X422528Y688556D01*
X422607Y688412D01*
X422630Y688383D01*
X422649Y688351D01*
X422856Y688113D01*
X422864Y688103D01*
X422865Y688102D01*
X422867Y688100D01*
X434087Y677111D01*
X434103Y677098D01*
X434116Y677082D01*
X434194Y677023D01*
X435008Y676208D01*
X435016Y676202D01*
X435023Y676194D01*
X435667Y675563D01*
X436011Y674732D01*
X436016Y674724D01*
X436019Y674713D01*
X436373Y673884D01*
X436373Y672984D01*
X436374Y672974D01*
X436373Y672963D01*
X436385Y671819D01*
X436373Y671672D01*
X436373Y642764D01*
X436375Y642738D01*
X436373Y642711D01*
X436395Y642537D01*
X436413Y642364D01*
X436420Y642338D01*
X436424Y642312D01*
X436479Y642146D01*
X436531Y641979D01*
X436544Y641955D01*
X436552Y641930D01*
X436639Y641778D01*
X436723Y641625D01*
X436740Y641604D01*
X436753Y641581D01*
X436968Y641328D01*
X439929Y638367D01*
X439929Y631633D01*
X435167Y626871D01*
X428433Y626871D01*
X423671Y631633D01*
X423671Y638367D01*
X426632Y641328D01*
X426649Y641349D01*
X426670Y641366D01*
X426777Y641504D01*
X426887Y641640D01*
X426900Y641663D01*
X426916Y641684D01*
X426994Y641841D01*
X427076Y641995D01*
X427084Y642021D01*
X427096Y642045D01*
X427141Y642214D01*
X427191Y642381D01*
X427193Y642408D01*
X427200Y642434D01*
X427227Y642764D01*
X427227Y670174D01*
X427224Y670212D01*
X427226Y670249D01*
X427204Y670411D01*
X427187Y670575D01*
X427176Y670611D01*
X427171Y670648D01*
X427117Y670803D01*
X427069Y670960D01*
X427051Y670993D01*
X427039Y671028D01*
X426956Y671170D01*
X426877Y671314D01*
X426854Y671343D01*
X426835Y671375D01*
X426628Y671613D01*
X426620Y671623D01*
X426619Y671624D01*
X426617Y671625D01*
X416522Y681513D01*
X416509Y681523D01*
X416499Y681536D01*
X416352Y681649D01*
X416208Y681765D01*
X416193Y681772D01*
X416181Y681782D01*
X416014Y681865D01*
X415850Y681950D01*
X415835Y681954D01*
X415820Y681962D01*
X415641Y682010D01*
X415463Y682061D01*
X415447Y682062D01*
X415431Y682066D01*
X415101Y682093D01*
X408247Y682093D01*
X402443Y687897D01*
X402443Y695512D01*
X402424Y695703D01*
X402404Y695909D01*
X402404Y695911D01*
X402403Y695913D01*
X402399Y695928D01*
X402313Y696228D01*
X402158Y696638D01*
X402145Y696664D01*
X402134Y696700D01*
X401798Y697512D01*
X401826Y698391D01*
X401824Y698421D01*
X401827Y698458D01*
X401827Y803715D01*
X401825Y803741D01*
X401827Y803768D01*
X401805Y803942D01*
X401787Y804115D01*
X401780Y804141D01*
X401776Y804167D01*
X401721Y804333D01*
X401669Y804500D01*
X401656Y804524D01*
X401648Y804549D01*
X401561Y804701D01*
X401477Y804854D01*
X401460Y804875D01*
X401447Y804898D01*
X401232Y805151D01*
X367001Y839382D01*
X366980Y839399D01*
X366963Y839420D01*
X366825Y839527D01*
X366689Y839637D01*
X366666Y839650D01*
X366645Y839666D01*
X366488Y839744D01*
X366334Y839826D01*
X366308Y839834D01*
X366284Y839846D01*
X366115Y839891D01*
X365948Y839941D01*
X365921Y839943D01*
X365895Y839950D01*
X365565Y839977D01*
X42221Y839977D01*
X42195Y839975D01*
X42168Y839977D01*
X41994Y839955D01*
X41821Y839937D01*
X41795Y839930D01*
X41768Y839926D01*
X41603Y839870D01*
X41436Y839819D01*
X41412Y839806D01*
X41387Y839798D01*
X41236Y839711D01*
X41082Y839627D01*
X41061Y839610D01*
X41038Y839597D01*
X40785Y839382D01*
X38200Y836797D01*
X34839Y835405D01*
X15961Y835405D01*
X12969Y836644D01*
X12956Y836648D01*
X12945Y836655D01*
X12765Y836706D01*
X12584Y836761D01*
X12571Y836762D01*
X12558Y836766D01*
X12370Y836781D01*
X12183Y836799D01*
X12170Y836798D01*
X12156Y836799D01*
X11970Y836777D01*
X11783Y836757D01*
X11770Y836753D01*
X11757Y836752D01*
X11578Y836694D01*
X11398Y836638D01*
X11387Y836631D01*
X11374Y836627D01*
X11210Y836535D01*
X11045Y836444D01*
X11035Y836436D01*
X11023Y836429D01*
X10881Y836307D01*
X10737Y836185D01*
X10729Y836175D01*
X10718Y836166D01*
X10604Y836018D01*
X10486Y835870D01*
X10480Y835858D01*
X10472Y835848D01*
X10388Y835680D01*
X10302Y835512D01*
X10298Y835499D01*
X10292Y835487D01*
X10243Y835305D01*
X10192Y835125D01*
X10191Y835112D01*
X10188Y835099D01*
X10161Y834768D01*
X10161Y829986D01*
X10170Y829893D01*
X10169Y829800D01*
X10190Y829693D01*
X10201Y829585D01*
X10228Y829496D01*
X10246Y829405D01*
X10287Y829304D01*
X10319Y829201D01*
X10363Y829119D01*
X10399Y829032D01*
X10459Y828942D01*
X10511Y828847D01*
X10570Y828775D01*
X10622Y828697D01*
X10699Y828621D01*
X10768Y828537D01*
X10841Y828479D01*
X10907Y828413D01*
X10997Y828353D01*
X11082Y828285D01*
X11165Y828242D01*
X11242Y828190D01*
X11343Y828149D01*
X11439Y828099D01*
X11529Y828074D01*
X11615Y828038D01*
X11722Y828018D01*
X11826Y827988D01*
X11919Y827980D01*
X12011Y827963D01*
X12119Y827964D01*
X12228Y827955D01*
X12320Y827966D01*
X12413Y827967D01*
X12520Y827989D01*
X12627Y828002D01*
X12716Y828031D01*
X12807Y828050D01*
X12931Y828101D01*
X13010Y828127D01*
X13053Y828151D01*
X13114Y828176D01*
X13880Y828566D01*
X15401Y829061D01*
X16980Y829311D01*
X22861Y829311D01*
X22861Y819658D01*
X22862Y819640D01*
X22861Y819623D01*
X22882Y819440D01*
X22901Y819258D01*
X22906Y819241D01*
X22908Y819223D01*
X22933Y819145D01*
X22894Y819008D01*
X22892Y818990D01*
X22888Y818973D01*
X22861Y818642D01*
X22861Y808989D01*
X16980Y808989D01*
X15401Y809239D01*
X13880Y809734D01*
X13114Y810124D01*
X13027Y810158D01*
X12945Y810201D01*
X12840Y810231D01*
X12739Y810270D01*
X12647Y810286D01*
X12558Y810312D01*
X12449Y810321D01*
X12343Y810340D01*
X12249Y810337D01*
X12156Y810345D01*
X12049Y810332D01*
X11940Y810329D01*
X11849Y810309D01*
X11757Y810298D01*
X11653Y810264D01*
X11548Y810240D01*
X11462Y810202D01*
X11374Y810173D01*
X11279Y810120D01*
X11180Y810075D01*
X11104Y810021D01*
X11023Y809975D01*
X10941Y809904D01*
X10853Y809841D01*
X10789Y809773D01*
X10718Y809712D01*
X10652Y809626D01*
X10578Y809547D01*
X10529Y809468D01*
X10472Y809394D01*
X10423Y809297D01*
X10366Y809204D01*
X10334Y809117D01*
X10292Y809033D01*
X10264Y808929D01*
X10227Y808827D01*
X10212Y808735D01*
X10188Y808645D01*
X10177Y808511D01*
X10164Y808429D01*
X10166Y808380D01*
X10161Y808314D01*
X10161Y803532D01*
X10162Y803519D01*
X10161Y803505D01*
X10182Y803319D01*
X10201Y803132D01*
X10205Y803119D01*
X10206Y803105D01*
X10264Y802926D01*
X10319Y802747D01*
X10325Y802735D01*
X10329Y802722D01*
X10421Y802557D01*
X10511Y802393D01*
X10519Y802382D01*
X10526Y802371D01*
X10648Y802227D01*
X10768Y802083D01*
X10779Y802075D01*
X10787Y802065D01*
X10936Y801948D01*
X11082Y801831D01*
X11094Y801825D01*
X11104Y801817D01*
X11274Y801732D01*
X11439Y801645D01*
X11452Y801642D01*
X11464Y801636D01*
X11647Y801586D01*
X11826Y801534D01*
X11840Y801533D01*
X11853Y801529D01*
X12041Y801517D01*
X12228Y801501D01*
X12241Y801503D01*
X12254Y801502D01*
X12442Y801526D01*
X12627Y801548D01*
X12640Y801552D01*
X12653Y801554D01*
X12969Y801656D01*
X15961Y802895D01*
X34839Y802895D01*
X38200Y801503D01*
X40773Y798930D01*
X42165Y795569D01*
X42165Y791931D01*
X40773Y788570D01*
X38200Y785997D01*
X38062Y785940D01*
X34839Y784605D01*
X32004Y784605D01*
X31986Y784603D01*
X31968Y784605D01*
X31786Y784584D01*
X31603Y784565D01*
X31586Y784560D01*
X31569Y784558D01*
X31394Y784501D01*
X31218Y784447D01*
X31203Y784439D01*
X31186Y784433D01*
X31026Y784343D01*
X30864Y784255D01*
X30851Y784244D01*
X30835Y784235D01*
X30696Y784115D01*
X30555Y783998D01*
X30544Y783984D01*
X30530Y783972D01*
X30418Y783827D01*
X30303Y783684D01*
X30295Y783668D01*
X30284Y783654D01*
X30202Y783489D01*
X30117Y783327D01*
X30112Y783310D01*
X30104Y783294D01*
X30057Y783115D01*
X30006Y782940D01*
X30004Y782922D01*
X30000Y782905D01*
X29973Y782574D01*
X29973Y739335D01*
X29975Y739309D01*
X29973Y739282D01*
X29995Y739108D01*
X30013Y738935D01*
X30020Y738909D01*
X30024Y738883D01*
X30079Y738717D01*
X30131Y738550D01*
X30144Y738526D01*
X30152Y738501D01*
X30239Y738349D01*
X30323Y738196D01*
X30340Y738175D01*
X30353Y738152D01*
X30568Y737899D01*
X90199Y678268D01*
X90220Y678251D01*
X90237Y678230D01*
X90375Y678123D01*
X90511Y678013D01*
X90534Y678000D01*
X90555Y677984D01*
X90712Y677906D01*
X90866Y677824D01*
X90892Y677816D01*
X90916Y677804D01*
X91085Y677759D01*
X91252Y677709D01*
X91279Y677707D01*
X91305Y677700D01*
X91635Y677673D01*
X155518Y677673D01*
X155549Y677676D01*
X155581Y677674D01*
X155750Y677696D01*
X155919Y677713D01*
X155949Y677722D01*
X155980Y677726D01*
X156296Y677827D01*
X157694Y678407D01*
X159806Y678407D01*
X161204Y677827D01*
X161234Y677818D01*
X161262Y677804D01*
X161427Y677760D01*
X161590Y677711D01*
X161621Y677708D01*
X161651Y677700D01*
X161982Y677673D01*
X355746Y677673D01*
X355764Y677675D01*
X355782Y677673D01*
X355964Y677694D01*
X356147Y677713D01*
X356164Y677718D01*
X356181Y677720D01*
X356356Y677777D01*
X356532Y677831D01*
X356547Y677839D01*
X356564Y677845D01*
X356724Y677935D01*
X356886Y678023D01*
X356899Y678034D01*
X356915Y678043D01*
X357054Y678163D01*
X357195Y678280D01*
X357206Y678294D01*
X357220Y678306D01*
X357332Y678451D01*
X357447Y678594D01*
X357455Y678610D01*
X357466Y678624D01*
X357548Y678789D01*
X357633Y678951D01*
X357638Y678968D01*
X357646Y678984D01*
X357693Y679163D01*
X357744Y679338D01*
X357746Y679356D01*
X357750Y679373D01*
X357777Y679704D01*
X357777Y680062D01*
X357775Y680080D01*
X357777Y680098D01*
X357756Y680280D01*
X357737Y680463D01*
X357732Y680480D01*
X357730Y680497D01*
X357673Y680672D01*
X357619Y680848D01*
X357611Y680863D01*
X357605Y680880D01*
X357515Y681040D01*
X357427Y681202D01*
X357416Y681215D01*
X357407Y681231D01*
X357287Y681370D01*
X357170Y681511D01*
X357156Y681522D01*
X357144Y681536D01*
X356999Y681648D01*
X356856Y681763D01*
X356840Y681771D01*
X356826Y681782D01*
X356661Y681864D01*
X356499Y681949D01*
X356482Y681954D01*
X356466Y681962D01*
X356287Y682009D01*
X356112Y682060D01*
X356094Y682062D01*
X356077Y682066D01*
X355746Y682093D01*
X353336Y682093D01*
X352443Y682986D01*
X352443Y701014D01*
X353336Y701907D01*
X371364Y701907D01*
X372257Y701014D01*
X372257Y682986D01*
X371364Y682093D01*
X368954Y682093D01*
X368936Y682091D01*
X368918Y682093D01*
X368736Y682072D01*
X368553Y682053D01*
X368536Y682048D01*
X368519Y682046D01*
X368344Y681989D01*
X368168Y681935D01*
X368153Y681927D01*
X368136Y681921D01*
X367976Y681831D01*
X367814Y681743D01*
X367801Y681732D01*
X367785Y681723D01*
X367646Y681603D01*
X367505Y681486D01*
X367494Y681472D01*
X367480Y681460D01*
X367368Y681315D01*
X367253Y681172D01*
X367245Y681156D01*
X367234Y681142D01*
X367152Y680977D01*
X367067Y680815D01*
X367062Y680798D01*
X367054Y680782D01*
X367007Y680603D01*
X366956Y680428D01*
X366954Y680410D01*
X366950Y680393D01*
X366923Y680062D01*
X366923Y675820D01*
X366925Y675798D01*
X366923Y675775D01*
X366945Y675597D01*
X366963Y675420D01*
X366969Y675398D01*
X366972Y675375D01*
X367028Y675206D01*
X367081Y675035D01*
X367092Y675015D01*
X367099Y674993D01*
X367187Y674838D01*
X367273Y674681D01*
X367287Y674663D01*
X367298Y674643D01*
X367512Y674390D01*
X415988Y625529D01*
X415991Y625526D01*
X415994Y625523D01*
X416633Y624884D01*
X416976Y624047D01*
X416978Y624043D01*
X416979Y624039D01*
X417326Y623201D01*
X417323Y622298D01*
X417323Y622294D01*
X417323Y622290D01*
X417323Y536135D01*
X417325Y536109D01*
X417323Y536082D01*
X417345Y535908D01*
X417363Y535735D01*
X417370Y535709D01*
X417374Y535683D01*
X417429Y535517D01*
X417481Y535350D01*
X417494Y535326D01*
X417502Y535301D01*
X417589Y535149D01*
X417673Y534996D01*
X417690Y534975D01*
X417703Y534952D01*
X417918Y534699D01*
X448377Y504240D01*
X449073Y502560D01*
X449073Y481690D01*
X448377Y480010D01*
X446805Y478438D01*
X440524Y472157D01*
X440507Y472136D01*
X440486Y472119D01*
X440379Y471981D01*
X440269Y471845D01*
X440256Y471822D01*
X440240Y471801D01*
X440162Y471644D01*
X440080Y471490D01*
X440072Y471464D01*
X440060Y471440D01*
X440015Y471271D01*
X439965Y471104D01*
X439963Y471077D01*
X439956Y471051D01*
X439929Y470721D01*
X439929Y466533D01*
X435167Y461771D01*
X428433Y461771D01*
X423671Y466533D01*
X423671Y473267D01*
X428433Y478029D01*
X432621Y478029D01*
X432647Y478031D01*
X432674Y478029D01*
X432848Y478051D01*
X433021Y478069D01*
X433047Y478076D01*
X433073Y478080D01*
X433239Y478136D01*
X433406Y478187D01*
X433430Y478200D01*
X433455Y478208D01*
X433607Y478295D01*
X433760Y478379D01*
X433781Y478396D01*
X433804Y478409D01*
X434057Y478624D01*
X439332Y483899D01*
X439349Y483920D01*
X439370Y483937D01*
X439477Y484075D01*
X439587Y484211D01*
X439600Y484234D01*
X439616Y484255D01*
X439694Y484412D01*
X439776Y484566D01*
X439784Y484592D01*
X439796Y484616D01*
X439841Y484785D01*
X439891Y484952D01*
X439893Y484979D01*
X439900Y485005D01*
X439927Y485335D01*
X439927Y498915D01*
X439925Y498941D01*
X439927Y498968D01*
X439905Y499142D01*
X439887Y499315D01*
X439880Y499341D01*
X439876Y499367D01*
X439821Y499533D01*
X439769Y499700D01*
X439756Y499724D01*
X439748Y499749D01*
X439661Y499901D01*
X439577Y500054D01*
X439560Y500075D01*
X439547Y500098D01*
X439332Y500351D01*
X408873Y530810D01*
X408177Y532490D01*
X408177Y619580D01*
X408175Y619602D01*
X408177Y619625D01*
X408155Y619803D01*
X408137Y619980D01*
X408131Y620002D01*
X408128Y620025D01*
X408072Y620194D01*
X408019Y620365D01*
X408008Y620385D01*
X408001Y620407D01*
X407913Y620562D01*
X407827Y620719D01*
X407813Y620737D01*
X407802Y620757D01*
X407588Y621010D01*
X361041Y667927D01*
X361017Y667946D01*
X360997Y667970D01*
X360863Y668074D01*
X360731Y668183D01*
X360704Y668198D01*
X360679Y668216D01*
X360527Y668292D01*
X360376Y668373D01*
X360346Y668382D01*
X360319Y668396D01*
X360154Y668440D01*
X359990Y668489D01*
X359960Y668492D01*
X359930Y668500D01*
X359599Y668527D01*
X161982Y668527D01*
X161951Y668524D01*
X161919Y668526D01*
X161750Y668504D01*
X161581Y668487D01*
X161551Y668478D01*
X161520Y668474D01*
X161204Y668373D01*
X159806Y667793D01*
X157694Y667793D01*
X156296Y668373D01*
X156266Y668382D01*
X156238Y668396D01*
X156073Y668440D01*
X155910Y668489D01*
X155879Y668492D01*
X155849Y668500D01*
X155518Y668527D01*
X87990Y668527D01*
X86310Y669223D01*
X21523Y734010D01*
X20827Y735690D01*
X20827Y782574D01*
X20825Y782592D01*
X20827Y782610D01*
X20806Y782792D01*
X20787Y782975D01*
X20782Y782992D01*
X20780Y783009D01*
X20723Y783184D01*
X20669Y783360D01*
X20661Y783375D01*
X20655Y783392D01*
X20565Y783552D01*
X20477Y783714D01*
X20466Y783727D01*
X20457Y783743D01*
X20337Y783882D01*
X20220Y784023D01*
X20206Y784034D01*
X20194Y784048D01*
X20049Y784160D01*
X19906Y784275D01*
X19890Y784283D01*
X19876Y784294D01*
X19711Y784376D01*
X19549Y784461D01*
X19532Y784466D01*
X19516Y784474D01*
X19337Y784521D01*
X19162Y784572D01*
X19144Y784574D01*
X19127Y784578D01*
X18796Y784605D01*
X15961Y784605D01*
X12969Y785844D01*
X12956Y785848D01*
X12945Y785855D01*
X12765Y785906D01*
X12584Y785961D01*
X12571Y785962D01*
X12558Y785966D01*
X12370Y785981D01*
X12183Y785999D01*
X12170Y785998D01*
X12156Y785999D01*
X11970Y785977D01*
X11783Y785957D01*
X11770Y785953D01*
X11757Y785952D01*
X11578Y785894D01*
X11398Y785838D01*
X11387Y785831D01*
X11374Y785827D01*
X11210Y785735D01*
X11045Y785644D01*
X11035Y785636D01*
X11023Y785629D01*
X10881Y785507D01*
X10737Y785385D01*
X10729Y785375D01*
X10718Y785366D01*
X10604Y785218D01*
X10486Y785070D01*
X10480Y785058D01*
X10472Y785048D01*
X10388Y784880D01*
X10302Y784712D01*
X10298Y784699D01*
X10292Y784687D01*
X10243Y784504D01*
X10192Y784325D01*
X10191Y784312D01*
X10188Y784299D01*
X10161Y783968D01*
X10161Y172714D01*
X10162Y172705D01*
X10161Y172696D01*
X10182Y172505D01*
X10201Y172314D01*
X10203Y172305D01*
X10204Y172296D01*
X10262Y172114D01*
X10319Y171929D01*
X10323Y171921D01*
X10326Y171912D01*
X10419Y171744D01*
X10511Y171575D01*
X10516Y171568D01*
X10521Y171560D01*
X10646Y171412D01*
X10768Y171265D01*
X10775Y171260D01*
X10781Y171253D01*
X10933Y171133D01*
X11082Y171013D01*
X11090Y171009D01*
X11097Y171003D01*
X11269Y170916D01*
X11439Y170828D01*
X11448Y170825D01*
X11456Y170821D01*
X11642Y170769D01*
X11826Y170716D01*
X11835Y170715D01*
X11844Y170713D01*
X12036Y170699D01*
X12228Y170683D01*
X12236Y170684D01*
X12245Y170684D01*
X12438Y170708D01*
X12627Y170730D01*
X12636Y170733D01*
X12645Y170734D01*
X12828Y170796D01*
X13010Y170855D01*
X13018Y170860D01*
X13026Y170862D01*
X13192Y170958D01*
X13361Y171053D01*
X13368Y171059D01*
X13375Y171063D01*
X13628Y171278D01*
X15686Y173335D01*
X21652Y176780D01*
X28306Y178563D01*
X35194Y178563D01*
X41848Y176780D01*
X47814Y173335D01*
X52685Y168464D01*
X56130Y162498D01*
X57913Y155844D01*
X57913Y148956D01*
X56130Y142302D01*
X52685Y136336D01*
X47814Y131465D01*
X41848Y128020D01*
X35194Y126237D01*
X28306Y126237D01*
X21652Y128020D01*
X15686Y131465D01*
X13628Y133522D01*
X13621Y133528D01*
X13616Y133535D01*
X13466Y133655D01*
X13317Y133777D01*
X13309Y133781D01*
X13302Y133787D01*
X13132Y133875D01*
X12961Y133966D01*
X12952Y133968D01*
X12945Y133972D01*
X12760Y134025D01*
X12575Y134081D01*
X12566Y134081D01*
X12558Y134084D01*
X12367Y134099D01*
X12174Y134117D01*
X12165Y134116D01*
X12156Y134117D01*
X11967Y134094D01*
X11774Y134074D01*
X11765Y134071D01*
X11757Y134070D01*
X11575Y134010D01*
X11390Y133952D01*
X11382Y133948D01*
X11374Y133945D01*
X11205Y133850D01*
X11038Y133757D01*
X11031Y133751D01*
X11023Y133747D01*
X10877Y133621D01*
X10731Y133497D01*
X10725Y133490D01*
X10718Y133484D01*
X10601Y133332D01*
X10481Y133181D01*
X10477Y133173D01*
X10472Y133166D01*
X10386Y132994D01*
X10299Y132822D01*
X10296Y132813D01*
X10292Y132805D01*
X10242Y132619D01*
X10191Y132434D01*
X10190Y132425D01*
X10188Y132416D01*
X10161Y132086D01*
X10161Y12192D01*
X10163Y12174D01*
X10161Y12156D01*
X10182Y11974D01*
X10201Y11791D01*
X10206Y11774D01*
X10208Y11757D01*
X10265Y11582D01*
X10319Y11406D01*
X10327Y11391D01*
X10333Y11374D01*
X10423Y11214D01*
X10511Y11052D01*
X10522Y11039D01*
X10531Y11023D01*
X10651Y10884D01*
X10768Y10743D01*
X10782Y10732D01*
X10794Y10718D01*
X10939Y10606D01*
X11082Y10491D01*
X11098Y10483D01*
X11112Y10472D01*
X11277Y10390D01*
X11439Y10305D01*
X11456Y10300D01*
X11472Y10292D01*
X11651Y10245D01*
X11826Y10194D01*
X11844Y10192D01*
X11861Y10188D01*
X12192Y10161D01*
X17890Y10161D01*
X17898Y10162D01*
G37*
%LPC*%
G36*
X22033Y87121D02*
X22033Y87121D01*
X17271Y91883D01*
X17271Y98617D01*
X22033Y103379D01*
X27657Y103379D01*
X27684Y103381D01*
X27711Y103379D01*
X27885Y103401D01*
X28058Y103419D01*
X28084Y103426D01*
X28110Y103430D01*
X28276Y103485D01*
X28443Y103537D01*
X28467Y103550D01*
X28492Y103558D01*
X28643Y103645D01*
X28797Y103729D01*
X28817Y103746D01*
X28841Y103759D01*
X29094Y103974D01*
X78398Y153278D01*
X81077Y155957D01*
X84223Y155957D01*
X84307Y155965D01*
X84391Y155964D01*
X84506Y155985D01*
X84623Y155997D01*
X84704Y156021D01*
X84787Y156037D01*
X84896Y156080D01*
X85008Y156115D01*
X85082Y156155D01*
X85161Y156186D01*
X85259Y156251D01*
X85362Y156307D01*
X85427Y156361D01*
X85498Y156407D01*
X85581Y156489D01*
X85671Y156564D01*
X85724Y156630D01*
X85784Y156689D01*
X85850Y156787D01*
X85924Y156878D01*
X85963Y156953D01*
X86010Y157023D01*
X86055Y157131D01*
X86109Y157235D01*
X86132Y157316D01*
X86165Y157394D01*
X86188Y157510D01*
X86221Y157622D01*
X86227Y157706D01*
X86244Y157789D01*
X86244Y157907D01*
X86253Y158024D01*
X86244Y158107D01*
X86244Y158192D01*
X86220Y158307D01*
X86207Y158423D01*
X86180Y158504D01*
X86164Y158586D01*
X86118Y158695D01*
X86082Y158806D01*
X86040Y158880D01*
X86007Y158958D01*
X85941Y159055D01*
X85884Y159157D01*
X85829Y159221D01*
X85781Y159291D01*
X85697Y159373D01*
X85621Y159461D01*
X85554Y159513D01*
X85494Y159572D01*
X85395Y159636D01*
X85303Y159708D01*
X85227Y159746D01*
X85156Y159792D01*
X85019Y159849D01*
X84942Y159888D01*
X84901Y159899D01*
X84850Y159920D01*
X84758Y159950D01*
X83244Y160721D01*
X81870Y161719D01*
X80669Y162920D01*
X79671Y164294D01*
X78900Y165808D01*
X78447Y167201D01*
X88182Y167201D01*
X88200Y167202D01*
X88217Y167201D01*
X88400Y167222D01*
X88582Y167241D01*
X88599Y167246D01*
X88617Y167248D01*
X88792Y167305D01*
X88892Y167336D01*
X88899Y167332D01*
X89077Y167284D01*
X89252Y167234D01*
X89270Y167232D01*
X89287Y167228D01*
X89618Y167201D01*
X99353Y167201D01*
X99239Y166851D01*
X99212Y166728D01*
X99176Y166607D01*
X99169Y166532D01*
X99153Y166458D01*
X99151Y166332D01*
X99140Y166206D01*
X99148Y166131D01*
X99147Y166055D01*
X99170Y165931D01*
X99183Y165806D01*
X99206Y165734D01*
X99220Y165660D01*
X99267Y165542D01*
X99305Y165422D01*
X99341Y165356D01*
X99369Y165286D01*
X99439Y165180D01*
X99500Y165069D01*
X99548Y165012D01*
X99590Y164949D01*
X99678Y164859D01*
X99760Y164762D01*
X99819Y164716D01*
X99872Y164662D01*
X99977Y164591D01*
X100076Y164513D01*
X100143Y164479D01*
X100206Y164436D01*
X100322Y164388D01*
X100435Y164330D01*
X100508Y164310D01*
X100577Y164281D01*
X100701Y164256D01*
X100823Y164222D01*
X100898Y164217D01*
X100972Y164202D01*
X101098Y164202D01*
X101224Y164193D01*
X101299Y164203D01*
X101375Y164203D01*
X101498Y164228D01*
X101624Y164244D01*
X101695Y164268D01*
X101769Y164283D01*
X101886Y164331D01*
X102006Y164372D01*
X102071Y164409D01*
X102140Y164439D01*
X102245Y164510D01*
X102354Y164573D01*
X102421Y164630D01*
X102473Y164665D01*
X102525Y164717D01*
X102607Y164787D01*
X141898Y204078D01*
X141915Y204099D01*
X141936Y204117D01*
X142043Y204254D01*
X142153Y204390D01*
X142166Y204413D01*
X142182Y204435D01*
X142260Y204592D01*
X142342Y204746D01*
X142350Y204771D01*
X142362Y204795D01*
X142407Y204965D01*
X142457Y205131D01*
X142459Y205158D01*
X142466Y205184D01*
X142493Y205515D01*
X142493Y340585D01*
X142491Y340612D01*
X142493Y340639D01*
X142471Y340813D01*
X142453Y340986D01*
X142446Y341011D01*
X142442Y341038D01*
X142387Y341204D01*
X142335Y341371D01*
X142322Y341394D01*
X142314Y341420D01*
X142227Y341571D01*
X142143Y341725D01*
X142126Y341745D01*
X142113Y341769D01*
X141898Y342022D01*
X51672Y432248D01*
X51651Y432265D01*
X51633Y432286D01*
X51496Y432393D01*
X51360Y432503D01*
X51337Y432516D01*
X51315Y432532D01*
X51158Y432610D01*
X51004Y432692D01*
X50979Y432700D01*
X50955Y432712D01*
X50785Y432757D01*
X50619Y432807D01*
X50592Y432809D01*
X50566Y432816D01*
X50235Y432843D01*
X49744Y432843D01*
X47794Y433651D01*
X46301Y435144D01*
X45493Y437094D01*
X45493Y439206D01*
X46301Y441156D01*
X47794Y442649D01*
X49744Y443457D01*
X51856Y443457D01*
X53806Y442649D01*
X54726Y441729D01*
X54733Y441723D01*
X54738Y441717D01*
X54888Y441596D01*
X55037Y441474D01*
X55045Y441470D01*
X55052Y441464D01*
X55222Y441376D01*
X55393Y441285D01*
X55402Y441283D01*
X55409Y441279D01*
X55594Y441226D01*
X55779Y441171D01*
X55788Y441170D01*
X55796Y441167D01*
X55987Y441152D01*
X56180Y441134D01*
X56189Y441135D01*
X56198Y441135D01*
X56387Y441157D01*
X56580Y441178D01*
X56589Y441180D01*
X56597Y441181D01*
X56779Y441241D01*
X56964Y441299D01*
X56972Y441303D01*
X56980Y441306D01*
X57147Y441400D01*
X57316Y441494D01*
X57323Y441500D01*
X57331Y441504D01*
X57476Y441629D01*
X57623Y441754D01*
X57629Y441762D01*
X57636Y441767D01*
X57752Y441918D01*
X57873Y442070D01*
X57877Y442078D01*
X57882Y442085D01*
X57967Y442256D01*
X58055Y442429D01*
X58058Y442438D01*
X58062Y442446D01*
X58111Y442631D01*
X58163Y442817D01*
X58164Y442826D01*
X58166Y442835D01*
X58193Y443165D01*
X58193Y445556D01*
X59001Y447506D01*
X60494Y448999D01*
X60663Y449069D01*
X62444Y449807D01*
X64556Y449807D01*
X66506Y448999D01*
X67999Y447506D01*
X68807Y445556D01*
X68807Y445065D01*
X68809Y445038D01*
X68807Y445011D01*
X68829Y444837D01*
X68847Y444664D01*
X68854Y444639D01*
X68858Y444612D01*
X68913Y444446D01*
X68965Y444279D01*
X68978Y444256D01*
X68986Y444230D01*
X69073Y444079D01*
X69157Y443925D01*
X69174Y443905D01*
X69187Y443881D01*
X69402Y443628D01*
X181357Y331673D01*
X181357Y294530D01*
X181358Y294515D01*
X181357Y294500D01*
X181358Y294489D01*
X181357Y294477D01*
X181379Y294303D01*
X181397Y294130D01*
X181403Y294109D01*
X181404Y294100D01*
X181406Y294095D01*
X181408Y294078D01*
X181463Y293912D01*
X181515Y293745D01*
X181528Y293721D01*
X181536Y293696D01*
X181623Y293544D01*
X181707Y293391D01*
X181724Y293370D01*
X181737Y293347D01*
X181952Y293094D01*
X185929Y289117D01*
X185929Y282383D01*
X181167Y277621D01*
X174433Y277621D01*
X169671Y282383D01*
X169671Y289117D01*
X173648Y293094D01*
X173665Y293115D01*
X173686Y293132D01*
X173793Y293270D01*
X173903Y293406D01*
X173916Y293429D01*
X173932Y293450D01*
X174010Y293607D01*
X174092Y293761D01*
X174098Y293782D01*
X174099Y293783D01*
X174100Y293787D01*
X174112Y293811D01*
X174157Y293980D01*
X174207Y294147D01*
X174208Y294164D01*
X174210Y294170D01*
X174211Y294180D01*
X174216Y294200D01*
X174243Y294530D01*
X174243Y327885D01*
X174241Y327912D01*
X174243Y327939D01*
X174221Y328113D01*
X174203Y328286D01*
X174196Y328311D01*
X174192Y328338D01*
X174137Y328504D01*
X174085Y328671D01*
X174072Y328694D01*
X174064Y328720D01*
X173977Y328871D01*
X173893Y329025D01*
X173876Y329045D01*
X173863Y329069D01*
X173648Y329322D01*
X64372Y438598D01*
X64351Y438615D01*
X64333Y438636D01*
X64196Y438743D01*
X64060Y438853D01*
X64037Y438866D01*
X64015Y438882D01*
X63858Y438960D01*
X63704Y439042D01*
X63679Y439050D01*
X63655Y439062D01*
X63485Y439107D01*
X63319Y439157D01*
X63292Y439159D01*
X63266Y439166D01*
X62935Y439193D01*
X62444Y439193D01*
X60494Y440001D01*
X59574Y440921D01*
X59567Y440927D01*
X59562Y440933D01*
X59412Y441054D01*
X59263Y441176D01*
X59255Y441180D01*
X59248Y441186D01*
X59078Y441274D01*
X58907Y441365D01*
X58898Y441367D01*
X58891Y441371D01*
X58706Y441424D01*
X58521Y441479D01*
X58512Y441480D01*
X58504Y441483D01*
X58313Y441498D01*
X58120Y441516D01*
X58111Y441515D01*
X58102Y441515D01*
X57913Y441493D01*
X57720Y441472D01*
X57711Y441470D01*
X57703Y441469D01*
X57521Y441409D01*
X57336Y441351D01*
X57328Y441347D01*
X57320Y441344D01*
X57153Y441250D01*
X56984Y441156D01*
X56977Y441150D01*
X56969Y441146D01*
X56824Y441021D01*
X56677Y440896D01*
X56671Y440888D01*
X56664Y440883D01*
X56548Y440732D01*
X56427Y440580D01*
X56423Y440572D01*
X56418Y440565D01*
X56333Y440394D01*
X56245Y440221D01*
X56242Y440212D01*
X56238Y440204D01*
X56189Y440019D01*
X56137Y439833D01*
X56136Y439824D01*
X56134Y439815D01*
X56107Y439485D01*
X56107Y438715D01*
X56109Y438688D01*
X56107Y438661D01*
X56129Y438487D01*
X56147Y438314D01*
X56154Y438288D01*
X56158Y438262D01*
X56213Y438096D01*
X56265Y437929D01*
X56278Y437906D01*
X56286Y437880D01*
X56373Y437729D01*
X56457Y437575D01*
X56474Y437555D01*
X56487Y437531D01*
X56702Y437278D01*
X149607Y344373D01*
X149607Y201727D01*
X96723Y148843D01*
X93577Y148843D01*
X93493Y148835D01*
X93409Y148836D01*
X93294Y148815D01*
X93177Y148803D01*
X93096Y148779D01*
X93013Y148763D01*
X92904Y148720D01*
X92792Y148685D01*
X92718Y148645D01*
X92639Y148614D01*
X92541Y148549D01*
X92438Y148493D01*
X92373Y148439D01*
X92302Y148393D01*
X92219Y148311D01*
X92129Y148236D01*
X92076Y148170D01*
X92016Y148111D01*
X91950Y148013D01*
X91876Y147922D01*
X91837Y147847D01*
X91790Y147777D01*
X91745Y147669D01*
X91691Y147565D01*
X91667Y147484D01*
X91635Y147406D01*
X91612Y147291D01*
X91579Y147178D01*
X91572Y147093D01*
X91556Y147011D01*
X91556Y146893D01*
X91547Y146776D01*
X91556Y146693D01*
X91556Y146608D01*
X91580Y146493D01*
X91593Y146377D01*
X91620Y146296D01*
X91636Y146214D01*
X91682Y146105D01*
X91718Y145994D01*
X91760Y145920D01*
X91793Y145842D01*
X91859Y145745D01*
X91916Y145643D01*
X91971Y145579D01*
X92019Y145509D01*
X92103Y145427D01*
X92179Y145339D01*
X92246Y145287D01*
X92306Y145228D01*
X92405Y145164D01*
X92497Y145092D01*
X92573Y145054D01*
X92644Y145008D01*
X92781Y144951D01*
X92858Y144912D01*
X92899Y144901D01*
X92950Y144880D01*
X93042Y144850D01*
X94556Y144079D01*
X95930Y143081D01*
X97131Y141880D01*
X98129Y140506D01*
X98900Y138992D01*
X99353Y137599D01*
X89618Y137599D01*
X89600Y137597D01*
X89583Y137599D01*
X89400Y137578D01*
X89218Y137559D01*
X89201Y137554D01*
X89183Y137552D01*
X89008Y137495D01*
X88908Y137464D01*
X88901Y137468D01*
X88723Y137515D01*
X88548Y137566D01*
X88530Y137568D01*
X88513Y137572D01*
X88182Y137599D01*
X78447Y137599D01*
X78561Y137949D01*
X78588Y138072D01*
X78624Y138193D01*
X78631Y138268D01*
X78647Y138342D01*
X78649Y138468D01*
X78660Y138594D01*
X78652Y138669D01*
X78653Y138745D01*
X78630Y138869D01*
X78617Y138994D01*
X78594Y139066D01*
X78580Y139140D01*
X78533Y139258D01*
X78495Y139378D01*
X78459Y139444D01*
X78431Y139514D01*
X78361Y139620D01*
X78300Y139731D01*
X78252Y139788D01*
X78210Y139851D01*
X78122Y139941D01*
X78040Y140038D01*
X77981Y140084D01*
X77928Y140138D01*
X77823Y140209D01*
X77724Y140287D01*
X77657Y140321D01*
X77594Y140364D01*
X77478Y140412D01*
X77365Y140470D01*
X77292Y140490D01*
X77223Y140519D01*
X77099Y140544D01*
X76977Y140578D01*
X76902Y140583D01*
X76828Y140598D01*
X76702Y140598D01*
X76576Y140607D01*
X76501Y140597D01*
X76425Y140597D01*
X76302Y140572D01*
X76176Y140557D01*
X76105Y140533D01*
X76031Y140518D01*
X75914Y140468D01*
X75795Y140428D01*
X75729Y140391D01*
X75660Y140361D01*
X75555Y140291D01*
X75446Y140227D01*
X75379Y140171D01*
X75327Y140135D01*
X75275Y140083D01*
X75193Y140013D01*
X34124Y98944D01*
X34107Y98923D01*
X34086Y98906D01*
X33979Y98768D01*
X33869Y98632D01*
X33860Y98616D01*
X33859Y98614D01*
X33855Y98607D01*
X33840Y98587D01*
X33762Y98430D01*
X33680Y98276D01*
X33675Y98261D01*
X33673Y98257D01*
X33670Y98247D01*
X33660Y98227D01*
X33615Y98057D01*
X33565Y97891D01*
X33564Y97877D01*
X33562Y97870D01*
X33561Y97857D01*
X33556Y97838D01*
X33529Y97507D01*
X33529Y91883D01*
X28767Y87121D01*
X22033Y87121D01*
G37*
%LPD*%
%LPC*%
G36*
X414597Y320143D02*
X414597Y320143D01*
X408793Y325947D01*
X408793Y334153D01*
X414948Y340309D01*
X414965Y340329D01*
X414986Y340347D01*
X415093Y340485D01*
X415203Y340620D01*
X415216Y340644D01*
X415232Y340665D01*
X415310Y340821D01*
X415392Y340976D01*
X415400Y341001D01*
X415412Y341025D01*
X415457Y341195D01*
X415507Y341362D01*
X415509Y341388D01*
X415516Y341414D01*
X415543Y341745D01*
X415543Y378685D01*
X415541Y378712D01*
X415543Y378739D01*
X415521Y378913D01*
X415503Y379086D01*
X415496Y379111D01*
X415492Y379138D01*
X415437Y379304D01*
X415385Y379471D01*
X415372Y379494D01*
X415364Y379520D01*
X415277Y379671D01*
X415193Y379825D01*
X415176Y379845D01*
X415163Y379869D01*
X414948Y380122D01*
X348372Y446698D01*
X348351Y446715D01*
X348333Y446736D01*
X348196Y446843D01*
X348060Y446953D01*
X348037Y446966D01*
X348015Y446982D01*
X347858Y447060D01*
X347704Y447142D01*
X347679Y447150D01*
X347655Y447162D01*
X347485Y447207D01*
X347319Y447257D01*
X347292Y447259D01*
X347266Y447266D01*
X346935Y447293D01*
X252095Y447293D01*
X252073Y447291D01*
X252051Y447293D01*
X251874Y447271D01*
X251695Y447253D01*
X251673Y447247D01*
X251651Y447244D01*
X251482Y447188D01*
X251310Y447135D01*
X251290Y447125D01*
X251269Y447118D01*
X251114Y447029D01*
X250956Y446943D01*
X250939Y446929D01*
X250919Y446918D01*
X250784Y446800D01*
X250647Y446686D01*
X250633Y446668D01*
X250616Y446654D01*
X250507Y446512D01*
X250394Y446372D01*
X250384Y446352D01*
X250370Y446334D01*
X250219Y446039D01*
X249587Y444513D01*
X246837Y441763D01*
X243244Y440275D01*
X239356Y440275D01*
X235763Y441763D01*
X233013Y444513D01*
X231525Y448106D01*
X231525Y451994D01*
X233013Y455587D01*
X235763Y458337D01*
X239356Y459825D01*
X243244Y459825D01*
X246837Y458337D01*
X249599Y455574D01*
X249662Y455463D01*
X249746Y455306D01*
X249760Y455289D01*
X249771Y455269D01*
X249889Y455133D01*
X250003Y454995D01*
X250020Y454981D01*
X250035Y454964D01*
X250176Y454855D01*
X250315Y454742D01*
X250335Y454731D01*
X250353Y454718D01*
X250513Y454638D01*
X250672Y454555D01*
X250693Y454548D01*
X250713Y454538D01*
X250887Y454492D01*
X251058Y454442D01*
X251080Y454440D01*
X251102Y454434D01*
X251433Y454407D01*
X350723Y454407D01*
X418128Y387002D01*
X418135Y386997D01*
X418140Y386990D01*
X418290Y386869D01*
X418439Y386747D01*
X418447Y386743D01*
X418454Y386737D01*
X418625Y386649D01*
X418795Y386559D01*
X418803Y386556D01*
X418811Y386552D01*
X418997Y386499D01*
X419181Y386444D01*
X419190Y386443D01*
X419198Y386441D01*
X419390Y386425D01*
X419582Y386407D01*
X419591Y386408D01*
X419600Y386408D01*
X419789Y386430D01*
X419982Y386451D01*
X419991Y386454D01*
X419999Y386455D01*
X420181Y386514D01*
X420366Y386572D01*
X420374Y386577D01*
X420382Y386579D01*
X420551Y386674D01*
X420718Y386767D01*
X420725Y386773D01*
X420733Y386777D01*
X420879Y386903D01*
X421025Y387028D01*
X421031Y387035D01*
X421038Y387040D01*
X421155Y387192D01*
X421275Y387344D01*
X421279Y387352D01*
X421284Y387359D01*
X421370Y387531D01*
X421457Y387702D01*
X421460Y387711D01*
X421464Y387719D01*
X421514Y387906D01*
X421565Y388090D01*
X421566Y388099D01*
X421568Y388108D01*
X421595Y388439D01*
X421595Y416262D01*
X422488Y417155D01*
X454912Y417155D01*
X455805Y416262D01*
X455805Y383838D01*
X454912Y382945D01*
X424688Y382945D01*
X424670Y382943D01*
X424652Y382945D01*
X424470Y382924D01*
X424287Y382905D01*
X424270Y382900D01*
X424253Y382898D01*
X424078Y382841D01*
X423902Y382787D01*
X423887Y382779D01*
X423870Y382773D01*
X423710Y382683D01*
X423548Y382595D01*
X423535Y382584D01*
X423519Y382575D01*
X423380Y382455D01*
X423239Y382338D01*
X423228Y382324D01*
X423214Y382312D01*
X423102Y382167D01*
X422987Y382024D01*
X422979Y382008D01*
X422968Y381994D01*
X422886Y381829D01*
X422801Y381667D01*
X422796Y381650D01*
X422788Y381634D01*
X422741Y381455D01*
X422690Y381280D01*
X422688Y381262D01*
X422684Y381245D01*
X422657Y380914D01*
X422657Y340945D01*
X422659Y340918D01*
X422657Y340892D01*
X422679Y340718D01*
X422697Y340544D01*
X422704Y340519D01*
X422708Y340492D01*
X422763Y340326D01*
X422815Y340159D01*
X422828Y340136D01*
X422836Y340110D01*
X422923Y339959D01*
X423007Y339805D01*
X423024Y339785D01*
X423037Y339762D01*
X423252Y339509D01*
X428607Y334153D01*
X428607Y325947D01*
X422803Y320143D01*
X414597Y320143D01*
G37*
%LPD*%
%LPC*%
G36*
X74256Y552125D02*
X74256Y552125D01*
X70663Y553613D01*
X67913Y556363D01*
X66425Y559956D01*
X66425Y563844D01*
X67356Y566091D01*
X67360Y566104D01*
X67366Y566115D01*
X67418Y566296D01*
X67472Y566476D01*
X67473Y566489D01*
X67477Y566502D01*
X67493Y566690D01*
X67510Y566877D01*
X67509Y566890D01*
X67510Y566904D01*
X67488Y567091D01*
X67469Y567277D01*
X67465Y567290D01*
X67463Y567303D01*
X67405Y567483D01*
X67349Y567662D01*
X67342Y567673D01*
X67338Y567686D01*
X67245Y567851D01*
X67156Y568015D01*
X67147Y568025D01*
X67140Y568037D01*
X67017Y568179D01*
X66896Y568323D01*
X66886Y568331D01*
X66877Y568342D01*
X66729Y568457D01*
X66582Y568574D01*
X66570Y568580D01*
X66559Y568588D01*
X66390Y568672D01*
X66223Y568758D01*
X66211Y568762D01*
X66199Y568768D01*
X66016Y568817D01*
X65836Y568868D01*
X65823Y568869D01*
X65810Y568872D01*
X65479Y568899D01*
X48200Y568899D01*
X48199Y568900D01*
X48199Y624900D01*
X48200Y624901D01*
X104200Y624901D01*
X104201Y624900D01*
X104201Y568900D01*
X104200Y568899D01*
X86921Y568899D01*
X86908Y568898D01*
X86894Y568899D01*
X86708Y568878D01*
X86520Y568859D01*
X86507Y568855D01*
X86494Y568854D01*
X86316Y568797D01*
X86135Y568741D01*
X86124Y568735D01*
X86111Y568731D01*
X85947Y568639D01*
X85781Y568549D01*
X85771Y568541D01*
X85759Y568534D01*
X85616Y568412D01*
X85472Y568292D01*
X85464Y568281D01*
X85454Y568273D01*
X85337Y568124D01*
X85220Y567978D01*
X85214Y567966D01*
X85205Y567956D01*
X85121Y567787D01*
X85034Y567621D01*
X85031Y567608D01*
X85025Y567596D01*
X84975Y567414D01*
X84923Y567234D01*
X84922Y567220D01*
X84918Y567207D01*
X84905Y567019D01*
X84890Y566832D01*
X84892Y566819D01*
X84891Y566806D01*
X84915Y566618D01*
X84937Y566433D01*
X84941Y566420D01*
X84943Y566407D01*
X85044Y566091D01*
X85975Y563844D01*
X85975Y559956D01*
X84487Y556363D01*
X81737Y553613D01*
X78144Y552125D01*
X74256Y552125D01*
G37*
%LPD*%
%LPC*%
G36*
X93306Y717225D02*
X93306Y717225D01*
X89713Y718713D01*
X86963Y721463D01*
X85475Y725056D01*
X85475Y728944D01*
X86406Y731191D01*
X86410Y731204D01*
X86416Y731215D01*
X86468Y731396D01*
X86522Y731576D01*
X86523Y731589D01*
X86527Y731602D01*
X86543Y731790D01*
X86560Y731977D01*
X86559Y731990D01*
X86560Y732004D01*
X86538Y732191D01*
X86519Y732377D01*
X86515Y732390D01*
X86513Y732403D01*
X86455Y732583D01*
X86399Y732762D01*
X86392Y732773D01*
X86388Y732786D01*
X86295Y732951D01*
X86206Y733115D01*
X86197Y733125D01*
X86190Y733137D01*
X86067Y733279D01*
X85946Y733423D01*
X85936Y733431D01*
X85927Y733442D01*
X85779Y733557D01*
X85632Y733674D01*
X85620Y733680D01*
X85609Y733688D01*
X85440Y733772D01*
X85273Y733858D01*
X85261Y733862D01*
X85249Y733868D01*
X85066Y733917D01*
X84886Y733968D01*
X84873Y733969D01*
X84860Y733972D01*
X84529Y733999D01*
X67250Y733999D01*
X67249Y734000D01*
X67249Y790000D01*
X67250Y790001D01*
X123250Y790001D01*
X123251Y790000D01*
X123251Y734000D01*
X123250Y733999D01*
X105971Y733999D01*
X105958Y733998D01*
X105944Y733999D01*
X105758Y733978D01*
X105570Y733959D01*
X105557Y733955D01*
X105544Y733954D01*
X105366Y733897D01*
X105185Y733841D01*
X105174Y733835D01*
X105161Y733831D01*
X104997Y733739D01*
X104831Y733649D01*
X104821Y733641D01*
X104809Y733634D01*
X104666Y733512D01*
X104522Y733392D01*
X104514Y733381D01*
X104504Y733373D01*
X104387Y733224D01*
X104270Y733078D01*
X104264Y733066D01*
X104255Y733056D01*
X104171Y732887D01*
X104084Y732721D01*
X104081Y732708D01*
X104075Y732696D01*
X104025Y732514D01*
X103973Y732334D01*
X103972Y732320D01*
X103968Y732307D01*
X103955Y732119D01*
X103940Y731932D01*
X103942Y731919D01*
X103941Y731906D01*
X103965Y731718D01*
X103987Y731533D01*
X103991Y731520D01*
X103993Y731507D01*
X104094Y731191D01*
X105025Y728944D01*
X105025Y725056D01*
X103537Y721463D01*
X100787Y718713D01*
X97194Y717225D01*
X93306Y717225D01*
G37*
%LPD*%
%LPC*%
G36*
X60900Y41849D02*
X60900Y41849D01*
X60899Y41850D01*
X60899Y97850D01*
X60900Y97851D01*
X78179Y97851D01*
X78192Y97852D01*
X78206Y97851D01*
X78392Y97872D01*
X78580Y97891D01*
X78593Y97895D01*
X78606Y97896D01*
X78784Y97953D01*
X78965Y98009D01*
X78976Y98015D01*
X78989Y98019D01*
X79153Y98111D01*
X79319Y98201D01*
X79329Y98209D01*
X79341Y98216D01*
X79484Y98338D01*
X79628Y98458D01*
X79636Y98469D01*
X79646Y98477D01*
X79763Y98626D01*
X79880Y98772D01*
X79886Y98784D01*
X79895Y98794D01*
X79979Y98963D01*
X80066Y99129D01*
X80069Y99142D01*
X80075Y99154D01*
X80125Y99336D01*
X80177Y99516D01*
X80178Y99530D01*
X80182Y99543D01*
X80195Y99731D01*
X80210Y99918D01*
X80208Y99931D01*
X80209Y99944D01*
X80185Y100132D01*
X80163Y100317D01*
X80159Y100330D01*
X80157Y100343D01*
X80056Y100659D01*
X79125Y102906D01*
X79125Y106794D01*
X80613Y110387D01*
X83363Y113137D01*
X86956Y114625D01*
X90844Y114625D01*
X94437Y113137D01*
X97187Y110387D01*
X98675Y106794D01*
X98675Y102906D01*
X97744Y100659D01*
X97740Y100646D01*
X97734Y100635D01*
X97682Y100454D01*
X97628Y100274D01*
X97627Y100261D01*
X97623Y100248D01*
X97607Y100060D01*
X97590Y99873D01*
X97591Y99860D01*
X97590Y99846D01*
X97612Y99659D01*
X97631Y99473D01*
X97635Y99460D01*
X97637Y99447D01*
X97695Y99267D01*
X97751Y99088D01*
X97758Y99077D01*
X97762Y99064D01*
X97855Y98899D01*
X97944Y98735D01*
X97953Y98725D01*
X97960Y98713D01*
X98083Y98571D01*
X98204Y98427D01*
X98214Y98419D01*
X98223Y98408D01*
X98372Y98293D01*
X98518Y98176D01*
X98530Y98170D01*
X98541Y98162D01*
X98710Y98078D01*
X98877Y97992D01*
X98889Y97988D01*
X98901Y97982D01*
X99084Y97933D01*
X99264Y97882D01*
X99277Y97881D01*
X99290Y97878D01*
X99621Y97851D01*
X116900Y97851D01*
X116901Y97850D01*
X116901Y41850D01*
X116900Y41849D01*
X60900Y41849D01*
G37*
%LPD*%
%LPC*%
G36*
X86956Y190175D02*
X86956Y190175D01*
X83363Y191663D01*
X80613Y194413D01*
X79125Y198006D01*
X79125Y201894D01*
X80056Y204141D01*
X80060Y204154D01*
X80066Y204165D01*
X80118Y204346D01*
X80172Y204526D01*
X80173Y204539D01*
X80177Y204552D01*
X80193Y204740D01*
X80210Y204927D01*
X80209Y204940D01*
X80210Y204954D01*
X80188Y205141D01*
X80169Y205327D01*
X80165Y205340D01*
X80163Y205353D01*
X80105Y205532D01*
X80049Y205712D01*
X80042Y205723D01*
X80038Y205736D01*
X79945Y205901D01*
X79856Y206065D01*
X79847Y206075D01*
X79840Y206087D01*
X79717Y206229D01*
X79596Y206373D01*
X79586Y206381D01*
X79577Y206392D01*
X79429Y206507D01*
X79282Y206624D01*
X79270Y206630D01*
X79259Y206638D01*
X79090Y206722D01*
X78923Y206808D01*
X78911Y206812D01*
X78899Y206818D01*
X78716Y206867D01*
X78536Y206918D01*
X78523Y206919D01*
X78510Y206922D01*
X78179Y206949D01*
X60900Y206949D01*
X60899Y206950D01*
X60899Y262950D01*
X60900Y262951D01*
X116900Y262951D01*
X116901Y262950D01*
X116901Y206950D01*
X116900Y206949D01*
X99621Y206949D01*
X99608Y206948D01*
X99594Y206949D01*
X99408Y206928D01*
X99220Y206909D01*
X99207Y206905D01*
X99194Y206904D01*
X99016Y206847D01*
X98835Y206791D01*
X98824Y206785D01*
X98811Y206781D01*
X98647Y206689D01*
X98481Y206599D01*
X98471Y206591D01*
X98459Y206584D01*
X98316Y206462D01*
X98172Y206342D01*
X98164Y206331D01*
X98154Y206323D01*
X98037Y206174D01*
X97920Y206028D01*
X97914Y206016D01*
X97905Y206006D01*
X97821Y205837D01*
X97734Y205671D01*
X97731Y205658D01*
X97725Y205646D01*
X97675Y205464D01*
X97623Y205284D01*
X97622Y205270D01*
X97618Y205257D01*
X97605Y205069D01*
X97590Y204882D01*
X97592Y204869D01*
X97591Y204856D01*
X97615Y204668D01*
X97637Y204483D01*
X97641Y204470D01*
X97643Y204457D01*
X97744Y204141D01*
X98675Y201894D01*
X98675Y198006D01*
X97187Y194413D01*
X94437Y191663D01*
X92314Y190784D01*
X90844Y190175D01*
X86956Y190175D01*
G37*
%LPD*%
%LPC*%
G36*
X365700Y41849D02*
X365700Y41849D01*
X365699Y41850D01*
X365699Y97850D01*
X365700Y97851D01*
X382979Y97851D01*
X382993Y97852D01*
X383006Y97851D01*
X383192Y97872D01*
X383380Y97891D01*
X383393Y97895D01*
X383406Y97896D01*
X383584Y97953D01*
X383765Y98009D01*
X383777Y98015D01*
X383789Y98019D01*
X383953Y98111D01*
X384119Y98201D01*
X384129Y98209D01*
X384141Y98216D01*
X384284Y98339D01*
X384428Y98458D01*
X384436Y98469D01*
X384447Y98477D01*
X384563Y98626D01*
X384680Y98772D01*
X384686Y98784D01*
X384695Y98794D01*
X384780Y98964D01*
X384866Y99129D01*
X384869Y99142D01*
X384876Y99154D01*
X384925Y99336D01*
X384977Y99516D01*
X384978Y99530D01*
X384982Y99543D01*
X384995Y99730D01*
X385010Y99918D01*
X385009Y99931D01*
X385009Y99944D01*
X384985Y100132D01*
X384963Y100317D01*
X384959Y100330D01*
X384957Y100343D01*
X384856Y100659D01*
X383925Y102906D01*
X383925Y106794D01*
X385413Y110387D01*
X388163Y113137D01*
X391756Y114625D01*
X395644Y114625D01*
X399237Y113137D01*
X401987Y110387D01*
X403475Y106794D01*
X403475Y102906D01*
X402544Y100659D01*
X402540Y100646D01*
X402534Y100635D01*
X402482Y100455D01*
X402428Y100274D01*
X402426Y100261D01*
X402423Y100248D01*
X402407Y100060D01*
X402390Y99873D01*
X402391Y99860D01*
X402390Y99846D01*
X402412Y99660D01*
X402431Y99473D01*
X402435Y99460D01*
X402437Y99447D01*
X402495Y99267D01*
X402551Y99088D01*
X402557Y99077D01*
X402562Y99064D01*
X402654Y98900D01*
X402744Y98735D01*
X402753Y98725D01*
X402760Y98713D01*
X402882Y98571D01*
X403004Y98427D01*
X403014Y98419D01*
X403023Y98408D01*
X403171Y98294D01*
X403318Y98176D01*
X403330Y98170D01*
X403341Y98162D01*
X403509Y98078D01*
X403676Y97992D01*
X403689Y97988D01*
X403701Y97982D01*
X403884Y97933D01*
X404064Y97882D01*
X404077Y97881D01*
X404090Y97878D01*
X404421Y97851D01*
X421700Y97851D01*
X421701Y97850D01*
X421701Y41850D01*
X421700Y41849D01*
X365700Y41849D01*
G37*
%LPD*%
%LPC*%
G36*
X239356Y355275D02*
X239356Y355275D01*
X235763Y356763D01*
X233013Y359513D01*
X231525Y363106D01*
X231525Y366994D01*
X232456Y369241D01*
X232460Y369254D01*
X232466Y369265D01*
X232518Y369445D01*
X232572Y369626D01*
X232574Y369639D01*
X232577Y369652D01*
X232593Y369840D01*
X232610Y370027D01*
X232609Y370040D01*
X232610Y370054D01*
X232588Y370240D01*
X232569Y370427D01*
X232565Y370440D01*
X232563Y370453D01*
X232505Y370633D01*
X232449Y370812D01*
X232443Y370823D01*
X232438Y370836D01*
X232346Y371000D01*
X232256Y371165D01*
X232247Y371175D01*
X232240Y371187D01*
X232118Y371329D01*
X231996Y371473D01*
X231986Y371481D01*
X231977Y371492D01*
X231829Y371606D01*
X231682Y371724D01*
X231670Y371730D01*
X231659Y371738D01*
X231491Y371822D01*
X231324Y371908D01*
X231311Y371912D01*
X231299Y371918D01*
X231116Y371967D01*
X230936Y372018D01*
X230923Y372019D01*
X230910Y372022D01*
X230579Y372049D01*
X213300Y372049D01*
X213299Y372050D01*
X213299Y428050D01*
X213300Y428051D01*
X269300Y428051D01*
X269301Y428050D01*
X269301Y372050D01*
X269300Y372049D01*
X252021Y372049D01*
X252007Y372048D01*
X251994Y372049D01*
X251808Y372028D01*
X251620Y372009D01*
X251607Y372005D01*
X251594Y372004D01*
X251416Y371947D01*
X251235Y371891D01*
X251223Y371885D01*
X251211Y371881D01*
X251047Y371789D01*
X250881Y371699D01*
X250871Y371691D01*
X250859Y371684D01*
X250716Y371561D01*
X250572Y371442D01*
X250564Y371431D01*
X250553Y371423D01*
X250437Y371274D01*
X250320Y371128D01*
X250314Y371116D01*
X250305Y371106D01*
X250220Y370936D01*
X250134Y370771D01*
X250131Y370758D01*
X250124Y370746D01*
X250075Y370564D01*
X250023Y370384D01*
X250022Y370370D01*
X250018Y370357D01*
X250005Y370170D01*
X249990Y369982D01*
X249991Y369969D01*
X249991Y369956D01*
X250015Y369768D01*
X250037Y369583D01*
X250041Y369570D01*
X250043Y369557D01*
X250144Y369241D01*
X251075Y366994D01*
X251075Y363106D01*
X249587Y359513D01*
X246837Y356763D01*
X243244Y355275D01*
X239356Y355275D01*
G37*
%LPD*%
%LPC*%
G36*
X213300Y41849D02*
X213300Y41849D01*
X213299Y41850D01*
X213299Y97850D01*
X213300Y97851D01*
X230579Y97851D01*
X230593Y97852D01*
X230606Y97851D01*
X230792Y97872D01*
X230980Y97891D01*
X230993Y97895D01*
X231006Y97896D01*
X231184Y97953D01*
X231365Y98009D01*
X231377Y98015D01*
X231389Y98019D01*
X231553Y98111D01*
X231719Y98201D01*
X231729Y98209D01*
X231741Y98216D01*
X231884Y98339D01*
X232028Y98458D01*
X232036Y98469D01*
X232047Y98477D01*
X232163Y98626D01*
X232280Y98772D01*
X232286Y98784D01*
X232295Y98794D01*
X232380Y98964D01*
X232466Y99129D01*
X232469Y99142D01*
X232476Y99154D01*
X232525Y99336D01*
X232577Y99516D01*
X232578Y99530D01*
X232582Y99543D01*
X232595Y99730D01*
X232610Y99918D01*
X232609Y99931D01*
X232609Y99944D01*
X232585Y100132D01*
X232563Y100317D01*
X232559Y100330D01*
X232557Y100343D01*
X232456Y100659D01*
X231525Y102906D01*
X231525Y106794D01*
X233013Y110387D01*
X235763Y113137D01*
X239356Y114625D01*
X243244Y114625D01*
X246837Y113137D01*
X249587Y110387D01*
X251075Y106794D01*
X251075Y102906D01*
X250144Y100659D01*
X250140Y100646D01*
X250134Y100635D01*
X250082Y100455D01*
X250028Y100274D01*
X250026Y100261D01*
X250023Y100248D01*
X250007Y100060D01*
X249990Y99873D01*
X249991Y99860D01*
X249990Y99846D01*
X250012Y99660D01*
X250031Y99473D01*
X250035Y99460D01*
X250037Y99447D01*
X250095Y99267D01*
X250151Y99088D01*
X250157Y99077D01*
X250162Y99064D01*
X250254Y98900D01*
X250344Y98735D01*
X250353Y98725D01*
X250360Y98713D01*
X250482Y98571D01*
X250604Y98427D01*
X250614Y98419D01*
X250623Y98408D01*
X250771Y98294D01*
X250918Y98176D01*
X250930Y98170D01*
X250941Y98162D01*
X251109Y98078D01*
X251276Y97992D01*
X251289Y97988D01*
X251301Y97982D01*
X251484Y97933D01*
X251664Y97882D01*
X251677Y97881D01*
X251690Y97878D01*
X252021Y97851D01*
X269300Y97851D01*
X269301Y97850D01*
X269301Y41850D01*
X269300Y41849D01*
X213300Y41849D01*
G37*
%LPD*%
%LPC*%
G36*
X239356Y190175D02*
X239356Y190175D01*
X235763Y191663D01*
X233013Y194413D01*
X231525Y198006D01*
X231525Y201894D01*
X232456Y204141D01*
X232460Y204154D01*
X232466Y204165D01*
X232518Y204345D01*
X232572Y204526D01*
X232574Y204539D01*
X232577Y204552D01*
X232593Y204740D01*
X232610Y204927D01*
X232609Y204940D01*
X232610Y204954D01*
X232588Y205140D01*
X232569Y205327D01*
X232565Y205340D01*
X232563Y205353D01*
X232505Y205532D01*
X232449Y205712D01*
X232443Y205723D01*
X232438Y205736D01*
X232346Y205900D01*
X232256Y206065D01*
X232247Y206075D01*
X232240Y206087D01*
X232118Y206229D01*
X231996Y206373D01*
X231986Y206381D01*
X231977Y206392D01*
X231829Y206506D01*
X231682Y206624D01*
X231670Y206630D01*
X231659Y206638D01*
X231491Y206722D01*
X231324Y206808D01*
X231311Y206812D01*
X231299Y206818D01*
X231116Y206867D01*
X230936Y206918D01*
X230923Y206919D01*
X230910Y206922D01*
X230579Y206949D01*
X213300Y206949D01*
X213299Y206950D01*
X213299Y262950D01*
X213300Y262951D01*
X269300Y262951D01*
X269301Y262950D01*
X269301Y206950D01*
X269300Y206949D01*
X252021Y206949D01*
X252007Y206948D01*
X251994Y206949D01*
X251808Y206928D01*
X251620Y206909D01*
X251607Y206905D01*
X251594Y206904D01*
X251416Y206847D01*
X251235Y206791D01*
X251223Y206785D01*
X251211Y206781D01*
X251047Y206689D01*
X250881Y206599D01*
X250871Y206591D01*
X250859Y206584D01*
X250716Y206461D01*
X250572Y206342D01*
X250564Y206331D01*
X250553Y206323D01*
X250437Y206174D01*
X250320Y206028D01*
X250314Y206016D01*
X250305Y206006D01*
X250220Y205836D01*
X250134Y205671D01*
X250131Y205658D01*
X250124Y205646D01*
X250075Y205464D01*
X250023Y205284D01*
X250022Y205270D01*
X250018Y205257D01*
X250005Y205070D01*
X249990Y204882D01*
X249991Y204869D01*
X249991Y204856D01*
X250015Y204668D01*
X250037Y204483D01*
X250041Y204470D01*
X250043Y204457D01*
X250144Y204141D01*
X251075Y201894D01*
X251075Y198006D01*
X249587Y194413D01*
X246837Y191663D01*
X244714Y190784D01*
X243244Y190175D01*
X239356Y190175D01*
G37*
%LPD*%
%LPC*%
G36*
X391756Y190175D02*
X391756Y190175D01*
X388163Y191663D01*
X385413Y194413D01*
X383925Y198006D01*
X383925Y201894D01*
X384856Y204141D01*
X384860Y204154D01*
X384866Y204165D01*
X384918Y204345D01*
X384972Y204526D01*
X384974Y204539D01*
X384977Y204552D01*
X384993Y204740D01*
X385010Y204927D01*
X385009Y204940D01*
X385010Y204954D01*
X384988Y205140D01*
X384969Y205327D01*
X384965Y205340D01*
X384963Y205353D01*
X384905Y205532D01*
X384849Y205712D01*
X384843Y205723D01*
X384838Y205736D01*
X384746Y205900D01*
X384656Y206065D01*
X384647Y206075D01*
X384640Y206087D01*
X384518Y206229D01*
X384396Y206373D01*
X384386Y206381D01*
X384377Y206392D01*
X384229Y206506D01*
X384082Y206624D01*
X384070Y206630D01*
X384059Y206638D01*
X383891Y206722D01*
X383724Y206808D01*
X383711Y206812D01*
X383699Y206818D01*
X383516Y206867D01*
X383336Y206918D01*
X383323Y206919D01*
X383310Y206922D01*
X382979Y206949D01*
X365700Y206949D01*
X365699Y206950D01*
X365699Y262950D01*
X365700Y262951D01*
X421700Y262951D01*
X421701Y262950D01*
X421701Y206950D01*
X421700Y206949D01*
X404421Y206949D01*
X404407Y206948D01*
X404394Y206949D01*
X404208Y206928D01*
X404020Y206909D01*
X404007Y206905D01*
X403994Y206904D01*
X403816Y206847D01*
X403635Y206791D01*
X403623Y206785D01*
X403611Y206781D01*
X403447Y206689D01*
X403281Y206599D01*
X403271Y206591D01*
X403259Y206584D01*
X403116Y206461D01*
X402972Y206342D01*
X402964Y206331D01*
X402953Y206323D01*
X402837Y206174D01*
X402720Y206028D01*
X402714Y206016D01*
X402705Y206006D01*
X402620Y205836D01*
X402534Y205671D01*
X402531Y205658D01*
X402524Y205646D01*
X402475Y205464D01*
X402423Y205284D01*
X402422Y205270D01*
X402418Y205257D01*
X402405Y205070D01*
X402390Y204882D01*
X402391Y204869D01*
X402391Y204856D01*
X402415Y204668D01*
X402437Y204483D01*
X402441Y204470D01*
X402443Y204457D01*
X402544Y204141D01*
X403475Y201894D01*
X403475Y198006D01*
X401987Y194413D01*
X399237Y191663D01*
X397114Y190784D01*
X395644Y190175D01*
X391756Y190175D01*
G37*
%LPD*%
%LPC*%
G36*
X212533Y690371D02*
X212533Y690371D01*
X207771Y695133D01*
X207771Y700757D01*
X207769Y700784D01*
X207771Y700811D01*
X207749Y700985D01*
X207731Y701158D01*
X207724Y701184D01*
X207720Y701210D01*
X207664Y701376D01*
X207613Y701543D01*
X207600Y701567D01*
X207592Y701592D01*
X207505Y701743D01*
X207421Y701897D01*
X207404Y701917D01*
X207391Y701941D01*
X207176Y702194D01*
X195972Y713398D01*
X193293Y716077D01*
X193293Y778735D01*
X193291Y778762D01*
X193293Y778789D01*
X193271Y778962D01*
X193253Y779136D01*
X193246Y779161D01*
X193242Y779188D01*
X193187Y779354D01*
X193135Y779521D01*
X193122Y779544D01*
X193114Y779570D01*
X193027Y779721D01*
X192943Y779875D01*
X192926Y779895D01*
X192913Y779919D01*
X192698Y780172D01*
X176922Y795948D01*
X176901Y795965D01*
X176883Y795986D01*
X176746Y796093D01*
X176610Y796203D01*
X176587Y796216D01*
X176565Y796232D01*
X176408Y796310D01*
X176254Y796392D01*
X176229Y796400D01*
X176205Y796412D01*
X176035Y796457D01*
X175869Y796507D01*
X175842Y796509D01*
X175816Y796516D01*
X175485Y796543D01*
X100127Y796543D01*
X95040Y801630D01*
X95019Y801647D01*
X95002Y801668D01*
X94864Y801775D01*
X94728Y801885D01*
X94705Y801898D01*
X94683Y801914D01*
X94527Y801992D01*
X94373Y802074D01*
X94347Y802082D01*
X94323Y802094D01*
X94154Y802139D01*
X93987Y802189D01*
X93960Y802191D01*
X93934Y802198D01*
X93603Y802225D01*
X93306Y802225D01*
X89713Y803713D01*
X86963Y806463D01*
X85475Y810056D01*
X85475Y813944D01*
X86963Y817537D01*
X89713Y820287D01*
X93306Y821775D01*
X97194Y821775D01*
X100787Y820287D01*
X103537Y817537D01*
X105025Y813944D01*
X105025Y810056D01*
X103538Y806465D01*
X103534Y806452D01*
X103528Y806441D01*
X103476Y806261D01*
X103421Y806080D01*
X103420Y806067D01*
X103416Y806054D01*
X103401Y805866D01*
X103383Y805679D01*
X103384Y805666D01*
X103383Y805652D01*
X103405Y805465D01*
X103425Y805279D01*
X103429Y805266D01*
X103430Y805253D01*
X103489Y805071D01*
X103544Y804894D01*
X103551Y804883D01*
X103555Y804870D01*
X103648Y804705D01*
X103738Y804541D01*
X103746Y804531D01*
X103753Y804519D01*
X103876Y804377D01*
X103997Y804233D01*
X104007Y804225D01*
X104016Y804214D01*
X104165Y804099D01*
X104312Y803982D01*
X104324Y803976D01*
X104334Y803968D01*
X104503Y803884D01*
X104670Y803798D01*
X104683Y803794D01*
X104695Y803788D01*
X104877Y803739D01*
X105057Y803688D01*
X105070Y803687D01*
X105083Y803684D01*
X105414Y803657D01*
X179273Y803657D01*
X200407Y782523D01*
X200407Y719865D01*
X200409Y719838D01*
X200407Y719811D01*
X200429Y719637D01*
X200447Y719464D01*
X200454Y719439D01*
X200458Y719412D01*
X200513Y719246D01*
X200565Y719079D01*
X200578Y719056D01*
X200586Y719030D01*
X200673Y718879D01*
X200757Y718725D01*
X200774Y718705D01*
X200787Y718681D01*
X201002Y718428D01*
X212206Y707224D01*
X212227Y707207D01*
X212244Y707186D01*
X212382Y707079D01*
X212518Y706969D01*
X212541Y706956D01*
X212563Y706940D01*
X212719Y706862D01*
X212873Y706780D01*
X212899Y706772D01*
X212923Y706760D01*
X213092Y706715D01*
X213259Y706665D01*
X213286Y706663D01*
X213312Y706656D01*
X213643Y706629D01*
X219267Y706629D01*
X224029Y701867D01*
X224029Y695133D01*
X219267Y690371D01*
X212533Y690371D01*
G37*
%LPD*%
%LPC*%
G36*
X169186Y529693D02*
X169186Y529693D01*
X168293Y530586D01*
X168293Y543573D01*
X168290Y543604D01*
X168292Y543634D01*
X168270Y543803D01*
X168253Y543974D01*
X168244Y544003D01*
X168240Y544033D01*
X168185Y544195D01*
X168135Y544358D01*
X168121Y544386D01*
X168111Y544415D01*
X168025Y544562D01*
X167943Y544712D01*
X167924Y544736D01*
X167908Y544763D01*
X167693Y545015D01*
X126129Y586254D01*
X126111Y586268D01*
X126096Y586286D01*
X126043Y586327D01*
X124489Y587881D01*
X124487Y587883D01*
X124484Y587886D01*
X123443Y588919D01*
X123443Y590390D01*
X123443Y590394D01*
X123443Y590398D01*
X123435Y592597D01*
X123443Y592702D01*
X123443Y613635D01*
X123441Y613662D01*
X123443Y613689D01*
X123421Y613863D01*
X123403Y614036D01*
X123396Y614061D01*
X123392Y614088D01*
X123337Y614254D01*
X123285Y614421D01*
X123272Y614444D01*
X123264Y614470D01*
X123177Y614621D01*
X123093Y614775D01*
X123076Y614795D01*
X123063Y614819D01*
X122848Y615072D01*
X94372Y643548D01*
X94351Y643565D01*
X94333Y643586D01*
X94196Y643693D01*
X94060Y643803D01*
X94037Y643816D01*
X94015Y643832D01*
X93858Y643910D01*
X93704Y643992D01*
X93679Y644000D01*
X93655Y644012D01*
X93485Y644057D01*
X93319Y644107D01*
X93292Y644109D01*
X93266Y644116D01*
X92935Y644143D01*
X86995Y644143D01*
X86973Y644141D01*
X86951Y644143D01*
X86774Y644121D01*
X86595Y644103D01*
X86573Y644097D01*
X86551Y644094D01*
X86382Y644038D01*
X86210Y643985D01*
X86190Y643975D01*
X86169Y643968D01*
X86014Y643879D01*
X85856Y643793D01*
X85839Y643779D01*
X85819Y643768D01*
X85684Y643650D01*
X85547Y643536D01*
X85533Y643518D01*
X85516Y643504D01*
X85407Y643362D01*
X85294Y643222D01*
X85284Y643202D01*
X85270Y643184D01*
X85119Y642889D01*
X84487Y641363D01*
X81737Y638613D01*
X79433Y637659D01*
X78144Y637125D01*
X74256Y637125D01*
X70663Y638613D01*
X67913Y641363D01*
X66425Y644956D01*
X66425Y648844D01*
X67913Y652437D01*
X70663Y655187D01*
X74256Y656675D01*
X78144Y656675D01*
X81737Y655187D01*
X84499Y652424D01*
X84562Y652313D01*
X84646Y652156D01*
X84660Y652139D01*
X84671Y652119D01*
X84789Y651983D01*
X84903Y651845D01*
X84920Y651831D01*
X84935Y651814D01*
X85076Y651705D01*
X85215Y651592D01*
X85235Y651581D01*
X85253Y651568D01*
X85413Y651488D01*
X85572Y651405D01*
X85593Y651398D01*
X85613Y651388D01*
X85787Y651342D01*
X85958Y651292D01*
X85980Y651290D01*
X86002Y651284D01*
X86333Y651257D01*
X96723Y651257D01*
X130557Y617423D01*
X130557Y592727D01*
X130560Y592697D01*
X130558Y592666D01*
X130580Y592497D01*
X130597Y592327D01*
X130606Y592297D01*
X130610Y592267D01*
X130665Y592105D01*
X130715Y591942D01*
X130729Y591915D01*
X130739Y591886D01*
X130825Y591738D01*
X130907Y591588D01*
X130926Y591564D01*
X130942Y591538D01*
X131157Y591286D01*
X172671Y550096D01*
X172689Y550082D01*
X172704Y550064D01*
X172845Y549955D01*
X172984Y549842D01*
X173004Y549832D01*
X173022Y549818D01*
X173182Y549738D01*
X173340Y549655D01*
X173362Y549649D01*
X173382Y549638D01*
X173556Y549592D01*
X173726Y549542D01*
X173749Y549540D01*
X173771Y549534D01*
X174102Y549507D01*
X187214Y549507D01*
X188107Y548614D01*
X188107Y530586D01*
X187214Y529693D01*
X169186Y529693D01*
G37*
%LPD*%
%LPC*%
G36*
X414597Y485243D02*
X414597Y485243D01*
X408793Y491047D01*
X408793Y499253D01*
X414300Y504761D01*
X414310Y504772D01*
X414321Y504782D01*
X414437Y504928D01*
X414555Y505072D01*
X414562Y505085D01*
X414572Y505097D01*
X414657Y505263D01*
X414744Y505428D01*
X414748Y505442D01*
X414755Y505455D01*
X414806Y505635D01*
X414859Y505814D01*
X414860Y505828D01*
X414864Y505843D01*
X414878Y506028D01*
X414895Y506215D01*
X414894Y506230D01*
X414895Y506244D01*
X414872Y506428D01*
X414852Y506615D01*
X414847Y506629D01*
X414845Y506644D01*
X414787Y506820D01*
X414730Y506999D01*
X414723Y507012D01*
X414718Y507026D01*
X414625Y507188D01*
X414535Y507351D01*
X414526Y507362D01*
X414518Y507375D01*
X414305Y507629D01*
X391186Y530884D01*
X391184Y530886D01*
X391182Y530888D01*
X390139Y531931D01*
X390143Y533400D01*
X390143Y533403D01*
X390143Y533406D01*
X390143Y594585D01*
X390141Y594612D01*
X390143Y594639D01*
X390121Y594813D01*
X390103Y594986D01*
X390096Y595011D01*
X390092Y595038D01*
X390037Y595204D01*
X389985Y595371D01*
X389972Y595394D01*
X389964Y595420D01*
X389877Y595571D01*
X389793Y595725D01*
X389776Y595745D01*
X389763Y595769D01*
X389548Y596022D01*
X359294Y626276D01*
X359273Y626293D01*
X359255Y626314D01*
X359118Y626421D01*
X358982Y626531D01*
X358959Y626544D01*
X358937Y626560D01*
X358780Y626638D01*
X358626Y626720D01*
X358601Y626728D01*
X358577Y626740D01*
X358407Y626785D01*
X358241Y626835D01*
X358214Y626837D01*
X358188Y626844D01*
X357857Y626871D01*
X352233Y626871D01*
X347471Y631633D01*
X347471Y638367D01*
X352233Y643129D01*
X358967Y643129D01*
X363729Y638367D01*
X363729Y632743D01*
X363731Y632716D01*
X363729Y632689D01*
X363751Y632515D01*
X363769Y632342D01*
X363776Y632317D01*
X363780Y632290D01*
X363835Y632124D01*
X363887Y631957D01*
X363900Y631934D01*
X363908Y631908D01*
X363995Y631757D01*
X364079Y631603D01*
X364096Y631583D01*
X364109Y631559D01*
X364324Y631306D01*
X397257Y598373D01*
X397257Y535705D01*
X397259Y535681D01*
X397257Y535658D01*
X397279Y535481D01*
X397297Y535304D01*
X397304Y535282D01*
X397307Y535258D01*
X397363Y535089D01*
X397415Y534919D01*
X397426Y534899D01*
X397434Y534876D01*
X397522Y534721D01*
X397607Y534565D01*
X397622Y534547D01*
X397634Y534527D01*
X397847Y534273D01*
X420053Y511936D01*
X420056Y511933D01*
X420207Y511809D01*
X420363Y511680D01*
X420365Y511679D01*
X420367Y511677D01*
X420404Y511657D01*
X421638Y510343D01*
X421658Y510326D01*
X421679Y510301D01*
X422703Y509270D01*
X422657Y507818D01*
X422659Y507792D01*
X422656Y507760D01*
X422651Y506056D01*
X422654Y506026D01*
X422652Y505997D01*
X422674Y505826D01*
X422690Y505655D01*
X422699Y505627D01*
X422703Y505597D01*
X422757Y505434D01*
X422807Y505270D01*
X422821Y505244D01*
X422831Y505216D01*
X422917Y505067D01*
X422998Y504915D01*
X423017Y504893D01*
X423032Y504867D01*
X423246Y504614D01*
X428607Y499253D01*
X428607Y491047D01*
X422803Y485243D01*
X414597Y485243D01*
G37*
%LPD*%
%LPC*%
G36*
X383247Y682093D02*
X383247Y682093D01*
X377443Y687897D01*
X377443Y696103D01*
X382819Y701479D01*
X382830Y701493D01*
X382844Y701504D01*
X382957Y701648D01*
X383074Y701790D01*
X383082Y701806D01*
X383093Y701820D01*
X383176Y701984D01*
X383262Y702146D01*
X383267Y702163D01*
X383275Y702179D01*
X383325Y702356D01*
X383377Y702532D01*
X383379Y702550D01*
X383383Y702567D01*
X383397Y702750D01*
X383413Y702933D01*
X383412Y702951D01*
X383413Y702968D01*
X383390Y703150D01*
X383370Y703333D01*
X383365Y703350D01*
X383362Y703368D01*
X383304Y703542D01*
X383249Y703717D01*
X383240Y703733D01*
X383234Y703750D01*
X383142Y703909D01*
X383054Y704069D01*
X383042Y704083D01*
X383033Y704098D01*
X382819Y704351D01*
X373772Y713398D01*
X373751Y713415D01*
X373733Y713436D01*
X373596Y713543D01*
X373460Y713653D01*
X373437Y713666D01*
X373415Y713682D01*
X373258Y713760D01*
X373104Y713842D01*
X373079Y713850D01*
X373055Y713862D01*
X372885Y713907D01*
X372719Y713957D01*
X372692Y713959D01*
X372666Y713966D01*
X372335Y713993D01*
X351565Y713993D01*
X351538Y713991D01*
X351511Y713993D01*
X351337Y713971D01*
X351164Y713953D01*
X351139Y713946D01*
X351112Y713942D01*
X350946Y713887D01*
X350779Y713835D01*
X350756Y713822D01*
X350730Y713814D01*
X350579Y713727D01*
X350425Y713643D01*
X350405Y713626D01*
X350381Y713613D01*
X350128Y713398D01*
X331673Y694943D01*
X275480Y694943D01*
X275454Y694941D01*
X275427Y694943D01*
X275253Y694921D01*
X275080Y694903D01*
X275054Y694896D01*
X275028Y694892D01*
X274862Y694837D01*
X274695Y694785D01*
X274671Y694772D01*
X274646Y694764D01*
X274494Y694677D01*
X274341Y694593D01*
X274320Y694576D01*
X274297Y694563D01*
X274044Y694348D01*
X270067Y690371D01*
X263333Y690371D01*
X258571Y695133D01*
X258571Y701867D01*
X263333Y706629D01*
X270067Y706629D01*
X274044Y702652D01*
X274065Y702635D01*
X274082Y702614D01*
X274220Y702507D01*
X274356Y702397D01*
X274379Y702384D01*
X274400Y702368D01*
X274557Y702290D01*
X274711Y702208D01*
X274737Y702200D01*
X274761Y702188D01*
X274930Y702143D01*
X275097Y702093D01*
X275124Y702091D01*
X275150Y702084D01*
X275480Y702057D01*
X327885Y702057D01*
X327912Y702059D01*
X327939Y702057D01*
X328113Y702079D01*
X328286Y702097D01*
X328311Y702104D01*
X328338Y702108D01*
X328504Y702163D01*
X328671Y702215D01*
X328694Y702228D01*
X328720Y702236D01*
X328871Y702323D01*
X329025Y702407D01*
X329045Y702424D01*
X329069Y702437D01*
X329322Y702652D01*
X347777Y721107D01*
X376123Y721107D01*
X390907Y706323D01*
X390907Y703295D01*
X390909Y703268D01*
X390907Y703242D01*
X390929Y703068D01*
X390947Y702894D01*
X390954Y702869D01*
X390958Y702842D01*
X391014Y702676D01*
X391065Y702509D01*
X391078Y702486D01*
X391086Y702460D01*
X391173Y702309D01*
X391257Y702155D01*
X391274Y702135D01*
X391287Y702112D01*
X391502Y701859D01*
X397257Y696103D01*
X397257Y687897D01*
X391453Y682093D01*
X383247Y682093D01*
G37*
%LPD*%
%LPC*%
G36*
X326833Y201421D02*
X326833Y201421D01*
X322071Y206183D01*
X322071Y212917D01*
X326048Y216894D01*
X326065Y216915D01*
X326086Y216932D01*
X326193Y217070D01*
X326303Y217206D01*
X326316Y217229D01*
X326332Y217250D01*
X326410Y217407D01*
X326492Y217561D01*
X326500Y217587D01*
X326512Y217611D01*
X326557Y217780D01*
X326607Y217947D01*
X326609Y217974D01*
X326616Y218000D01*
X326643Y218330D01*
X326643Y242773D01*
X373177Y289307D01*
X383567Y289307D01*
X383590Y289309D01*
X383612Y289307D01*
X383790Y289329D01*
X383968Y289347D01*
X383989Y289353D01*
X384012Y289356D01*
X384182Y289412D01*
X384353Y289465D01*
X384373Y289475D01*
X384394Y289482D01*
X384550Y289571D01*
X384707Y289657D01*
X384724Y289671D01*
X384743Y289682D01*
X384879Y289800D01*
X385016Y289914D01*
X385030Y289932D01*
X385047Y289946D01*
X385156Y290088D01*
X385268Y290228D01*
X385279Y290248D01*
X385292Y290266D01*
X385398Y290472D01*
X388163Y293237D01*
X391756Y294725D01*
X395644Y294725D01*
X399237Y293237D01*
X401987Y290487D01*
X403475Y286894D01*
X403475Y283006D01*
X401987Y279413D01*
X399237Y276663D01*
X395644Y275175D01*
X391756Y275175D01*
X388163Y276663D01*
X385413Y279413D01*
X384781Y280939D01*
X384771Y280959D01*
X384764Y280980D01*
X384676Y281136D01*
X384591Y281294D01*
X384577Y281311D01*
X384566Y281331D01*
X384449Y281466D01*
X384335Y281605D01*
X384317Y281619D01*
X384303Y281636D01*
X384161Y281745D01*
X384022Y281858D01*
X384002Y281869D01*
X383985Y281882D01*
X383824Y281962D01*
X383665Y282045D01*
X383644Y282052D01*
X383624Y282062D01*
X383450Y282108D01*
X383279Y282158D01*
X383257Y282160D01*
X383235Y282166D01*
X382905Y282193D01*
X376965Y282193D01*
X376938Y282191D01*
X376911Y282193D01*
X376737Y282171D01*
X376564Y282153D01*
X376539Y282146D01*
X376512Y282142D01*
X376346Y282087D01*
X376179Y282035D01*
X376156Y282022D01*
X376130Y282014D01*
X375979Y281927D01*
X375825Y281843D01*
X375805Y281826D01*
X375781Y281813D01*
X375528Y281598D01*
X334352Y240422D01*
X334335Y240401D01*
X334314Y240383D01*
X334207Y240246D01*
X334097Y240110D01*
X334084Y240087D01*
X334068Y240065D01*
X333990Y239908D01*
X333908Y239754D01*
X333900Y239729D01*
X333888Y239705D01*
X333843Y239535D01*
X333793Y239369D01*
X333791Y239342D01*
X333784Y239316D01*
X333757Y238985D01*
X333757Y218330D01*
X333759Y218304D01*
X333757Y218277D01*
X333779Y218103D01*
X333797Y217930D01*
X333804Y217904D01*
X333808Y217878D01*
X333863Y217712D01*
X333915Y217545D01*
X333928Y217521D01*
X333936Y217496D01*
X334023Y217344D01*
X334107Y217191D01*
X334124Y217170D01*
X334137Y217147D01*
X334352Y216894D01*
X338329Y212917D01*
X338329Y206183D01*
X333567Y201421D01*
X326833Y201421D01*
G37*
%LPD*%
%LPC*%
G36*
X22033Y201421D02*
X22033Y201421D01*
X17271Y206183D01*
X17271Y212917D01*
X21248Y216894D01*
X21265Y216915D01*
X21286Y216932D01*
X21393Y217070D01*
X21503Y217206D01*
X21516Y217229D01*
X21532Y217250D01*
X21610Y217407D01*
X21692Y217561D01*
X21700Y217587D01*
X21712Y217611D01*
X21757Y217780D01*
X21807Y217947D01*
X21809Y217974D01*
X21816Y218000D01*
X21843Y218330D01*
X21843Y242773D01*
X68377Y289307D01*
X78767Y289307D01*
X78790Y289309D01*
X78812Y289307D01*
X78990Y289329D01*
X79168Y289347D01*
X79189Y289353D01*
X79212Y289356D01*
X79382Y289412D01*
X79553Y289465D01*
X79573Y289475D01*
X79594Y289482D01*
X79750Y289571D01*
X79907Y289657D01*
X79924Y289671D01*
X79943Y289682D01*
X80079Y289800D01*
X80216Y289914D01*
X80230Y289932D01*
X80247Y289946D01*
X80356Y290088D01*
X80468Y290228D01*
X80479Y290248D01*
X80492Y290266D01*
X80598Y290472D01*
X83363Y293237D01*
X86956Y294725D01*
X90844Y294725D01*
X94437Y293237D01*
X97187Y290487D01*
X98675Y286894D01*
X98675Y283006D01*
X97187Y279413D01*
X94437Y276663D01*
X90844Y275175D01*
X86956Y275175D01*
X83363Y276663D01*
X80613Y279413D01*
X79981Y280939D01*
X79971Y280959D01*
X79964Y280980D01*
X79876Y281136D01*
X79791Y281294D01*
X79777Y281311D01*
X79766Y281331D01*
X79649Y281466D01*
X79535Y281605D01*
X79517Y281619D01*
X79503Y281636D01*
X79361Y281745D01*
X79222Y281858D01*
X79202Y281869D01*
X79185Y281882D01*
X79024Y281962D01*
X78865Y282045D01*
X78844Y282052D01*
X78824Y282062D01*
X78650Y282108D01*
X78479Y282158D01*
X78457Y282160D01*
X78435Y282166D01*
X78105Y282193D01*
X72165Y282193D01*
X72138Y282191D01*
X72111Y282193D01*
X71937Y282171D01*
X71764Y282153D01*
X71739Y282146D01*
X71712Y282142D01*
X71546Y282087D01*
X71379Y282035D01*
X71356Y282022D01*
X71330Y282014D01*
X71179Y281927D01*
X71025Y281843D01*
X71005Y281826D01*
X70981Y281813D01*
X70728Y281598D01*
X29552Y240422D01*
X29535Y240401D01*
X29514Y240383D01*
X29407Y240246D01*
X29297Y240110D01*
X29284Y240087D01*
X29268Y240065D01*
X29190Y239908D01*
X29108Y239754D01*
X29100Y239729D01*
X29088Y239705D01*
X29043Y239535D01*
X28993Y239369D01*
X28991Y239342D01*
X28984Y239316D01*
X28957Y238985D01*
X28957Y218330D01*
X28959Y218304D01*
X28957Y218277D01*
X28979Y218103D01*
X28997Y217930D01*
X29004Y217904D01*
X29008Y217878D01*
X29063Y217712D01*
X29115Y217545D01*
X29128Y217521D01*
X29136Y217496D01*
X29223Y217344D01*
X29307Y217191D01*
X29324Y217170D01*
X29337Y217147D01*
X29552Y216894D01*
X33529Y212917D01*
X33529Y206183D01*
X28767Y201421D01*
X22033Y201421D01*
G37*
%LPD*%
%LPC*%
G36*
X174433Y201421D02*
X174433Y201421D01*
X169671Y206183D01*
X169671Y212917D01*
X173648Y216894D01*
X173665Y216915D01*
X173686Y216932D01*
X173793Y217070D01*
X173903Y217206D01*
X173916Y217229D01*
X173932Y217250D01*
X174010Y217407D01*
X174092Y217561D01*
X174100Y217587D01*
X174112Y217611D01*
X174157Y217780D01*
X174207Y217947D01*
X174209Y217974D01*
X174216Y218000D01*
X174243Y218330D01*
X174243Y242773D01*
X220777Y289307D01*
X231167Y289307D01*
X231190Y289309D01*
X231212Y289307D01*
X231390Y289329D01*
X231568Y289347D01*
X231589Y289353D01*
X231612Y289356D01*
X231782Y289412D01*
X231953Y289465D01*
X231973Y289475D01*
X231994Y289482D01*
X232150Y289571D01*
X232307Y289657D01*
X232324Y289671D01*
X232343Y289682D01*
X232479Y289800D01*
X232616Y289914D01*
X232630Y289932D01*
X232647Y289946D01*
X232756Y290088D01*
X232868Y290228D01*
X232879Y290248D01*
X232892Y290266D01*
X232998Y290472D01*
X235763Y293237D01*
X239356Y294725D01*
X243244Y294725D01*
X246837Y293237D01*
X249587Y290487D01*
X251075Y286894D01*
X251075Y283006D01*
X249587Y279413D01*
X246837Y276663D01*
X243244Y275175D01*
X239356Y275175D01*
X235763Y276663D01*
X233013Y279413D01*
X232381Y280939D01*
X232371Y280959D01*
X232364Y280980D01*
X232276Y281136D01*
X232191Y281294D01*
X232177Y281311D01*
X232166Y281331D01*
X232049Y281466D01*
X231935Y281605D01*
X231917Y281619D01*
X231903Y281636D01*
X231761Y281745D01*
X231622Y281858D01*
X231602Y281869D01*
X231585Y281882D01*
X231424Y281962D01*
X231265Y282045D01*
X231244Y282052D01*
X231224Y282062D01*
X231050Y282108D01*
X230879Y282158D01*
X230857Y282160D01*
X230835Y282166D01*
X230505Y282193D01*
X224565Y282193D01*
X224538Y282191D01*
X224511Y282193D01*
X224337Y282171D01*
X224164Y282153D01*
X224139Y282146D01*
X224112Y282142D01*
X223946Y282087D01*
X223779Y282035D01*
X223756Y282022D01*
X223730Y282014D01*
X223579Y281927D01*
X223425Y281843D01*
X223405Y281826D01*
X223381Y281813D01*
X223128Y281598D01*
X181952Y240422D01*
X181935Y240401D01*
X181914Y240383D01*
X181807Y240246D01*
X181697Y240110D01*
X181684Y240087D01*
X181668Y240065D01*
X181590Y239908D01*
X181508Y239754D01*
X181500Y239729D01*
X181488Y239705D01*
X181443Y239535D01*
X181393Y239369D01*
X181391Y239342D01*
X181384Y239316D01*
X181357Y238985D01*
X181357Y218330D01*
X181359Y218304D01*
X181357Y218277D01*
X181379Y218103D01*
X181397Y217930D01*
X181404Y217904D01*
X181408Y217878D01*
X181463Y217712D01*
X181515Y217545D01*
X181528Y217521D01*
X181536Y217496D01*
X181623Y217344D01*
X181707Y217191D01*
X181724Y217170D01*
X181737Y217147D01*
X181952Y216894D01*
X185929Y212917D01*
X185929Y206183D01*
X181167Y201421D01*
X174433Y201421D01*
G37*
%LPD*%
%LPC*%
G36*
X141988Y592495D02*
X141988Y592495D01*
X141095Y593388D01*
X141095Y625812D01*
X141988Y626705D01*
X174412Y626705D01*
X175305Y625812D01*
X175305Y593388D01*
X174412Y592495D01*
X141988Y592495D01*
G37*
%LPD*%
%LPC*%
G36*
X416138Y744895D02*
X416138Y744895D01*
X415245Y745788D01*
X415245Y778212D01*
X416138Y779105D01*
X448562Y779105D01*
X449455Y778212D01*
X449455Y745788D01*
X448562Y744895D01*
X416138Y744895D01*
G37*
%LPD*%
%LPC*%
G36*
X231988Y592495D02*
X231988Y592495D01*
X231095Y593388D01*
X231095Y625812D01*
X231988Y626705D01*
X264412Y626705D01*
X265305Y625812D01*
X265305Y593388D01*
X264412Y592495D01*
X231988Y592495D01*
G37*
%LPD*%
%LPC*%
G36*
X332488Y548045D02*
X332488Y548045D01*
X331595Y548938D01*
X331595Y581362D01*
X332488Y582255D01*
X364912Y582255D01*
X365805Y581362D01*
X365805Y548938D01*
X364912Y548045D01*
X332488Y548045D01*
G37*
%LPD*%
%LPC*%
G36*
X422488Y548045D02*
X422488Y548045D01*
X421595Y548938D01*
X421595Y581362D01*
X422488Y582255D01*
X454912Y582255D01*
X455805Y581362D01*
X455805Y548938D01*
X454912Y548045D01*
X422488Y548045D01*
G37*
%LPD*%
%LPC*%
G36*
X326138Y744895D02*
X326138Y744895D01*
X325245Y745788D01*
X325245Y778212D01*
X326138Y779105D01*
X358562Y779105D01*
X359455Y778212D01*
X359455Y745788D01*
X358562Y744895D01*
X326138Y744895D01*
G37*
%LPD*%
%LPC*%
G36*
X332488Y382945D02*
X332488Y382945D01*
X331595Y383838D01*
X331595Y416262D01*
X332488Y417155D01*
X364912Y417155D01*
X365805Y416262D01*
X365805Y383838D01*
X364912Y382945D01*
X332488Y382945D01*
G37*
%LPD*%
%LPC*%
G36*
X389597Y320143D02*
X389597Y320143D01*
X383793Y325947D01*
X383793Y334153D01*
X389169Y339529D01*
X389180Y339543D01*
X389194Y339554D01*
X389307Y339698D01*
X389424Y339840D01*
X389432Y339856D01*
X389443Y339870D01*
X389526Y340034D01*
X389612Y340196D01*
X389617Y340213D01*
X389625Y340229D01*
X389675Y340406D01*
X389727Y340582D01*
X389729Y340600D01*
X389733Y340617D01*
X389747Y340800D01*
X389763Y340983D01*
X389762Y341001D01*
X389763Y341018D01*
X389740Y341200D01*
X389720Y341383D01*
X389715Y341400D01*
X389712Y341418D01*
X389654Y341592D01*
X389599Y341767D01*
X389590Y341783D01*
X389584Y341800D01*
X389492Y341959D01*
X389404Y342119D01*
X389392Y342133D01*
X389383Y342148D01*
X389169Y342401D01*
X380122Y351448D01*
X380101Y351465D01*
X380083Y351486D01*
X379946Y351593D01*
X379810Y351703D01*
X379787Y351716D01*
X379765Y351732D01*
X379608Y351810D01*
X379454Y351892D01*
X379429Y351900D01*
X379405Y351912D01*
X379235Y351957D01*
X379069Y352007D01*
X379042Y352009D01*
X379016Y352016D01*
X378685Y352043D01*
X296890Y352043D01*
X296863Y352041D01*
X296836Y352043D01*
X296662Y352021D01*
X296489Y352003D01*
X296463Y351996D01*
X296437Y351992D01*
X296271Y351937D01*
X296104Y351885D01*
X296080Y351872D01*
X296055Y351864D01*
X295903Y351777D01*
X295750Y351693D01*
X295729Y351676D01*
X295706Y351663D01*
X295453Y351448D01*
X295106Y351101D01*
X293156Y350293D01*
X291044Y350293D01*
X289094Y351101D01*
X287601Y352594D01*
X286793Y354544D01*
X286793Y356656D01*
X287601Y358606D01*
X289094Y360099D01*
X291044Y360907D01*
X293156Y360907D01*
X295106Y360099D01*
X295453Y359752D01*
X295474Y359735D01*
X295491Y359714D01*
X295629Y359607D01*
X295765Y359497D01*
X295788Y359484D01*
X295809Y359468D01*
X295966Y359390D01*
X296120Y359308D01*
X296146Y359300D01*
X296170Y359288D01*
X296339Y359243D01*
X296506Y359193D01*
X296533Y359191D01*
X296559Y359184D01*
X296890Y359157D01*
X382473Y359157D01*
X397257Y344373D01*
X397257Y341345D01*
X397259Y341318D01*
X397257Y341292D01*
X397279Y341118D01*
X397297Y340944D01*
X397304Y340919D01*
X397308Y340892D01*
X397363Y340726D01*
X397415Y340559D01*
X397428Y340536D01*
X397436Y340510D01*
X397523Y340359D01*
X397607Y340205D01*
X397624Y340185D01*
X397637Y340162D01*
X397852Y339909D01*
X403607Y334153D01*
X403607Y325947D01*
X397803Y320143D01*
X389597Y320143D01*
G37*
%LPD*%
%LPC*%
G36*
X389597Y485243D02*
X389597Y485243D01*
X383793Y491047D01*
X383793Y499253D01*
X389169Y504629D01*
X389180Y504643D01*
X389194Y504654D01*
X389307Y504798D01*
X389424Y504940D01*
X389432Y504956D01*
X389443Y504970D01*
X389526Y505134D01*
X389612Y505296D01*
X389617Y505313D01*
X389625Y505329D01*
X389675Y505506D01*
X389727Y505682D01*
X389729Y505700D01*
X389733Y505717D01*
X389747Y505900D01*
X389763Y506083D01*
X389762Y506101D01*
X389763Y506118D01*
X389740Y506300D01*
X389720Y506483D01*
X389715Y506500D01*
X389712Y506518D01*
X389654Y506692D01*
X389599Y506867D01*
X389590Y506883D01*
X389584Y506900D01*
X389492Y507059D01*
X389404Y507219D01*
X389392Y507233D01*
X389383Y507248D01*
X389169Y507501D01*
X380122Y516548D01*
X380101Y516565D01*
X380083Y516586D01*
X379946Y516693D01*
X379810Y516803D01*
X379787Y516816D01*
X379765Y516832D01*
X379608Y516910D01*
X379454Y516992D01*
X379429Y517000D01*
X379405Y517012D01*
X379235Y517057D01*
X379069Y517107D01*
X379042Y517109D01*
X379016Y517116D01*
X378685Y517143D01*
X326280Y517143D01*
X326254Y517141D01*
X326227Y517143D01*
X326053Y517121D01*
X325880Y517103D01*
X325854Y517096D01*
X325828Y517092D01*
X325662Y517037D01*
X325495Y516985D01*
X325471Y516972D01*
X325446Y516964D01*
X325294Y516877D01*
X325141Y516793D01*
X325120Y516776D01*
X325097Y516763D01*
X324844Y516548D01*
X320867Y512571D01*
X314133Y512571D01*
X309371Y517333D01*
X309371Y524067D01*
X314133Y528829D01*
X320867Y528829D01*
X324844Y524852D01*
X324865Y524835D01*
X324882Y524814D01*
X325020Y524707D01*
X325156Y524597D01*
X325179Y524584D01*
X325200Y524568D01*
X325357Y524490D01*
X325511Y524408D01*
X325537Y524400D01*
X325561Y524388D01*
X325730Y524343D01*
X325897Y524293D01*
X325924Y524291D01*
X325950Y524284D01*
X326280Y524257D01*
X382473Y524257D01*
X397257Y509473D01*
X397257Y506445D01*
X397259Y506418D01*
X397257Y506392D01*
X397279Y506218D01*
X397297Y506044D01*
X397304Y506019D01*
X397308Y505992D01*
X397364Y505826D01*
X397415Y505659D01*
X397428Y505636D01*
X397436Y505610D01*
X397523Y505459D01*
X397607Y505305D01*
X397624Y505285D01*
X397637Y505262D01*
X397852Y505009D01*
X403607Y499253D01*
X403607Y491047D01*
X397803Y485243D01*
X389597Y485243D01*
G37*
%LPD*%
%LPC*%
G36*
X212533Y766571D02*
X212533Y766571D01*
X207771Y771333D01*
X207771Y778067D01*
X212533Y782829D01*
X219267Y782829D01*
X223244Y778852D01*
X223265Y778835D01*
X223282Y778814D01*
X223420Y778707D01*
X223556Y778597D01*
X223579Y778584D01*
X223600Y778568D01*
X223757Y778490D01*
X223911Y778408D01*
X223937Y778400D01*
X223961Y778388D01*
X224130Y778343D01*
X224297Y778293D01*
X224324Y778291D01*
X224350Y778284D01*
X224680Y778257D01*
X232520Y778257D01*
X232546Y778259D01*
X232573Y778257D01*
X232747Y778279D01*
X232920Y778297D01*
X232946Y778304D01*
X232972Y778308D01*
X233138Y778363D01*
X233305Y778415D01*
X233329Y778428D01*
X233354Y778436D01*
X233505Y778523D01*
X233659Y778607D01*
X233680Y778624D01*
X233703Y778637D01*
X233956Y778852D01*
X237148Y782044D01*
X237165Y782065D01*
X237186Y782082D01*
X237293Y782220D01*
X237403Y782356D01*
X237416Y782379D01*
X237432Y782400D01*
X237510Y782557D01*
X237592Y782711D01*
X237600Y782737D01*
X237612Y782761D01*
X237657Y782930D01*
X237707Y783097D01*
X237709Y783124D01*
X237716Y783150D01*
X237743Y783480D01*
X237743Y784970D01*
X237741Y784996D01*
X237743Y785023D01*
X237721Y785197D01*
X237703Y785370D01*
X237696Y785396D01*
X237692Y785422D01*
X237637Y785588D01*
X237585Y785755D01*
X237572Y785779D01*
X237564Y785804D01*
X237477Y785956D01*
X237393Y786109D01*
X237376Y786130D01*
X237363Y786153D01*
X237148Y786406D01*
X233171Y790383D01*
X233171Y797117D01*
X237933Y801879D01*
X244667Y801879D01*
X249429Y797117D01*
X249429Y790383D01*
X245452Y786406D01*
X245435Y786385D01*
X245414Y786368D01*
X245307Y786230D01*
X245197Y786094D01*
X245184Y786071D01*
X245168Y786050D01*
X245090Y785893D01*
X245008Y785739D01*
X245000Y785713D01*
X244988Y785689D01*
X244943Y785520D01*
X244893Y785353D01*
X244891Y785326D01*
X244884Y785300D01*
X244857Y784970D01*
X244857Y783480D01*
X244859Y783454D01*
X244857Y783427D01*
X244879Y783253D01*
X244897Y783080D01*
X244904Y783054D01*
X244908Y783028D01*
X244964Y782862D01*
X245015Y782695D01*
X245028Y782671D01*
X245036Y782646D01*
X245123Y782494D01*
X245207Y782341D01*
X245224Y782320D01*
X245237Y782297D01*
X245452Y782044D01*
X248644Y778852D01*
X248665Y778835D01*
X248682Y778814D01*
X248820Y778708D01*
X248956Y778597D01*
X248979Y778584D01*
X249000Y778568D01*
X249157Y778490D01*
X249311Y778408D01*
X249337Y778400D01*
X249361Y778388D01*
X249530Y778343D01*
X249697Y778293D01*
X249724Y778291D01*
X249750Y778284D01*
X250080Y778257D01*
X257920Y778257D01*
X257946Y778259D01*
X257973Y778257D01*
X258147Y778279D01*
X258320Y778297D01*
X258346Y778304D01*
X258372Y778308D01*
X258538Y778363D01*
X258705Y778415D01*
X258729Y778428D01*
X258754Y778436D01*
X258906Y778523D01*
X259059Y778607D01*
X259080Y778624D01*
X259103Y778637D01*
X259356Y778852D01*
X263333Y782829D01*
X270067Y782829D01*
X274829Y778067D01*
X274829Y771333D01*
X270067Y766571D01*
X263333Y766571D01*
X259356Y770548D01*
X259335Y770565D01*
X259318Y770586D01*
X259180Y770693D01*
X259044Y770803D01*
X259021Y770816D01*
X259000Y770832D01*
X258843Y770910D01*
X258689Y770992D01*
X258663Y771000D01*
X258639Y771012D01*
X258470Y771057D01*
X258303Y771107D01*
X258276Y771109D01*
X258250Y771116D01*
X257920Y771143D01*
X250080Y771143D01*
X250054Y771141D01*
X250027Y771143D01*
X249853Y771121D01*
X249680Y771103D01*
X249654Y771096D01*
X249628Y771092D01*
X249462Y771037D01*
X249295Y770985D01*
X249271Y770972D01*
X249246Y770964D01*
X249094Y770877D01*
X248941Y770793D01*
X248920Y770776D01*
X248897Y770763D01*
X248644Y770548D01*
X244667Y766571D01*
X237933Y766571D01*
X233956Y770548D01*
X233935Y770565D01*
X233918Y770586D01*
X233780Y770693D01*
X233644Y770803D01*
X233621Y770816D01*
X233600Y770832D01*
X233443Y770910D01*
X233289Y770992D01*
X233263Y771000D01*
X233239Y771012D01*
X233070Y771057D01*
X232903Y771107D01*
X232876Y771109D01*
X232850Y771116D01*
X232520Y771143D01*
X224680Y771143D01*
X224654Y771141D01*
X224627Y771143D01*
X224453Y771121D01*
X224280Y771103D01*
X224254Y771096D01*
X224228Y771092D01*
X224062Y771037D01*
X223895Y770985D01*
X223871Y770972D01*
X223846Y770964D01*
X223694Y770877D01*
X223541Y770793D01*
X223520Y770776D01*
X223497Y770763D01*
X223244Y770548D01*
X219267Y766571D01*
X212533Y766571D01*
G37*
%LPD*%
%LPC*%
G36*
X157694Y858293D02*
X157694Y858293D01*
X155744Y859101D01*
X154251Y860594D01*
X153443Y862544D01*
X153443Y864656D01*
X154251Y866606D01*
X155744Y868099D01*
X157143Y868678D01*
X157170Y868693D01*
X157200Y868703D01*
X157348Y868788D01*
X157498Y868868D01*
X157522Y868888D01*
X157549Y868904D01*
X157802Y869119D01*
X187910Y899227D01*
X189590Y899923D01*
X204362Y899923D01*
X204380Y899925D01*
X204398Y899923D01*
X204580Y899944D01*
X204763Y899963D01*
X204780Y899968D01*
X204797Y899970D01*
X204972Y900027D01*
X205148Y900081D01*
X205163Y900089D01*
X205180Y900095D01*
X205340Y900185D01*
X205502Y900273D01*
X205515Y900284D01*
X205531Y900293D01*
X205670Y900413D01*
X205811Y900530D01*
X205822Y900544D01*
X205836Y900556D01*
X205948Y900701D01*
X206063Y900844D01*
X206071Y900860D01*
X206082Y900874D01*
X206164Y901038D01*
X206249Y901201D01*
X206254Y901218D01*
X206262Y901234D01*
X206309Y901413D01*
X206360Y901588D01*
X206362Y901606D01*
X206366Y901623D01*
X206393Y901954D01*
X206393Y904214D01*
X207286Y905107D01*
X225314Y905107D01*
X226207Y904214D01*
X226207Y886186D01*
X225314Y885293D01*
X207286Y885293D01*
X206393Y886186D01*
X206393Y888746D01*
X206391Y888764D01*
X206393Y888782D01*
X206372Y888964D01*
X206353Y889147D01*
X206348Y889164D01*
X206346Y889181D01*
X206289Y889355D01*
X206235Y889532D01*
X206227Y889547D01*
X206221Y889564D01*
X206131Y889724D01*
X206043Y889886D01*
X206032Y889899D01*
X206023Y889915D01*
X205903Y890054D01*
X205786Y890195D01*
X205772Y890206D01*
X205760Y890220D01*
X205615Y890332D01*
X205472Y890447D01*
X205456Y890455D01*
X205442Y890466D01*
X205277Y890548D01*
X205115Y890633D01*
X205098Y890638D01*
X205082Y890646D01*
X204903Y890693D01*
X204728Y890744D01*
X204710Y890746D01*
X204693Y890750D01*
X204362Y890777D01*
X193235Y890777D01*
X193209Y890775D01*
X193182Y890777D01*
X193008Y890755D01*
X192835Y890737D01*
X192809Y890730D01*
X192783Y890726D01*
X192617Y890671D01*
X192450Y890619D01*
X192426Y890606D01*
X192401Y890598D01*
X192249Y890511D01*
X192096Y890427D01*
X192075Y890410D01*
X192052Y890397D01*
X191799Y890182D01*
X164269Y862652D01*
X164249Y862628D01*
X164225Y862607D01*
X164121Y862472D01*
X164013Y862340D01*
X163999Y862313D01*
X163980Y862288D01*
X163828Y861993D01*
X163249Y860594D01*
X161756Y859101D01*
X159806Y858293D01*
X157694Y858293D01*
G37*
%LPD*%
%LPC*%
G36*
X352233Y461771D02*
X352233Y461771D01*
X347471Y466533D01*
X347471Y473267D01*
X352233Y478029D01*
X358052Y478029D01*
X358063Y478030D01*
X358074Y478029D01*
X358263Y478050D01*
X358453Y478069D01*
X358463Y478072D01*
X358474Y478073D01*
X358656Y478131D01*
X358838Y478187D01*
X358847Y478192D01*
X358858Y478195D01*
X359023Y478287D01*
X359192Y478379D01*
X359200Y478386D01*
X359210Y478391D01*
X359466Y478602D01*
X362717Y481754D01*
X362733Y481773D01*
X362752Y481788D01*
X362863Y481926D01*
X362977Y482061D01*
X362989Y482083D01*
X363004Y482102D01*
X363086Y482258D01*
X363171Y482414D01*
X363179Y482438D01*
X363190Y482459D01*
X363239Y482629D01*
X363292Y482798D01*
X363295Y482822D01*
X363301Y482846D01*
X363316Y483022D01*
X363335Y483198D01*
X363332Y483223D01*
X363334Y483248D01*
X363314Y483423D01*
X363297Y483599D01*
X363290Y483623D01*
X363287Y483647D01*
X363232Y483816D01*
X363182Y483985D01*
X363170Y484007D01*
X363162Y484030D01*
X363075Y484184D01*
X362992Y484340D01*
X362977Y484359D01*
X362965Y484381D01*
X362849Y484515D01*
X362737Y484651D01*
X362718Y484667D01*
X362701Y484686D01*
X362562Y484794D01*
X362425Y484906D01*
X362403Y484917D01*
X362383Y484932D01*
X362225Y485011D01*
X362069Y485094D01*
X362045Y485101D01*
X362023Y485112D01*
X361851Y485158D01*
X361683Y485208D01*
X361658Y485210D01*
X361634Y485216D01*
X361303Y485243D01*
X359686Y485243D01*
X358793Y486136D01*
X358793Y504164D01*
X359686Y505057D01*
X377714Y505057D01*
X378607Y504164D01*
X378607Y486136D01*
X377714Y485243D01*
X374298Y485243D01*
X374296Y485243D01*
X374294Y485243D01*
X374096Y485223D01*
X373898Y485203D01*
X373896Y485203D01*
X373894Y485203D01*
X373707Y485145D01*
X373513Y485085D01*
X373511Y485084D01*
X373509Y485084D01*
X373335Y484989D01*
X373159Y484893D01*
X373157Y484892D01*
X373155Y484891D01*
X372998Y484759D01*
X372849Y484636D01*
X372848Y484634D01*
X372846Y484633D01*
X372719Y484473D01*
X372597Y484322D01*
X372596Y484320D01*
X372595Y484319D01*
X372500Y484136D01*
X372411Y483965D01*
X372411Y483963D01*
X372410Y483961D01*
X372354Y483765D01*
X372300Y483578D01*
X372300Y483576D01*
X372299Y483574D01*
X372267Y483243D01*
X372257Y482588D01*
X372258Y482574D01*
X372257Y482557D01*
X372257Y481094D01*
X371207Y480077D01*
X371198Y480066D01*
X371185Y480055D01*
X369819Y478689D01*
X369816Y478686D01*
X369806Y478681D01*
X369550Y478470D01*
X364346Y473425D01*
X364319Y473393D01*
X364286Y473365D01*
X364189Y473239D01*
X364086Y473118D01*
X364066Y473080D01*
X364040Y473047D01*
X363969Y472905D01*
X363892Y472765D01*
X363879Y472724D01*
X363860Y472686D01*
X363819Y472532D01*
X363771Y472381D01*
X363767Y472339D01*
X363756Y472298D01*
X363734Y472025D01*
X363729Y471981D01*
X363729Y471974D01*
X363729Y471967D01*
X363729Y466533D01*
X358967Y461771D01*
X352233Y461771D01*
G37*
%LPD*%
%LPC*%
G36*
X237933Y861821D02*
X237933Y861821D01*
X233171Y866583D01*
X233171Y873317D01*
X237148Y877294D01*
X237165Y877315D01*
X237186Y877332D01*
X237293Y877470D01*
X237403Y877606D01*
X237416Y877629D01*
X237432Y877650D01*
X237510Y877807D01*
X237592Y877961D01*
X237600Y877987D01*
X237612Y878011D01*
X237657Y878180D01*
X237707Y878347D01*
X237709Y878374D01*
X237716Y878400D01*
X237743Y878730D01*
X237743Y883905D01*
X237741Y883932D01*
X237743Y883958D01*
X237721Y884132D01*
X237703Y884306D01*
X237696Y884331D01*
X237692Y884358D01*
X237636Y884524D01*
X237585Y884691D01*
X237572Y884714D01*
X237564Y884740D01*
X237477Y884891D01*
X237393Y885045D01*
X237376Y885065D01*
X237363Y885088D01*
X237148Y885341D01*
X231393Y891097D01*
X231393Y899303D01*
X237197Y905107D01*
X245403Y905107D01*
X251207Y899303D01*
X251207Y891097D01*
X245452Y885341D01*
X245435Y885321D01*
X245414Y885303D01*
X245307Y885165D01*
X245197Y885030D01*
X245184Y885006D01*
X245168Y884985D01*
X245090Y884829D01*
X245008Y884674D01*
X245000Y884649D01*
X244988Y884625D01*
X244943Y884455D01*
X244893Y884288D01*
X244891Y884262D01*
X244884Y884236D01*
X244857Y883905D01*
X244857Y878730D01*
X244859Y878704D01*
X244857Y878677D01*
X244879Y878503D01*
X244897Y878330D01*
X244904Y878304D01*
X244908Y878278D01*
X244963Y878112D01*
X245015Y877945D01*
X245028Y877921D01*
X245036Y877896D01*
X245123Y877744D01*
X245207Y877591D01*
X245224Y877570D01*
X245237Y877547D01*
X245452Y877294D01*
X249429Y873317D01*
X249429Y866583D01*
X244667Y861821D01*
X237933Y861821D01*
G37*
%LPD*%
%LPC*%
G36*
X326833Y277621D02*
X326833Y277621D01*
X322856Y281598D01*
X322835Y281615D01*
X322818Y281636D01*
X322680Y281743D01*
X322544Y281853D01*
X322521Y281866D01*
X322500Y281882D01*
X322343Y281960D01*
X322189Y282042D01*
X322163Y282050D01*
X322139Y282062D01*
X321970Y282107D01*
X321803Y282157D01*
X321776Y282159D01*
X321750Y282166D01*
X321420Y282193D01*
X290540Y282193D01*
X290513Y282191D01*
X290486Y282193D01*
X290312Y282171D01*
X290139Y282153D01*
X290113Y282146D01*
X290087Y282142D01*
X289921Y282087D01*
X289754Y282035D01*
X289730Y282022D01*
X289705Y282014D01*
X289553Y281927D01*
X289400Y281843D01*
X289379Y281826D01*
X289356Y281813D01*
X289103Y281598D01*
X288756Y281251D01*
X286806Y280443D01*
X284694Y280443D01*
X282744Y281251D01*
X281251Y282744D01*
X280443Y284694D01*
X280443Y286806D01*
X281251Y288756D01*
X282744Y290249D01*
X284694Y291057D01*
X286806Y291057D01*
X288756Y290249D01*
X289103Y289902D01*
X289124Y289885D01*
X289141Y289864D01*
X289279Y289757D01*
X289415Y289647D01*
X289438Y289634D01*
X289459Y289618D01*
X289616Y289540D01*
X289770Y289458D01*
X289796Y289450D01*
X289820Y289438D01*
X289989Y289393D01*
X290156Y289343D01*
X290183Y289341D01*
X290209Y289334D01*
X290540Y289307D01*
X321420Y289307D01*
X321446Y289309D01*
X321473Y289307D01*
X321647Y289329D01*
X321820Y289347D01*
X321846Y289354D01*
X321872Y289358D01*
X322038Y289413D01*
X322205Y289465D01*
X322229Y289478D01*
X322254Y289486D01*
X322406Y289573D01*
X322559Y289657D01*
X322580Y289674D01*
X322603Y289687D01*
X322856Y289902D01*
X326833Y293879D01*
X333567Y293879D01*
X338329Y289117D01*
X338329Y282383D01*
X333567Y277621D01*
X326833Y277621D01*
G37*
%LPD*%
%LPC*%
G36*
X288733Y588771D02*
X288733Y588771D01*
X283971Y593533D01*
X283971Y600267D01*
X288733Y605029D01*
X295467Y605029D01*
X299444Y601052D01*
X299465Y601035D01*
X299482Y601014D01*
X299620Y600907D01*
X299756Y600797D01*
X299779Y600784D01*
X299800Y600768D01*
X299957Y600690D01*
X300111Y600608D01*
X300137Y600600D01*
X300161Y600588D01*
X300330Y600543D01*
X300497Y600493D01*
X300524Y600491D01*
X300550Y600484D01*
X300880Y600457D01*
X308720Y600457D01*
X308746Y600459D01*
X308773Y600457D01*
X308947Y600479D01*
X309120Y600497D01*
X309146Y600504D01*
X309172Y600508D01*
X309338Y600563D01*
X309505Y600615D01*
X309529Y600628D01*
X309554Y600636D01*
X309706Y600723D01*
X309859Y600807D01*
X309880Y600824D01*
X309903Y600837D01*
X310156Y601052D01*
X314133Y605029D01*
X320867Y605029D01*
X325629Y600267D01*
X325629Y593533D01*
X320867Y588771D01*
X314133Y588771D01*
X310156Y592748D01*
X310135Y592765D01*
X310118Y592786D01*
X309980Y592893D01*
X309844Y593003D01*
X309821Y593016D01*
X309800Y593032D01*
X309643Y593110D01*
X309489Y593192D01*
X309463Y593200D01*
X309439Y593212D01*
X309270Y593257D01*
X309103Y593307D01*
X309076Y593309D01*
X309050Y593316D01*
X308720Y593343D01*
X300880Y593343D01*
X300854Y593341D01*
X300827Y593343D01*
X300653Y593321D01*
X300480Y593303D01*
X300454Y593296D01*
X300428Y593292D01*
X300262Y593237D01*
X300095Y593185D01*
X300071Y593172D01*
X300046Y593164D01*
X299894Y593077D01*
X299741Y592993D01*
X299720Y592976D01*
X299697Y592963D01*
X299444Y592748D01*
X295467Y588771D01*
X288733Y588771D01*
G37*
%LPD*%
%LPC*%
G36*
X199097Y529693D02*
X199097Y529693D01*
X193293Y535497D01*
X193293Y543703D01*
X199097Y549507D01*
X207303Y549507D01*
X213107Y543703D01*
X213107Y535497D01*
X207303Y529693D01*
X199097Y529693D01*
G37*
%LPD*%
%LPC*%
G36*
X239356Y325275D02*
X239356Y325275D01*
X235763Y326763D01*
X233013Y329513D01*
X231525Y333106D01*
X231525Y336994D01*
X233013Y340587D01*
X235763Y343337D01*
X239356Y344825D01*
X243244Y344825D01*
X246837Y343337D01*
X249587Y340587D01*
X251075Y336994D01*
X251075Y333106D01*
X249587Y329513D01*
X246837Y326763D01*
X243244Y325275D01*
X239356Y325275D01*
G37*
%LPD*%
%LPC*%
G36*
X326833Y87121D02*
X326833Y87121D01*
X322071Y91883D01*
X322071Y98617D01*
X326833Y103379D01*
X333567Y103379D01*
X338329Y98617D01*
X338329Y91883D01*
X333567Y87121D01*
X326833Y87121D01*
G37*
%LPD*%
%LPC*%
G36*
X22033Y277621D02*
X22033Y277621D01*
X17271Y282383D01*
X17271Y289117D01*
X22033Y293879D01*
X28767Y293879D01*
X33529Y289117D01*
X33529Y282383D01*
X28767Y277621D01*
X22033Y277621D01*
G37*
%LPD*%
%LPC*%
G36*
X237933Y690371D02*
X237933Y690371D01*
X233171Y695133D01*
X233171Y701867D01*
X237933Y706629D01*
X244667Y706629D01*
X249429Y701867D01*
X249429Y695133D01*
X244667Y690371D01*
X237933Y690371D01*
G37*
%LPD*%
%LPC*%
G36*
X288733Y512571D02*
X288733Y512571D01*
X283971Y517333D01*
X283971Y524067D01*
X288733Y528829D01*
X295467Y528829D01*
X300229Y524067D01*
X300229Y517333D01*
X295467Y512571D01*
X288733Y512571D01*
G37*
%LPD*%
%LPC*%
G36*
X27939Y821689D02*
X27939Y821689D01*
X27939Y829311D01*
X33820Y829311D01*
X35399Y829061D01*
X36920Y828566D01*
X38345Y827840D01*
X39639Y826900D01*
X40770Y825769D01*
X41710Y824475D01*
X42436Y823050D01*
X42879Y821689D01*
X27939Y821689D01*
G37*
%LPD*%
%LPC*%
G36*
X27939Y808989D02*
X27939Y808989D01*
X27939Y816611D01*
X42879Y816611D01*
X42436Y815250D01*
X41710Y813825D01*
X40770Y812531D01*
X39639Y811400D01*
X38345Y810460D01*
X36920Y809734D01*
X35399Y809239D01*
X33820Y808989D01*
X27939Y808989D01*
G37*
%LPD*%
%LPC*%
G36*
X371449Y332799D02*
X371449Y332799D01*
X371449Y340973D01*
X377417Y340973D01*
X378063Y340800D01*
X378642Y340465D01*
X379115Y339992D01*
X379450Y339413D01*
X379623Y338767D01*
X379623Y332799D01*
X371449Y332799D01*
G37*
%LPD*%
%LPC*%
G36*
X371449Y327301D02*
X371449Y327301D01*
X379623Y327301D01*
X379623Y321333D01*
X379450Y320687D01*
X379115Y320108D01*
X378642Y319635D01*
X378063Y319300D01*
X377417Y319127D01*
X371449Y319127D01*
X371449Y327301D01*
G37*
%LPD*%
%LPC*%
G36*
X357777Y332799D02*
X357777Y332799D01*
X357777Y338767D01*
X357950Y339413D01*
X358285Y339992D01*
X358758Y340465D01*
X359337Y340800D01*
X359983Y340973D01*
X365951Y340973D01*
X365951Y332799D01*
X357777Y332799D01*
G37*
%LPD*%
%LPC*%
G36*
X359983Y319127D02*
X359983Y319127D01*
X359337Y319300D01*
X358758Y319635D01*
X358285Y320108D01*
X357950Y320687D01*
X357777Y321333D01*
X357777Y327301D01*
X365951Y327301D01*
X365951Y319127D01*
X359983Y319127D01*
G37*
%LPD*%
%LPC*%
G36*
X230949Y542349D02*
X230949Y542349D01*
X230949Y550523D01*
X232724Y550523D01*
X239123Y544124D01*
X239123Y542349D01*
X230949Y542349D01*
G37*
%LPD*%
%LPC*%
G36*
X217277Y542349D02*
X217277Y542349D01*
X217277Y544124D01*
X223676Y550523D01*
X225451Y550523D01*
X225451Y542349D01*
X217277Y542349D01*
G37*
%LPD*%
%LPC*%
G36*
X230949Y528677D02*
X230949Y528677D01*
X230949Y536851D01*
X239123Y536851D01*
X239123Y535076D01*
X232724Y528677D01*
X230949Y528677D01*
G37*
%LPD*%
%LPC*%
G36*
X223676Y528677D02*
X223676Y528677D01*
X217277Y535076D01*
X217277Y536851D01*
X225451Y536851D01*
X225451Y528677D01*
X223676Y528677D01*
G37*
%LPD*%
%LPC*%
G36*
X78949Y534649D02*
X78949Y534649D01*
X78949Y542353D01*
X80342Y541900D01*
X81856Y541129D01*
X83230Y540131D01*
X84431Y538930D01*
X85429Y537556D01*
X86200Y536042D01*
X86653Y534649D01*
X78949Y534649D01*
G37*
%LPD*%
%LPC*%
G36*
X97999Y699749D02*
X97999Y699749D01*
X97999Y707453D01*
X99392Y707000D01*
X100906Y706229D01*
X102280Y705231D01*
X103481Y704030D01*
X104479Y702656D01*
X105250Y701142D01*
X105703Y699749D01*
X97999Y699749D01*
G37*
%LPD*%
%LPC*%
G36*
X244049Y172699D02*
X244049Y172699D01*
X244049Y180403D01*
X245442Y179950D01*
X246956Y179179D01*
X248330Y178181D01*
X249531Y176980D01*
X250529Y175606D01*
X251300Y174092D01*
X251753Y172699D01*
X244049Y172699D01*
G37*
%LPD*%
%LPC*%
G36*
X396449Y172699D02*
X396449Y172699D01*
X396449Y180403D01*
X397842Y179950D01*
X399356Y179179D01*
X400730Y178181D01*
X401931Y176980D01*
X402929Y175606D01*
X403700Y174092D01*
X404153Y172699D01*
X396449Y172699D01*
G37*
%LPD*%
%LPC*%
G36*
X91649Y172699D02*
X91649Y172699D01*
X91649Y180403D01*
X93042Y179950D01*
X94556Y179179D01*
X95930Y178181D01*
X97131Y176980D01*
X98129Y175606D01*
X98900Y174092D01*
X99353Y172699D01*
X91649Y172699D01*
G37*
%LPD*%
%LPC*%
G36*
X78447Y172699D02*
X78447Y172699D01*
X78900Y174092D01*
X79671Y175606D01*
X80669Y176980D01*
X81870Y178181D01*
X83244Y179179D01*
X84758Y179950D01*
X86151Y180403D01*
X86151Y172699D01*
X78447Y172699D01*
G37*
%LPD*%
%LPC*%
G36*
X230847Y172699D02*
X230847Y172699D01*
X231300Y174092D01*
X232071Y175606D01*
X233069Y176980D01*
X234270Y178181D01*
X235644Y179179D01*
X237158Y179950D01*
X238551Y180403D01*
X238551Y172699D01*
X230847Y172699D01*
G37*
%LPD*%
%LPC*%
G36*
X65747Y534649D02*
X65747Y534649D01*
X66200Y536042D01*
X66971Y537556D01*
X67969Y538930D01*
X69170Y540131D01*
X70544Y541129D01*
X72058Y541900D01*
X73451Y542353D01*
X73451Y534649D01*
X65747Y534649D01*
G37*
%LPD*%
%LPC*%
G36*
X383247Y172699D02*
X383247Y172699D01*
X383700Y174092D01*
X384471Y175606D01*
X385469Y176980D01*
X386670Y178181D01*
X388044Y179179D01*
X389558Y179950D01*
X390951Y180403D01*
X390951Y172699D01*
X383247Y172699D01*
G37*
%LPD*%
%LPC*%
G36*
X84797Y699749D02*
X84797Y699749D01*
X85250Y701142D01*
X86021Y702656D01*
X87019Y704030D01*
X88220Y705231D01*
X89594Y706229D01*
X91108Y707000D01*
X92501Y707453D01*
X92501Y699749D01*
X84797Y699749D01*
G37*
%LPD*%
%LPC*%
G36*
X396449Y132101D02*
X396449Y132101D01*
X404153Y132101D01*
X403700Y130708D01*
X402929Y129194D01*
X401931Y127820D01*
X400730Y126619D01*
X399356Y125621D01*
X397842Y124850D01*
X396449Y124397D01*
X396449Y132101D01*
G37*
%LPD*%
%LPC*%
G36*
X97999Y694251D02*
X97999Y694251D01*
X105703Y694251D01*
X105250Y692858D01*
X104479Y691344D01*
X103481Y689970D01*
X102280Y688769D01*
X100906Y687771D01*
X99392Y687000D01*
X97999Y686547D01*
X97999Y694251D01*
G37*
%LPD*%
%LPC*%
G36*
X244049Y132101D02*
X244049Y132101D01*
X251753Y132101D01*
X251300Y130708D01*
X250529Y129194D01*
X249531Y127820D01*
X248330Y126619D01*
X246956Y125621D01*
X245442Y124850D01*
X244049Y124397D01*
X244049Y132101D01*
G37*
%LPD*%
%LPC*%
G36*
X78949Y529151D02*
X78949Y529151D01*
X86653Y529151D01*
X86200Y527758D01*
X85429Y526244D01*
X84431Y524870D01*
X83230Y523669D01*
X81856Y522671D01*
X80342Y521900D01*
X78949Y521447D01*
X78949Y529151D01*
G37*
%LPD*%
%LPC*%
G36*
X91649Y132101D02*
X91649Y132101D01*
X99353Y132101D01*
X98900Y130708D01*
X98129Y129194D01*
X97131Y127820D01*
X95930Y126619D01*
X94556Y125621D01*
X93042Y124850D01*
X91649Y124397D01*
X91649Y132101D01*
G37*
%LPD*%
%LPC*%
G36*
X84758Y124850D02*
X84758Y124850D01*
X83244Y125621D01*
X81870Y126619D01*
X80669Y127820D01*
X79671Y129194D01*
X78900Y130708D01*
X78447Y132101D01*
X86151Y132101D01*
X86151Y124397D01*
X84758Y124850D01*
G37*
%LPD*%
%LPC*%
G36*
X389558Y124850D02*
X389558Y124850D01*
X388044Y125621D01*
X386670Y126619D01*
X385469Y127820D01*
X384471Y129194D01*
X383700Y130708D01*
X383247Y132101D01*
X390951Y132101D01*
X390951Y124397D01*
X389558Y124850D01*
G37*
%LPD*%
%LPC*%
G36*
X91108Y687000D02*
X91108Y687000D01*
X89594Y687771D01*
X88220Y688769D01*
X87019Y689970D01*
X86021Y691344D01*
X85250Y692858D01*
X84797Y694251D01*
X92501Y694251D01*
X92501Y686547D01*
X91108Y687000D01*
G37*
%LPD*%
%LPC*%
G36*
X72058Y521900D02*
X72058Y521900D01*
X70544Y522671D01*
X69170Y523669D01*
X67969Y524870D01*
X66971Y526244D01*
X66200Y527758D01*
X65747Y529151D01*
X73451Y529151D01*
X73451Y521447D01*
X72058Y521900D01*
G37*
%LPD*%
%LPC*%
G36*
X237158Y124850D02*
X237158Y124850D01*
X235644Y125621D01*
X234270Y126619D01*
X233069Y127820D01*
X232071Y129194D01*
X231300Y130708D01*
X230847Y132101D01*
X238551Y132101D01*
X238551Y124397D01*
X237158Y124850D01*
G37*
%LPD*%
D10*
X33020Y793750D02*
X17780Y793750D01*
X17780Y819150D02*
X33020Y819150D01*
X33020Y844550D02*
X17780Y844550D01*
D11*
X216300Y895200D03*
D12*
X241300Y895200D03*
X266300Y895200D03*
D13*
X286300Y965200D03*
X196300Y965200D03*
D11*
X362350Y692000D03*
D12*
X387350Y692000D03*
X412350Y692000D03*
D13*
X432350Y762000D03*
X342350Y762000D03*
D11*
X368700Y495150D03*
D12*
X393700Y495150D03*
X418700Y495150D03*
D13*
X438700Y565150D03*
X348700Y565150D03*
D14*
X241300Y869950D03*
X241300Y793750D03*
D15*
X266700Y698500D03*
X266700Y774700D03*
D14*
X177800Y95250D03*
X177800Y19050D03*
D16*
X95250Y812000D03*
X95250Y727000D03*
X95250Y697000D03*
X241300Y450050D03*
X241300Y365050D03*
X241300Y335050D03*
X241300Y19850D03*
X241300Y104850D03*
X241300Y134850D03*
X393700Y19850D03*
X393700Y104850D03*
X393700Y134850D03*
X88900Y284950D03*
X88900Y199950D03*
X88900Y169950D03*
X88900Y19850D03*
X88900Y104850D03*
X88900Y134850D03*
X393700Y284950D03*
X393700Y199950D03*
X393700Y169950D03*
X241300Y284950D03*
X241300Y199950D03*
X241300Y169950D03*
D15*
X215900Y698500D03*
X215900Y774700D03*
D14*
X330200Y95250D03*
X330200Y19050D03*
X25400Y285750D03*
X25400Y209550D03*
X25400Y95250D03*
X25400Y19050D03*
X177800Y285750D03*
X177800Y209550D03*
D15*
X317500Y520700D03*
X317500Y596900D03*
D16*
X76200Y646900D03*
X76200Y561900D03*
X76200Y531900D03*
D11*
X178200Y539600D03*
D12*
X203200Y539600D03*
X228200Y539600D03*
D13*
X248200Y609600D03*
X158200Y609600D03*
D15*
X241300Y698500D03*
X241300Y774700D03*
D11*
X368700Y330050D03*
D12*
X393700Y330050D03*
X418700Y330050D03*
D13*
X438700Y400050D03*
X348700Y400050D03*
D15*
X292100Y520700D03*
X292100Y596900D03*
D17*
X355600Y635000D03*
X431800Y635000D03*
D18*
X431800Y469900D03*
X355600Y469900D03*
D14*
X330200Y285750D03*
X330200Y209550D03*
D10*
X33020Y882650D02*
X17780Y882650D01*
X17780Y908050D02*
X33020Y908050D01*
X33020Y933450D02*
X17780Y933450D01*
X17780Y958850D02*
X33020Y958850D01*
X449580Y927100D02*
X464820Y927100D01*
X464820Y901700D02*
X449580Y901700D01*
X449580Y876300D02*
X464820Y876300D01*
X464820Y850900D02*
X449580Y850900D01*
D19*
X25400Y793750D02*
X25400Y736600D01*
X362350Y692000D02*
X362350Y673100D01*
X88900Y673100D02*
X25400Y736600D01*
X88900Y673100D02*
X158750Y673100D01*
X362350Y673100D01*
X216300Y895200D02*
X215900Y895350D01*
X190500Y895350D01*
X158750Y863600D01*
X362350Y673100D02*
X412750Y622300D01*
X412750Y533400D01*
X444500Y482600D02*
X431800Y469900D01*
X444500Y501650D02*
X412750Y533400D01*
X444500Y501650D02*
X444500Y482600D01*
D20*
X158750Y673100D03*
X158750Y863600D03*
D19*
X266700Y844550D02*
X25400Y844550D01*
X266700Y844550D02*
X368300Y844550D01*
X406400Y806450D01*
X406400Y698350D01*
X412350Y692000D01*
X431800Y672950D01*
X431800Y635000D01*
X266700Y895200D02*
X266300Y895200D01*
X266700Y895200D02*
X266700Y844550D01*
D21*
X241300Y869950D02*
X241300Y895200D01*
X349250Y717550D02*
X374650Y717550D01*
X349250Y717550D02*
X330200Y698500D01*
X266700Y698500D01*
X387350Y704850D02*
X387350Y692000D01*
X387350Y704850D02*
X374650Y717550D01*
X241300Y774700D02*
X241300Y793750D01*
X241300Y774700D02*
X215900Y774700D01*
X241300Y774700D02*
X266700Y774700D01*
X400050Y850900D02*
X457200Y850900D01*
X400050Y850900D02*
X381000Y869950D01*
X285750Y869950D01*
D20*
X285750Y869950D03*
D21*
X95250Y812000D02*
X95250Y806450D01*
X196850Y717550D02*
X215900Y698500D01*
X196850Y717550D02*
X196850Y781050D01*
X177800Y800100D01*
X101600Y800100D01*
X95250Y806450D01*
X241300Y19850D02*
X241300Y19050D01*
X177800Y19050D01*
X393700Y19050D02*
X393700Y19850D01*
X393700Y19050D02*
X330200Y19050D01*
X25400Y209550D02*
X25400Y241300D01*
X69850Y285750D01*
X88900Y285750D01*
X88900Y284950D01*
X88900Y19850D02*
X25400Y19850D01*
X25400Y19050D01*
X222250Y285750D02*
X241300Y285750D01*
X241300Y284950D01*
X177800Y241300D02*
X177800Y209550D01*
X177800Y241300D02*
X222250Y285750D01*
X469900Y787400D02*
X425450Y831850D01*
X234950Y152400D02*
X177800Y95250D01*
X469900Y215900D02*
X469900Y787400D01*
X469900Y215900D02*
X406400Y152400D01*
X234950Y152400D01*
D20*
X425450Y831850D03*
X304800Y901700D03*
D21*
X457200Y901700D01*
X76200Y882650D02*
X25400Y882650D01*
D20*
X76200Y882650D03*
D21*
X82550Y152400D02*
X25400Y95250D01*
X82550Y152400D02*
X95250Y152400D01*
X146050Y203200D01*
X146050Y342900D01*
X50800Y438150D01*
D20*
X50800Y438150D03*
D21*
X25400Y933450D02*
X76200Y933450D01*
D20*
X76200Y933450D03*
X285750Y285750D03*
D21*
X330200Y285750D01*
X63500Y908050D02*
X25400Y908050D01*
D20*
X63500Y908050D03*
X63500Y444500D03*
D21*
X177800Y330200D01*
X177800Y285750D01*
X317500Y520700D02*
X381000Y520700D01*
X393700Y508000D01*
X393700Y495150D01*
X418700Y330050D02*
X419100Y330050D01*
X419100Y381000D01*
X349250Y450850D02*
X241300Y450850D01*
X241300Y450050D01*
X349250Y450850D02*
X419100Y381000D01*
X317500Y596900D02*
X292100Y596900D01*
X76200Y646900D02*
X76200Y647700D01*
X95250Y647700D01*
X127000Y615950D01*
X127000Y590400D02*
X178200Y539600D01*
X127000Y590400D02*
X127000Y615950D01*
X393700Y342900D02*
X393700Y330050D01*
X393700Y342900D02*
X381000Y355600D01*
X292100Y355600D01*
D20*
X292100Y355600D03*
D21*
X393700Y596900D02*
X355600Y635000D01*
X393700Y596900D02*
X393700Y533400D01*
X419100Y507850D01*
X418700Y495150D01*
X368700Y495150D02*
X368700Y482600D01*
X355600Y469900D01*
X374650Y285750D02*
X393700Y285750D01*
X393726Y285701D01*
X393749Y285650D01*
X393768Y285597D01*
X393783Y285544D01*
X393795Y285489D01*
X393803Y285434D01*
X393807Y285378D01*
X393807Y285322D01*
X393803Y285266D01*
X393795Y285211D01*
X393783Y285156D01*
X393768Y285103D01*
X393749Y285050D01*
X393726Y284999D01*
X393700Y284950D01*
X330200Y241300D02*
X330200Y209550D01*
X330200Y241300D02*
X374650Y285750D01*
M02*
