G04 EAGLE Gerber RS-274X export*
G75*
%MOMM*%
%FSLAX34Y34*%
%LPD*%
%INSoldermask Bottom*%
%IPPOS*%
%AMOC8*
5,1,8,0,0,1.08239X$1,22.5*%
G01*
%ADD10C,3.403600*%
%ADD11C,1.727200*%
%ADD12R,1.879600X1.879600*%
%ADD13P,2.034460X8X292.500000*%
%ADD14R,3.319200X3.319200*%
%ADD15P,1.649562X8X292.500000*%
%ADD16P,1.649562X8X112.500000*%
%ADD17C,1.853200*%
%ADD18P,1.649562X8X22.500000*%
%ADD19P,1.649562X8X202.500000*%
%ADD20C,0.959600*%


D10*
X31750Y152400D03*
X450850Y152400D03*
D11*
X33020Y793750D02*
X17780Y793750D01*
X17780Y819150D02*
X33020Y819150D01*
X33020Y844550D02*
X17780Y844550D01*
D12*
X216300Y895200D03*
D13*
X241300Y895200D03*
X266300Y895200D03*
D14*
X286300Y965200D03*
X196300Y965200D03*
D12*
X362350Y692000D03*
D13*
X387350Y692000D03*
X412350Y692000D03*
D14*
X432350Y762000D03*
X342350Y762000D03*
D12*
X368700Y495150D03*
D13*
X393700Y495150D03*
X418700Y495150D03*
D14*
X438700Y565150D03*
X348700Y565150D03*
D15*
X241300Y869950D03*
X241300Y793750D03*
D16*
X266700Y698500D03*
X266700Y774700D03*
D15*
X177800Y95250D03*
X177800Y19050D03*
D17*
X95250Y812000D03*
X95250Y727000D03*
X95250Y697000D03*
X241300Y450050D03*
X241300Y365050D03*
X241300Y335050D03*
X241300Y19850D03*
X241300Y104850D03*
X241300Y134850D03*
X393700Y19850D03*
X393700Y104850D03*
X393700Y134850D03*
X88900Y284950D03*
X88900Y199950D03*
X88900Y169950D03*
X88900Y19850D03*
X88900Y104850D03*
X88900Y134850D03*
X393700Y284950D03*
X393700Y199950D03*
X393700Y169950D03*
X241300Y284950D03*
X241300Y199950D03*
X241300Y169950D03*
D16*
X215900Y698500D03*
X215900Y774700D03*
D15*
X330200Y95250D03*
X330200Y19050D03*
X25400Y285750D03*
X25400Y209550D03*
X25400Y95250D03*
X25400Y19050D03*
X177800Y285750D03*
X177800Y209550D03*
D16*
X317500Y520700D03*
X317500Y596900D03*
D17*
X76200Y646900D03*
X76200Y561900D03*
X76200Y531900D03*
D12*
X178200Y539600D03*
D13*
X203200Y539600D03*
X228200Y539600D03*
D14*
X248200Y609600D03*
X158200Y609600D03*
D16*
X241300Y698500D03*
X241300Y774700D03*
D12*
X368700Y330050D03*
D13*
X393700Y330050D03*
X418700Y330050D03*
D14*
X438700Y400050D03*
X348700Y400050D03*
D16*
X292100Y520700D03*
X292100Y596900D03*
D18*
X355600Y635000D03*
X431800Y635000D03*
D19*
X431800Y469900D03*
X355600Y469900D03*
D15*
X330200Y285750D03*
X330200Y209550D03*
D11*
X33020Y882650D02*
X17780Y882650D01*
X17780Y908050D02*
X33020Y908050D01*
X33020Y933450D02*
X17780Y933450D01*
X17780Y958850D02*
X33020Y958850D01*
X449580Y927100D02*
X464820Y927100D01*
X464820Y901700D02*
X449580Y901700D01*
X449580Y876300D02*
X464820Y876300D01*
X464820Y850900D02*
X449580Y850900D01*
D20*
X158750Y673100D03*
X158750Y863600D03*
X285750Y869950D03*
X425450Y831850D03*
X304800Y901700D03*
X76200Y882650D03*
X50800Y438150D03*
X76200Y933450D03*
X285750Y285750D03*
X63500Y908050D03*
X63500Y444500D03*
X292100Y355600D03*
M02*
