M48
;GenerationSoftware,Autodesk,EAGLE,9.6.2*%
;CreationDate,2022-05-04T14:03:59Z*%
FMAT,2
ICI,OFF
METRIC,TZ,000.000
T6C0.350
T5C0.813
T4C1.016
T3C1.100
T2C2.100
T1C3.200
%
G90
M71
T1
X45085Y15240
X3175Y15240
T2
X34870Y56515
X34870Y40005
X43870Y40005
X43870Y56515
X34235Y76200
X43235Y76200
X15820Y60960
X24820Y60960
X19630Y96520
X28630Y96520
T3
X7620Y53190
X17820Y53960
X7620Y56190
X7620Y64690
X24130Y16995
X21630Y89520
X24130Y89520
X26630Y89520
X20320Y53960
X22820Y53960
X36235Y69200
X38735Y69200
X41235Y69200
X36870Y33005
X39370Y33005
X36870Y49515
X39370Y49515
X41870Y49515
X41870Y33005
X8890Y16995
X24130Y19995
X24130Y28495
X39370Y16995
X39370Y19995
X39370Y28495
X8890Y13485
X9525Y81200
X9525Y72700
X9525Y69700
X24130Y45005
X24130Y36505
X24130Y33505
X24130Y1985
X24130Y10485
X24130Y13485
X39370Y1985
X39370Y10485
X39370Y13485
X8890Y28495
X8890Y19995
X8890Y10485
X8890Y1985
T4
X45720Y85090
X2540Y81915
X2540Y88265
X2540Y90805
X2540Y93345
X2540Y95885
X45720Y92710
X2540Y84455
X45720Y90170
X45720Y87630
X2540Y79375
T5
X33020Y1905
X2540Y28575
X2540Y20955
X2540Y9525
X2540Y1905
X17780Y28575
X17780Y20955
X31750Y52070
X31750Y59690
X17780Y1905
X33020Y9525
X21590Y77470
X21590Y69850
X24130Y86995
X24130Y79375
X26670Y69850
X26670Y77470
X24130Y69850
X24130Y77470
X17780Y9525
X33020Y20955
X33020Y28575
X35560Y46990
X43180Y46990
X29210Y52070
X29210Y59690
X35560Y63500
X43180Y63500
T6
X15875Y86360
X28575Y86995
X42545Y83185
X30480Y90170
X7620Y88265
X5080Y43815
X7620Y93345
X28575Y28575
X6350Y90805
X6350Y44450
X29210Y35560
X15875Y67310
M30