G04 EAGLE Gerber RS-274X export*
G75*
%MOMM*%
%FSLAX34Y34*%
%LPD*%
%INBoard Outline*%
%IPPOS*%
%AMOC8*
5,1,8,0,0,1.08239X$1,22.5*%
G01*
%ADD10C,0.000000*%
%ADD11C,0.254000*%


D10*
X0Y0D02*
X482600Y0D01*
X482600Y990600D01*
X0Y990600D01*
X0Y0D01*
X15748Y152400D02*
X15753Y152793D01*
X15767Y153185D01*
X15791Y153577D01*
X15825Y153968D01*
X15868Y154359D01*
X15921Y154748D01*
X15984Y155136D01*
X16055Y155522D01*
X16137Y155906D01*
X16228Y156288D01*
X16328Y156668D01*
X16437Y157045D01*
X16556Y157420D01*
X16683Y157791D01*
X16820Y158159D01*
X16966Y158524D01*
X17121Y158885D01*
X17284Y159242D01*
X17457Y159595D01*
X17637Y159943D01*
X17827Y160287D01*
X18025Y160627D01*
X18231Y160961D01*
X18445Y161290D01*
X18667Y161614D01*
X18897Y161932D01*
X19135Y162245D01*
X19380Y162552D01*
X19633Y162852D01*
X19893Y163146D01*
X20161Y163434D01*
X20435Y163715D01*
X20716Y163989D01*
X21004Y164257D01*
X21298Y164517D01*
X21598Y164770D01*
X21905Y165015D01*
X22218Y165253D01*
X22536Y165483D01*
X22860Y165705D01*
X23189Y165919D01*
X23523Y166125D01*
X23863Y166323D01*
X24207Y166513D01*
X24555Y166693D01*
X24908Y166866D01*
X25265Y167029D01*
X25626Y167184D01*
X25991Y167330D01*
X26359Y167467D01*
X26730Y167594D01*
X27105Y167713D01*
X27482Y167822D01*
X27862Y167922D01*
X28244Y168013D01*
X28628Y168095D01*
X29014Y168166D01*
X29402Y168229D01*
X29791Y168282D01*
X30182Y168325D01*
X30573Y168359D01*
X30965Y168383D01*
X31357Y168397D01*
X31750Y168402D01*
X32143Y168397D01*
X32535Y168383D01*
X32927Y168359D01*
X33318Y168325D01*
X33709Y168282D01*
X34098Y168229D01*
X34486Y168166D01*
X34872Y168095D01*
X35256Y168013D01*
X35638Y167922D01*
X36018Y167822D01*
X36395Y167713D01*
X36770Y167594D01*
X37141Y167467D01*
X37509Y167330D01*
X37874Y167184D01*
X38235Y167029D01*
X38592Y166866D01*
X38945Y166693D01*
X39293Y166513D01*
X39637Y166323D01*
X39977Y166125D01*
X40311Y165919D01*
X40640Y165705D01*
X40964Y165483D01*
X41282Y165253D01*
X41595Y165015D01*
X41902Y164770D01*
X42202Y164517D01*
X42496Y164257D01*
X42784Y163989D01*
X43065Y163715D01*
X43339Y163434D01*
X43607Y163146D01*
X43867Y162852D01*
X44120Y162552D01*
X44365Y162245D01*
X44603Y161932D01*
X44833Y161614D01*
X45055Y161290D01*
X45269Y160961D01*
X45475Y160627D01*
X45673Y160287D01*
X45863Y159943D01*
X46043Y159595D01*
X46216Y159242D01*
X46379Y158885D01*
X46534Y158524D01*
X46680Y158159D01*
X46817Y157791D01*
X46944Y157420D01*
X47063Y157045D01*
X47172Y156668D01*
X47272Y156288D01*
X47363Y155906D01*
X47445Y155522D01*
X47516Y155136D01*
X47579Y154748D01*
X47632Y154359D01*
X47675Y153968D01*
X47709Y153577D01*
X47733Y153185D01*
X47747Y152793D01*
X47752Y152400D01*
X47747Y152007D01*
X47733Y151615D01*
X47709Y151223D01*
X47675Y150832D01*
X47632Y150441D01*
X47579Y150052D01*
X47516Y149664D01*
X47445Y149278D01*
X47363Y148894D01*
X47272Y148512D01*
X47172Y148132D01*
X47063Y147755D01*
X46944Y147380D01*
X46817Y147009D01*
X46680Y146641D01*
X46534Y146276D01*
X46379Y145915D01*
X46216Y145558D01*
X46043Y145205D01*
X45863Y144857D01*
X45673Y144513D01*
X45475Y144173D01*
X45269Y143839D01*
X45055Y143510D01*
X44833Y143186D01*
X44603Y142868D01*
X44365Y142555D01*
X44120Y142248D01*
X43867Y141948D01*
X43607Y141654D01*
X43339Y141366D01*
X43065Y141085D01*
X42784Y140811D01*
X42496Y140543D01*
X42202Y140283D01*
X41902Y140030D01*
X41595Y139785D01*
X41282Y139547D01*
X40964Y139317D01*
X40640Y139095D01*
X40311Y138881D01*
X39977Y138675D01*
X39637Y138477D01*
X39293Y138287D01*
X38945Y138107D01*
X38592Y137934D01*
X38235Y137771D01*
X37874Y137616D01*
X37509Y137470D01*
X37141Y137333D01*
X36770Y137206D01*
X36395Y137087D01*
X36018Y136978D01*
X35638Y136878D01*
X35256Y136787D01*
X34872Y136705D01*
X34486Y136634D01*
X34098Y136571D01*
X33709Y136518D01*
X33318Y136475D01*
X32927Y136441D01*
X32535Y136417D01*
X32143Y136403D01*
X31750Y136398D01*
X31357Y136403D01*
X30965Y136417D01*
X30573Y136441D01*
X30182Y136475D01*
X29791Y136518D01*
X29402Y136571D01*
X29014Y136634D01*
X28628Y136705D01*
X28244Y136787D01*
X27862Y136878D01*
X27482Y136978D01*
X27105Y137087D01*
X26730Y137206D01*
X26359Y137333D01*
X25991Y137470D01*
X25626Y137616D01*
X25265Y137771D01*
X24908Y137934D01*
X24555Y138107D01*
X24207Y138287D01*
X23863Y138477D01*
X23523Y138675D01*
X23189Y138881D01*
X22860Y139095D01*
X22536Y139317D01*
X22218Y139547D01*
X21905Y139785D01*
X21598Y140030D01*
X21298Y140283D01*
X21004Y140543D01*
X20716Y140811D01*
X20435Y141085D01*
X20161Y141366D01*
X19893Y141654D01*
X19633Y141948D01*
X19380Y142248D01*
X19135Y142555D01*
X18897Y142868D01*
X18667Y143186D01*
X18445Y143510D01*
X18231Y143839D01*
X18025Y144173D01*
X17827Y144513D01*
X17637Y144857D01*
X17457Y145205D01*
X17284Y145558D01*
X17121Y145915D01*
X16966Y146276D01*
X16820Y146641D01*
X16683Y147009D01*
X16556Y147380D01*
X16437Y147755D01*
X16328Y148132D01*
X16228Y148512D01*
X16137Y148894D01*
X16055Y149278D01*
X15984Y149664D01*
X15921Y150052D01*
X15868Y150441D01*
X15825Y150832D01*
X15791Y151223D01*
X15767Y151615D01*
X15753Y152007D01*
X15748Y152400D01*
X434848Y152400D02*
X434853Y152793D01*
X434867Y153185D01*
X434891Y153577D01*
X434925Y153968D01*
X434968Y154359D01*
X435021Y154748D01*
X435084Y155136D01*
X435155Y155522D01*
X435237Y155906D01*
X435328Y156288D01*
X435428Y156668D01*
X435537Y157045D01*
X435656Y157420D01*
X435783Y157791D01*
X435920Y158159D01*
X436066Y158524D01*
X436221Y158885D01*
X436384Y159242D01*
X436557Y159595D01*
X436737Y159943D01*
X436927Y160287D01*
X437125Y160627D01*
X437331Y160961D01*
X437545Y161290D01*
X437767Y161614D01*
X437997Y161932D01*
X438235Y162245D01*
X438480Y162552D01*
X438733Y162852D01*
X438993Y163146D01*
X439261Y163434D01*
X439535Y163715D01*
X439816Y163989D01*
X440104Y164257D01*
X440398Y164517D01*
X440698Y164770D01*
X441005Y165015D01*
X441318Y165253D01*
X441636Y165483D01*
X441960Y165705D01*
X442289Y165919D01*
X442623Y166125D01*
X442963Y166323D01*
X443307Y166513D01*
X443655Y166693D01*
X444008Y166866D01*
X444365Y167029D01*
X444726Y167184D01*
X445091Y167330D01*
X445459Y167467D01*
X445830Y167594D01*
X446205Y167713D01*
X446582Y167822D01*
X446962Y167922D01*
X447344Y168013D01*
X447728Y168095D01*
X448114Y168166D01*
X448502Y168229D01*
X448891Y168282D01*
X449282Y168325D01*
X449673Y168359D01*
X450065Y168383D01*
X450457Y168397D01*
X450850Y168402D01*
X451243Y168397D01*
X451635Y168383D01*
X452027Y168359D01*
X452418Y168325D01*
X452809Y168282D01*
X453198Y168229D01*
X453586Y168166D01*
X453972Y168095D01*
X454356Y168013D01*
X454738Y167922D01*
X455118Y167822D01*
X455495Y167713D01*
X455870Y167594D01*
X456241Y167467D01*
X456609Y167330D01*
X456974Y167184D01*
X457335Y167029D01*
X457692Y166866D01*
X458045Y166693D01*
X458393Y166513D01*
X458737Y166323D01*
X459077Y166125D01*
X459411Y165919D01*
X459740Y165705D01*
X460064Y165483D01*
X460382Y165253D01*
X460695Y165015D01*
X461002Y164770D01*
X461302Y164517D01*
X461596Y164257D01*
X461884Y163989D01*
X462165Y163715D01*
X462439Y163434D01*
X462707Y163146D01*
X462967Y162852D01*
X463220Y162552D01*
X463465Y162245D01*
X463703Y161932D01*
X463933Y161614D01*
X464155Y161290D01*
X464369Y160961D01*
X464575Y160627D01*
X464773Y160287D01*
X464963Y159943D01*
X465143Y159595D01*
X465316Y159242D01*
X465479Y158885D01*
X465634Y158524D01*
X465780Y158159D01*
X465917Y157791D01*
X466044Y157420D01*
X466163Y157045D01*
X466272Y156668D01*
X466372Y156288D01*
X466463Y155906D01*
X466545Y155522D01*
X466616Y155136D01*
X466679Y154748D01*
X466732Y154359D01*
X466775Y153968D01*
X466809Y153577D01*
X466833Y153185D01*
X466847Y152793D01*
X466852Y152400D01*
X466847Y152007D01*
X466833Y151615D01*
X466809Y151223D01*
X466775Y150832D01*
X466732Y150441D01*
X466679Y150052D01*
X466616Y149664D01*
X466545Y149278D01*
X466463Y148894D01*
X466372Y148512D01*
X466272Y148132D01*
X466163Y147755D01*
X466044Y147380D01*
X465917Y147009D01*
X465780Y146641D01*
X465634Y146276D01*
X465479Y145915D01*
X465316Y145558D01*
X465143Y145205D01*
X464963Y144857D01*
X464773Y144513D01*
X464575Y144173D01*
X464369Y143839D01*
X464155Y143510D01*
X463933Y143186D01*
X463703Y142868D01*
X463465Y142555D01*
X463220Y142248D01*
X462967Y141948D01*
X462707Y141654D01*
X462439Y141366D01*
X462165Y141085D01*
X461884Y140811D01*
X461596Y140543D01*
X461302Y140283D01*
X461002Y140030D01*
X460695Y139785D01*
X460382Y139547D01*
X460064Y139317D01*
X459740Y139095D01*
X459411Y138881D01*
X459077Y138675D01*
X458737Y138477D01*
X458393Y138287D01*
X458045Y138107D01*
X457692Y137934D01*
X457335Y137771D01*
X456974Y137616D01*
X456609Y137470D01*
X456241Y137333D01*
X455870Y137206D01*
X455495Y137087D01*
X455118Y136978D01*
X454738Y136878D01*
X454356Y136787D01*
X453972Y136705D01*
X453586Y136634D01*
X453198Y136571D01*
X452809Y136518D01*
X452418Y136475D01*
X452027Y136441D01*
X451635Y136417D01*
X451243Y136403D01*
X450850Y136398D01*
X450457Y136403D01*
X450065Y136417D01*
X449673Y136441D01*
X449282Y136475D01*
X448891Y136518D01*
X448502Y136571D01*
X448114Y136634D01*
X447728Y136705D01*
X447344Y136787D01*
X446962Y136878D01*
X446582Y136978D01*
X446205Y137087D01*
X445830Y137206D01*
X445459Y137333D01*
X445091Y137470D01*
X444726Y137616D01*
X444365Y137771D01*
X444008Y137934D01*
X443655Y138107D01*
X443307Y138287D01*
X442963Y138477D01*
X442623Y138675D01*
X442289Y138881D01*
X441960Y139095D01*
X441636Y139317D01*
X441318Y139547D01*
X441005Y139785D01*
X440698Y140030D01*
X440398Y140283D01*
X440104Y140543D01*
X439816Y140811D01*
X439535Y141085D01*
X439261Y141366D01*
X438993Y141654D01*
X438733Y141948D01*
X438480Y142248D01*
X438235Y142555D01*
X437997Y142868D01*
X437767Y143186D01*
X437545Y143510D01*
X437331Y143839D01*
X437125Y144173D01*
X436927Y144513D01*
X436737Y144857D01*
X436557Y145205D01*
X436384Y145558D01*
X436221Y145915D01*
X436066Y146276D01*
X435920Y146641D01*
X435783Y147009D01*
X435656Y147380D01*
X435537Y147755D01*
X435428Y148132D01*
X435328Y148512D01*
X435237Y148894D01*
X435155Y149278D01*
X435084Y149664D01*
X435021Y150052D01*
X434968Y150441D01*
X434925Y150832D01*
X434891Y151223D01*
X434867Y151615D01*
X434853Y152007D01*
X434848Y152400D01*
D11*
X0Y0D02*
X482600Y0D01*
X482600Y990600D01*
X0Y990600D01*
X0Y0D01*
X47752Y151876D02*
X47683Y150831D01*
X47547Y149792D01*
X47342Y148764D01*
X47071Y147752D01*
X46734Y146760D01*
X46333Y145792D01*
X45870Y144853D01*
X45346Y143945D01*
X44764Y143074D01*
X44126Y142243D01*
X43436Y141455D01*
X42695Y140714D01*
X41907Y140024D01*
X41076Y139386D01*
X40205Y138804D01*
X39297Y138280D01*
X38358Y137817D01*
X37390Y137416D01*
X36398Y137079D01*
X35386Y136808D01*
X34358Y136603D01*
X33319Y136467D01*
X32274Y136398D01*
X31226Y136398D01*
X30181Y136467D01*
X29142Y136603D01*
X28114Y136808D01*
X27102Y137079D01*
X26110Y137416D01*
X25142Y137817D01*
X24203Y138280D01*
X23295Y138804D01*
X22424Y139386D01*
X21593Y140024D01*
X20805Y140714D01*
X20064Y141455D01*
X19374Y142243D01*
X18736Y143074D01*
X18154Y143945D01*
X17630Y144853D01*
X17167Y145792D01*
X16766Y146760D01*
X16429Y147752D01*
X16158Y148764D01*
X15953Y149792D01*
X15817Y150831D01*
X15748Y151876D01*
X15748Y152924D01*
X15817Y153969D01*
X15953Y155008D01*
X16158Y156036D01*
X16429Y157048D01*
X16766Y158040D01*
X17167Y159008D01*
X17630Y159947D01*
X18154Y160855D01*
X18736Y161726D01*
X19374Y162557D01*
X20064Y163345D01*
X20805Y164086D01*
X21593Y164776D01*
X22424Y165414D01*
X23295Y165996D01*
X24203Y166520D01*
X25142Y166983D01*
X26110Y167384D01*
X27102Y167721D01*
X28114Y167992D01*
X29142Y168197D01*
X30181Y168333D01*
X31226Y168402D01*
X32274Y168402D01*
X33319Y168333D01*
X34358Y168197D01*
X35386Y167992D01*
X36398Y167721D01*
X37390Y167384D01*
X38358Y166983D01*
X39297Y166520D01*
X40205Y165996D01*
X41076Y165414D01*
X41907Y164776D01*
X42695Y164086D01*
X43436Y163345D01*
X44126Y162557D01*
X44764Y161726D01*
X45346Y160855D01*
X45870Y159947D01*
X46333Y159008D01*
X46734Y158040D01*
X47071Y157048D01*
X47342Y156036D01*
X47547Y155008D01*
X47683Y153969D01*
X47752Y152924D01*
X47752Y151876D01*
X466852Y151876D02*
X466783Y150831D01*
X466647Y149792D01*
X466442Y148764D01*
X466171Y147752D01*
X465834Y146760D01*
X465433Y145792D01*
X464970Y144853D01*
X464446Y143945D01*
X463864Y143074D01*
X463226Y142243D01*
X462536Y141455D01*
X461795Y140714D01*
X461007Y140024D01*
X460176Y139386D01*
X459305Y138804D01*
X458397Y138280D01*
X457458Y137817D01*
X456490Y137416D01*
X455498Y137079D01*
X454486Y136808D01*
X453458Y136603D01*
X452419Y136467D01*
X451374Y136398D01*
X450326Y136398D01*
X449281Y136467D01*
X448242Y136603D01*
X447214Y136808D01*
X446202Y137079D01*
X445210Y137416D01*
X444242Y137817D01*
X443303Y138280D01*
X442395Y138804D01*
X441524Y139386D01*
X440693Y140024D01*
X439905Y140714D01*
X439164Y141455D01*
X438474Y142243D01*
X437836Y143074D01*
X437254Y143945D01*
X436730Y144853D01*
X436267Y145792D01*
X435866Y146760D01*
X435529Y147752D01*
X435258Y148764D01*
X435053Y149792D01*
X434917Y150831D01*
X434848Y151876D01*
X434848Y152924D01*
X434917Y153969D01*
X435053Y155008D01*
X435258Y156036D01*
X435529Y157048D01*
X435866Y158040D01*
X436267Y159008D01*
X436730Y159947D01*
X437254Y160855D01*
X437836Y161726D01*
X438474Y162557D01*
X439164Y163345D01*
X439905Y164086D01*
X440693Y164776D01*
X441524Y165414D01*
X442395Y165996D01*
X443303Y166520D01*
X444242Y166983D01*
X445210Y167384D01*
X446202Y167721D01*
X447214Y167992D01*
X448242Y168197D01*
X449281Y168333D01*
X450326Y168402D01*
X451374Y168402D01*
X452419Y168333D01*
X453458Y168197D01*
X454486Y167992D01*
X455498Y167721D01*
X456490Y167384D01*
X457458Y166983D01*
X458397Y166520D01*
X459305Y165996D01*
X460176Y165414D01*
X461007Y164776D01*
X461795Y164086D01*
X462536Y163345D01*
X463226Y162557D01*
X463864Y161726D01*
X464446Y160855D01*
X464970Y159947D01*
X465433Y159008D01*
X465834Y158040D01*
X466171Y157048D01*
X466442Y156036D01*
X466647Y155008D01*
X466783Y153969D01*
X466852Y152924D01*
X466852Y151876D01*
M02*
